{
.appVersion = "3239";
.formatVersion = 3;
DisplayStrings = (
"/f_f/f_t ﬁﬂ",
"Ĺ"
);
axes = (
{
name = Weight;
tag = wght;
}
);
customParameters = (
{
name = "Variable Font Origin";
value = m01;
},
{
name = fsType;
value = (
);
},
{
name = blueScale;
value = 0.04;
},
{
name = blueShift;
value = 7;
},
{
name = blueFuzz;
value = 1;
},
{
name = "Use Typo Metrics";
value = 1;
},
{
name = "Use Extension Kerning";
value = 1;
},
{
name = "Axis Mappings";
value = {
wght = {
200 = 37;
300 = 51;
400 = 72;
500 = 102;
600 = 143;
700 = 201;
800 = 282;
};
};
}
);
date = "2024-01-16 17:21:16 +0000";
familyName = Ojuju;
featurePrefixes = (
{
automatic = 1;
code = "languagesystem DFLT dflt;

languagesystem latn dflt;
languagesystem latn AZE;
languagesystem latn CRT;
languagesystem latn KAZ;
languagesystem latn TAT;
languagesystem latn TRK;
languagesystem latn ROM;
languagesystem latn MOL;
languagesystem latn CAT;
languagesystem latn NLD;
";
name = Languagesystems;
}
);
features = (
{
automatic = 1;
code = "feature locl;
feature subs;
feature sinf;
feature sups;
feature numr;
feature dnom;
feature frac;
feature ordn;
feature pnum;
feature tnum;
feature case;
feature zero;
feature dtls;
";
tag = aalt;
},
{
automatic = 1;
code = "lookup ccmp_DFLT_1 {
	lookupflag 0;
	sub acutecomb macroncomb by acutecomb_macroncomb;
	sub brevecomb acutecomb by brevecomb_acutecomb;
	sub brevecomb gravecomb by brevecomb_gravecomb;
	sub brevecomb hookabovecomb by brevecomb_hookabovecomb;
	sub brevecomb tildecomb by brevecomb_tildecomb;
	sub circumflexcomb acutecomb by circumflexcomb_acutecomb;
	sub circumflexcomb gravecomb by circumflexcomb_gravecomb;
	sub circumflexcomb hookabovecomb by circumflexcomb_hookabovecomb;
	sub circumflexcomb tildecomb by circumflexcomb_tildecomb;
	sub gravecomb macroncomb by gravecomb_macroncomb;
	sub macroncomb acutecomb by macroncomb_acutecomb;
	sub macroncomb gravecomb by macroncomb_gravecomb;
} ccmp_DFLT_1;

lookup ccmp_Other_1 {

glyphs = (
{
glyphname = A;
kernLeft = KO_A;
kernRight = KO_A;
lastChange = "2024-01-31 17:59:59 +0000";
layers = (
{
anchors = (
{
name = bottom;
pos = (329,0);
},
{
name = ogonek;
pos = (628,0);
},
{
name = top;
pos = (329,700);
}
);
layerId = m01;
shapes = (
{
closed = 1;
nodes = (
(111,0,l),
(111,13,o),
(111,26,o),
(111,39,cs),
(111,72,o),
(114,102,o),
(133,115,cs),
(143,122,o),
(161,131,o),
(329,131,cs),
(497,131,o),
(515,122,o),
(525,115,cs),
(545,101,o),
(547,72,o),
(547,39,cs),
(547,26,o),
(547,13,o),
(547,0,c),
(628,0,l),
(599,216,o),
(582,419,o),
(570,700,c),
(88,700,l),
(76,419,o),
(59,216,o),
(30,0,c)
);
},
{
closed = 1;
nodes = (
(233,351,o),
(168,354,o),
(145,377,cs),
(139,383,o),
(136,390,o),
(136,403,cs),
(136,416,o),
(139,423,o),
(145,429,cs),
(168,452,o),
(235,455,o),
(329,455,cs),
(423,455,o),
(490,452,o),
(513,429,cs),
(519,423,o),
(522,416,o),
(522,403,cs),
(522,390,o),
(519,383,o),
(513,377,cs),
(490,354,o),
(425,351,o),
(329,351,cs)
);
}
);
width = 658;
},
{
anchors = (
{
name = bottom;
pos = (288,0);
},
{
name = ogonek;
pos = (522,0);
},
{
name = top;
pos = (288,700);
}
);
layerId = "60D037D9-62E9-4843-B070-F1594CB0B0D1";
shapes = (
{
closed = 1;
nodes = (
(87,0,l),
(87,10,o),
(90,61,o),
(95,109,cs),
(100,153,o),
(106,195,o),
(113,202,cs),
(122,211,o),
(127,214,o),
(288,214,cs),
(449,214,o),
(454,211,o),
(463,202,cs),
(470,195,o),
(476,153,o),
(481,109,cs),
(486,61,o),
(489,10,o),
(489,0,c),
(522,0,l),
(486,232,o),
(468,468,o),
(453,700,c),
(123,700,l),
(108,468,o),
(90,232,o),
(54,0,c)
);
},
{
closed = 1;
nodes = (
(123,243,o),
(115,243,o),
(115,272,cs),
(115,300,o),
(119,363,o),
(128,463,cs),
(144,645,o),
(145,650,o),
(152,655,cs),
(159,660,o),
(166,661,o),
(288,661,cs),
(410,661,o),
(417,660,o),
(424,655,cs),
(431,650,o),
(432,645,o),
(448,463,cs),
(457,363,o),
(461,300,o),
(461,272,cs),
(461,243,o),
(453,243,o),
(288,243,cs)
);
}
);
width = 576;
}
);
unicode = 65;
userData = {
KernOnName = A;
};
},
{
glyphname = "Alpha-latin";
lastChange = "2024-01-25 02:27:43 +0000";
layers = (
{
background = {
shapes = (
{
pos = (-1,0);
ref = O;
}
);
};
layerId = "60D037D9-62E9-4843-B070-F1594CB0B0D1";
shapes = (
{
closed = 1;
nodes = (
(722,30,l),
(710,26,o),
(690,23,o),
(676,23,cs),
(648,23,o),
(625,28,o),
(611,50,cs),
(593,78,o),
(589,128,o),
(589,350,cs),
(589,507,o),
(595,664,o),
(598,700,c),
(564,700,l),
(568,576,o),
(568,576,o),
(568,544,cs),
(568,536,o),
(565,536,o),
(563,536,cs),
(560,536,o),
(557,536,o),
(553,545,cs),
(511,631,o),
(455,716,o),
(322,716,cs),
(174,716,o),
(54,637,o),
(54,350,cs),
(54,63,o),
(174,-16,o),
(322,-16,cs),
(455,-16,o),
(511,69,o),
(553,155,cs),
(557,164,o),
(560,164,o),
(563,164,cs),
(567,164,o),
(569,163,o),
(570,144,cs),
(573,74,o),
(579,36,o),
(602,11,cs),
(620,-9,o),
(649,-16,o),
(676,-16,cs),
(697,-16,o),
(710,-13,o),
(722,-9,c)
);
},
{
closed = 1;
nodes = (
(136,23,o),
(77,162,o),
(77,350,cs),
(77,538,o),
(136,677,o),
(322,677,cs),
(498,677,o),
(564,522,o),
(564,350,cs),
(564,178,o),
(498,23,o),
(322,23,cs)
);
}
);
width = 724;
},
{
background = {
shapes = (
{
closed = 1;
nodes = (
(439,-10,o),
(492,45,o),
(516,81,cs),
(536,111,o),
(548,127,o),
(557,127,cs),
(567,127,o),
(569,120,o),
(569,85,cs),
(569,-8,o),
(644,-8,o),
(693,-8,c),
(693,76,l),
(678,74,o),
(678,74,o),
(667,74,cs),
(657,74,o),
(648,80,o),
(645,92,cs),
(642,102,o),
(639,123,o),
(639,350,cs),
(639,577,o),
(642,598,o),
(645,608,cs),
(648,620,o),
(657,626,o),
(667,626,cs),
(678,626,o),
(678,626,o),
(693,624,c),
(693,708,l),
(644,708,o),
(569,708,o),
(569,615,cs),
(569,580,o),
(567,573,o),
(557,573,cs),
(548,573,o),
(536,589,o),
(516,619,cs),
(492,655,o),
(439,710,o),
(320,710,cs),
(124,710,o),
(42,594,o),
(42,350,cs),
(42,106,o),
(124,-10,o),
(320,-10,cs)
);
},
{
closed = 1;
nodes = (
(264,245,o),
(212,250,o),
(176,262,cs),
(129,278,o),
(109,305,o),
(109,350,cs),
(109,395,o),
(129,422,o),
(176,438,cs),
(212,450,o),
(264,455,o),
(342,455,cs),
(414,455,o),
(472,450,o),
(507,438,cs),
(555,422,o),
(575,395,o),
(575,350,cs),
(575,305,o),
(555,278,o),
(507,262,cs),
(472,250,o),
(414,245,o),
(342,245,cs)
);
}
);
};
layerId = m01;
shapes = (
{
closed = 1;
nodes = (
(794,174,l),
(761,169,o),
(738,168,o),
(717,168,cs),
(684,168,o),
(665,173,o),
(654,194,cs),
(641,219,o),
(639,265,o),
(639,350,cs),
(639,532,o),
(639,532,o),
(646,700,c),
(565,700,l),
(568,662,o),
(569,631,o),
(569,610,cs),
(569,580,o),
(567,573,o),
(557,573,cs),
(548,573,o),
(536,589,o),
(516,619,cs),
(492,655,o),
(439,710,o),
(320,710,cs),
(124,710,o),
(42,594,o),
(42,350,cs),
(42,106,o),
(124,-10,o),
(320,-10,cs),
(439,-10,o),
(492,45,o),
(516,81,cs),
(536,111,o),
(548,127,o),
(557,127,cs),
(563,127,o),
(567,123,o),
(569,112,cs),
(577,61,o),
(590,31,o),
(612,13,cs),
(635,-5,o),
(666,-10,o),
(706,-10,cs),
(732,-10,o),
(762,-7,o),
(794,-1,c)
);
},
{
closed = 1;
nodes = (
(238,245,o),
(109,245,o),
(109,350,cs),
(109,454,o),
(238,455,o),
(342,455,cs),
(438,455,o),
(575,455,o),
(575,350,cs),
(575,245,o),
(438,245,o),
(342,245,cs)
);
}
);
width = 812;
}
);
metricLeft = O;
unicode = 11373;
},
{
glyphname = AE;
kernLeft = KO_AE;
kernRight = KO_AE;
lastChange = "2024-01-25 15:50:47 +0000";
layers = (
{
anchors = (
{
name = bottom;
pos = (484,0);
},
{
name = top;
pos = (484,700);
}
);
background = {
shapes = (
{
closed = 1;
nodes = (
(86,0,l),
(90,21,o),
(124,187,o),
(141,202,cs),
(153,212,o),
(164,214,o),
(275,214,cs),
(399,214,o),
(416,213,o),
(423,208,cs),
(433,201,o),
(436,179,o),
(436,0,c),
(782,0,l),
(782,36,l),
(720,36,o),
(658,36,o),
(596,36,cs),
(489,36,o),
(477,37,o),
(470,42,cs),
(462,48,o),
(459,62,o),
(459,195,cs),
(459,301,o),
(460,341,o),
(470,348,cs),
(477,353,o),
(495,354,o),
(549,354,cs),
(635,354,o),
(635,354,o),
(764,351,c),
(764,387,l),
(635,384,o),
(635,384,o),
(550,384,cs),
(495,384,o),
(477,385,o),
(470,390,cs),
(462,396,o),
(459,411,o),
(459,524,cs),
(459,637,o),
(462,652,o),
(470,658,cs),
(477,663,o),
(489,664,o),
(596,664,cs),
(658,664,o),
(720,664,o),
(782,664,c),
(782,700,l),
(219,700,l),
(170,468,o),
(120,232,o),
(54,0,c)
);
},
{
closed = 1;
nodes = (
(188,243,o),
(176,244,o),
(164,249,cs),
(146,256,o),
(147,264,o),
(193,464,cs),
(233,639,o),
(236,651,o),
(243,656,cs),
(250,661,o),
(275,661,o),
(334,661,cs),
(419,661,o),
(426,659,o),
(431,655,cs),
(437,650,o),
(437,649,o),
(437,463,cs),
(437,271,o),
(434,256,o),
(424,249,cs),
(417,244,o),
(399,243,o),
(291,243,cs)
);
}
);
};
layerId = "60D037D9-62E9-4843-B070-F1594CB0B0D1";
shapes = (
{
closed = 1;
nodes = (
(88,0,l),
(91,21,o),
(123,187,o),
(140,202,cs),
(152,212,o),
(164,214,o),
(275,214,cs),
(399,214,o),
(416,213,o),
(423,208,cs),
(433,201,o),
(436,179,o),
(436,0,c),
(781,0,l),
(781,36,l),
(719,36,o),
(657,36,o),
(595,36,cs),
(488,36,o),
(476,37,o),
(469,42,cs),
(461,48,o),
(458,62,o),
(458,195,cs),
(458,301,o),
(459,341,o),
(469,348,cs),
(476,353,o),
(494,354,o),
(548,354,cs),
(634,354,o),
(634,354,o),
(763,351,c),
(763,387,l),
(634,384,o),
(634,384,o),
(549,384,cs),
(494,384,o),
(477,385,o),
(470,390,cs),
(462,396,o),
(459,411,o),
(459,524,cs),
(459,637,o),
(462,652,o),
(470,658,cs),
(477,663,o),
(488,664,o),
(595,664,cs),
(657,664,o),
(719,664,o),
(781,664,c),
(781,700,l),
(217,700,l),
(170,468,o),
(120,232,o),
(54,0,c)
);
},
{
closed = 1;
nodes = (
(154,243,o),
(151,246,o),
(151,266,cs),
(151,288,o),
(162,337,o),
(191,464,cs),
(231,639,o),
(234,651,o),
(241,656,cs),
(248,661,o),
(274,661,o),
(334,661,cs),
(419,661,o),
(426,659,o),
(431,655,cs),
(437,650,o),
(437,649,o),
(437,463,cs),
(437,271,o),
(434,256,o),
(424,249,cs),
(417,244,o),
(399,243,o),
(291,243,cs)
);
}
);
width = 831;
},
{
anchors = (
{
name = bottom;
pos = (560,0);
},
{
name = top;
pos = (560,700);
}
);
background = {
shapes = (
{
closed = 1;
nodes = (
(135,0,l),
(132,43,o),
(129,97,o),
(159,115,cs),
(171,122,o),
(191,131,o),
(321,131,cs),
(452,131,o),
(472,122,o),
(484,115,cs),
(514,97,o),
(511,43,o),
(508,0,c),
(920,0,l),
(920,249,l),
(910,248,o),
(815,246,o),
(770,246,cs),
(628,246,o),
(605,248,o),
(586,262,cs),
(579,269,o),
(574,273,o),
(574,287,cs),
(574,301,o),
(579,307,o),
(586,313,cs),
(605,327,o),
(669,325,o),
(770,325,cs),
(823,325,o),
(868,324,o),
(890,323,c),
(890,395,l),
(868,394,o),
(823,393,o),
(770,393,cs),
(669,393,o),
(596,392,o),
(582,404,cs),
(576,409,o),
(574,415,o),
(574,423,cs),
(574,431,o),
(576,437,o),
(582,442,cs),
(596,454,o),
(628,455,o),
(770,455,cs),
(815,455,o),
(907,453,o),
(917,452,c),
(920,700,l),
(199,700,l),
(145,427,o),
(88,208,o),
(30,0,c)
);
},
{
closed = 1;
nodes = (
(304,350,o),
(239,353,o),
(216,376,cs),
(210,382,o),
(207,390,o),
(207,403,cs),
(207,416,o),
(210,424,o),
(216,430,cs),
(239,453,o),
(306,456,o),
(348,456,cs),
(390,456,o),
(457,453,o),
(480,430,cs),
(486,424,o),
(489,416,o),
(489,403,cs),
(489,390,o),
(486,382,o),
(480,376,cs),
(457,353,o),
(392,350,o),
(348,350,cs)
);
}
);
};
layerId = m01;
shapes = (
{
closed = 1;
nodes = (
(122,0,l),
(126,48,o),
(133,92,o),
(152,110,cs),
(173,129,o),
(189,131,o),
(321,131,cs),
(453,131,o),
(467,129,o),
(488,110,cs),
(507,92,o),
(509,43,o),
(509,0,c),
(920,0,l),
(920,249,l),
(910,248,o),
(815,246,o),
(770,246,cs),
(628,246,o),
(604,249,o),
(586,262,cs),
(578,268,o),
(574,276,o),
(574,287,cs),
(574,299,o),
(578,307,o),
(586,313,cs),
(602,325,o),
(669,325,o),
(712,325,cs),
(751,325,o),
(751,325,o),
(890,322,c),
(890,396,l),
(751,393,o),
(751,393,o),
(712,393,cs),
(669,393,o),
(596,395,o),
(582,405,cs),
(574,411,o),
(574,419,o),
(574,424,cs),
(574,429,o),
(576,437,o),
(582,442,cs),
(596,454,o),
(628,455,o),
(770,455,cs),
(815,455,o),
(907,453,o),
(917,452,c),
(920,700,l),
(199,700,l),
(145,427,o),
(88,208,o),
(30,0,c)
);
},
{
closed = 1;
nodes = (
(304,350,o),
(239,353,o),
(216,376,cs),
(210,382,o),
(207,390,o),
(207,403,cs),
(207,416,o),
(210,424,o),
(216,430,cs),
(239,453,o),
(306,456,o),
(348,456,cs),
(390,456,o),
(457,453,o),
(480,430,cs),
(486,424,o),
(489,416,o),
(489,403,cs),
(489,390,o),
(486,382,o),
(480,376,cs),
(457,353,o),
(392,350,o),
(348,350,cs)
);
}
);
width = 956;
}
);
metricLeft = A;
metricRight = E;
unicode = 198;
},
{
glyphname = B;
kernLeft = KO_H;
kernRight = KO_B;
lastChange = "2024-01-31 18:00:07 +0000";
layers = (
{
anchors = (
{
name = bottom;
pos = (293,0);
},
{
name = center;
pos = (305,350);
},
{
name = hook;
pos = (60,700);
},
{
name = top;
pos = (286,700);
}
);
layerId = m01;
shapes = (
{
closed = 1;
nodes = (
(406,0,ls),
(553,0,o),
(620,61,o),
(620,193,cs),
(620,282,o),
(578,346,o),
(489,369,c),
(551,402,o),
(576,448,o),
(576,515,cs),
(576,642,o),
(509,700,o),
(362,700,cs),
(58,700,l),
(61,463,o),
(61,463,o),
(61,350,cs),
(61,239,o),
(61,239,o),
(58,0,c)
);
},
{
closed = 1;
nodes = (
(167,235,o),
(152,242,o),
(135,252,cs),
(129,256,o),
(121,265,o),
(121,283,cs),
(121,302,o),
(129,310,o),
(135,314,cs),
(152,325,o),
(167,331,o),
(312,331,cs),
(457,331,o),
(471,325,o),
(488,314,cs),
(494,310,o),
(502,302,o),
(502,283,cs),
(502,265,o),
(494,256,o),
(488,252,cs),
(471,242,o),
(457,235,o),
(312,235,cs)
);
},
{
closed = 1;
nodes = (
(183,392,o),
(152,394,o),
(137,409,cs),
(133,413,o),
(130,418,o),
(130,428,cs),
(130,437,o),
(133,443,o),
(137,447,cs),
(152,461,o),
(183,463,o),
(301,463,cs),
(419,463,o),
(450,461,o),
(465,447,cs),
(469,443,o),
(472,437,o),
(472,428,cs),
(472,418,o),
(469,413,o),
(465,409,cs),
(450,394,o),
(419,392,o),
(301,392,cs)
);
}
);
width = 660;
},
{
anchors = (
{
name = bottom;
pos = (275,0);
},
{
name = center;
pos = (299,350);
},
{
name = hook;
pos = (95,700);
},
{
name = top;
pos = (275,700);
}
);
background = {
shapes = (
{
closed = 1;
nodes = (
(356,0,ls),
(477,0,o),
(559,78,o),
(559,188,cs),
(559,266,o),
(525,339,o),
(418,367,c),
(513,407,o),
(518,489,o),
(518,526,cs),
(518,629,o),
(455,700,o),
(343,700,cs),
(96,700,l),
(97,671,o),
(99,461,o),
(99,350,cs),
(99,239,o),
(97,29,o),
(96,0,c)
);
},
{
closed = 1;
nodes = (
(153,39,o),
(141,42,o),
(132,49,cs),
(123,56,o),
(120,63,o),
(120,193,cs),
(120,323,o),
(123,335,o),
(132,342,cs),
(141,349,o),
(153,350,o),
(249,350,cs),
(351,350,o),
(389,350,o),
(427,338,cs),
(473,323,o),
(537,278,o),
(537,193,cs),
(537,127,o),
(504,77,o),
(448,54,cs),
(418,42,o),
(377,39,o),
(249,39,cs)
);
},
{
closed = 1;
nodes = (
(153,381,o),
(141,382,o),
(132,389,cs),
(123,396,o),
(120,408,o),
(120,521,cs),
(120,634,o),
(123,646,o),
(132,653,cs),
(141,660,o),
(153,661,o),
(249,661,cs),
(351,661,o),
(377,660,o),
(405,653,cs),
(451,641,o),
(496,598,o),
(496,521,cs),
(496,444,o),
(451,401,o),
(405,389,cs),
(377,382,o),
(351,381,o),
(249,381,cs)
);
}
);
};
layerId = "60D037D9-62E9-4843-B070-F1594CB0B0D1";
shapes = (
{
closed = 1;
nodes = (
(356,0,ls),
(477,0,o),
(559,78,o),
(559,188,cs),
(559,266,o),
(525,339,o),
(418,367,c),
(513,407,o),
(518,489,o),
(518,526,cs),
(518,629,o),
(455,700,o),
(343,700,cs),
(95,700,l),
(99,461,o),
(99,461,o),
(99,350,cs),
(99,239,o),
(99,239,o),
(95,0,c)
);
},
{
closed = 1;
nodes = (
(153,39,o),
(141,42,o),
(132,49,cs),
(123,56,o),
(120,63,o),
(120,193,cs),
(120,323,o),
(123,335,o),
(132,342,cs),
(141,349,o),
(153,350,o),
(249,350,cs),
(351,350,o),
(389,350,o),
(427,338,cs),
(473,323,o),
(537,278,o),
(537,193,cs),
(537,127,o),
(504,77,o),
(448,54,cs),
(418,42,o),
(377,39,o),
(249,39,cs)
);
},
{
closed = 1;
nodes = (
(153,381,o),
(141,382,o),
(132,389,cs),
(123,396,o),
(120,408,o),
(120,521,cs),
(120,634,o),
(123,646,o),
(132,653,cs),
(141,660,o),
(153,661,o),
(249,661,cs),
(351,661,o),
(377,660,o),
(405,653,cs),
(451,641,o),
(496,598,o),
(496,521,cs),
(496,444,o),
(451,401,o),
(405,389,cs),
(377,382,o),
(351,381,o),
(249,381,cs)
);
}
);
width = 604;
}
);
metricLeft = H;
unicode = 66;
userData = {
KernOnName = B;
};
},
{
glyphname = "Beta-latin";
lastChange = "2024-01-25 01:04:19 +0000";
layers = (
{
layerId = "60D037D9-62E9-4843-B070-F1594CB0B0D1";
shapes = (
{
closed = 1;
nodes = (
(101,238,o),
(98,-6,o),
(95,-118,c),
(126,-118,l),
(123,0,l),
(358,0,ls),
(479,0,o),
(561,78,o),
(561,188,cs),
(561,266,o),
(527,339,o),
(420,367,c),
(515,407,o),
(520,489,o),
(520,526,cs),
(520,629,o),
(457,700,o),
(345,700,cs),
(97,700,l),
(101,461,o),
(101,461,o),
(101,350,cs)
);
},
{
closed = 1;
nodes = (
(122,323,o),
(125,335,o),
(134,342,cs),
(143,349,o),
(155,350,o),
(251,350,cs),
(353,350,o),
(391,350,o),
(429,338,cs),
(475,323,o),
(539,278,o),
(539,193,cs),
(539,127,o),
(506,77,o),
(450,54,cs),
(420,42,o),
(379,39,o),
(251,39,cs),
(155,39,o),
(143,42,o),
(134,49,cs),
(125,56,o),
(122,63,o),
(122,193,cs)
);
},
{
closed = 1;
nodes = (
(122,634,o),
(125,646,o),
(134,653,cs),
(143,660,o),
(155,661,o),
(251,661,cs),
(353,661,o),
(379,660,o),
(407,653,cs),
(453,641,o),
(498,598,o),
(498,521,cs),
(498,444,o),
(453,401,o),
(407,389,cs),
(379,382,o),
(353,381,o),
(251,381,cs),
(155,381,o),
(143,382,o),
(134,389,cs),
(125,396,o),
(122,408,o),
(122,521,cs)
);
}
);
width = 606;
},
{
layerId = m01;
shapes = (
{
closed = 1;
nodes = (
(64,239,o),
(64,239,o),
(58,-137,c),
(134,-137,l),
(131,0,l),
(409,0,ls),
(556,0,o),
(623,61,o),
(623,193,cs),
(623,282,o),
(581,346,o),
(492,369,c),
(554,402,o),
(579,448,o),
(579,515,cs),
(579,642,o),
(512,700,o),
(365,700,cs),
(61,700,l),
(64,463,o),
(64,463,o),
(64,350,cs)
);
},
{
closed = 1;
nodes = (
(124,302,o),
(132,310,o),
(138,314,cs),
(155,325,o),
(170,331,o),
(315,331,cs),
(460,331,o),
(474,325,o),
(491,314,cs),
(497,310,o),
(505,302,o),
(505,283,cs),
(505,265,o),
(497,256,o),
(491,252,cs),
(474,242,o),
(460,235,o),
(315,235,cs),
(170,235,o),
(155,242,o),
(138,252,cs),
(132,256,o),
(124,265,o),
(124,283,cs)
);
},
{
closed = 1;
nodes = (
(133,437,o),
(136,443,o),
(140,447,cs),
(155,461,o),
(186,463,o),
(304,463,cs),
(422,463,o),
(453,461,o),
(468,447,cs),
(472,443,o),
(475,437,o),
(475,428,cs),
(475,418,o),
(472,413,o),
(468,409,cs),
(453,394,o),
(422,392,o),
(304,392,cs),
(186,392,o),
(155,394,o),
(140,409,cs),
(136,413,o),
(133,418,o),
(133,428,cs)
);
}
);
width = 663;
}
);
metricLeft = B;
metricRight = B;
unicode = 42932;
},
{
glyphname = Bstroke;
kernRight = KO_B;
lastChange = "2024-01-25 02:28:53 +0000";
layers = (
{
layerId = "60D037D9-62E9-4843-B070-F1594CB0B0D1";
shapes = (
{
closed = 1;
nodes = (
(356,0,ls),
(477,0,o),
(559,78,o),
(559,188,cs),
(559,266,o),
(525,339,o),
(418,367,c),
(513,407,o),
(518,489,o),
(518,526,cs),
(518,629,o),
(455,700,o),
(343,700,cs),
(95,700,l),
(99,461,o),
(99,461,o),
(99,350,cs),
(99,239,o),
(99,239,o),
(95,0,c)
);
},
{
closed = 1;
nodes = (
(153,39,o),
(141,42,o),
(132,49,cs),
(123,56,o),
(120,63,o),
(120,193,cs),
(120,323,o),
(123,335,o),
(132,342,cs),
(141,349,o),
(153,350,o),
(249,350,cs),
(351,350,o),
(389,350,o),
(427,338,cs),
(473,323,o),
(537,278,o),
(537,193,cs),
(537,127,o),
(504,77,o),
(448,54,cs),
(418,42,o),
(377,39,o),
(249,39,cs)
);
},
{
closed = 1;
nodes = (
(153,381,o),
(141,382,o),
(132,389,cs),
(123,396,o),
(120,408,o),
(120,521,cs),
(120,634,o),
(123,646,o),
(132,653,cs),
(141,660,o),
(153,661,o),
(249,661,cs),
(351,661,o),
(377,660,o),
(405,653,cs),
(451,641,o),
(496,598,o),
(496,521,cs),
(496,444,o),
(451,401,o),
(405,389,cs),
(377,382,o),
(351,381,o),
(249,381,cs)
);
},
{
closed = 1;
nodes = (
(76,179,o),
(109,179,o),
(142,179,cs),
(176,179,o),
(210,179,o),
(243,177,c),
(243,209,l),
(210,207,o),
(176,207,o),
(142,207,cs),
(109,207,o),
(76,207,o),
(43,209,c),
(43,177,l)
);
}
);
width = 604;
},
{
layerId = m01;
shapes = (
{
closed = 1;
nodes = (
(406,0,ls),
(553,0,o),
(620,61,o),
(620,193,cs),
(620,282,o),
(578,346,o),
(489,369,c),
(551,402,o),
(576,448,o),
(576,515,cs),
(576,642,o),
(509,700,o),
(362,700,cs),
(58,700,l),
(61,463,o),
(61,463,o),
(61,350,cs),
(61,239,o),
(61,239,o),
(58,0,c)
);
},
{
closed = 1;
nodes = (
(167,235,o),
(152,242,o),
(135,252,cs),
(129,256,o),
(121,265,o),
(121,283,cs),
(121,302,o),
(129,310,o),
(135,314,cs),
(152,325,o),
(167,331,o),
(312,331,cs),
(457,331,o),
(471,325,o),
(488,314,cs),
(494,310,o),
(502,302,o),
(502,283,cs),
(502,265,o),
(494,256,o),
(488,252,cs),
(471,242,o),
(457,235,o),
(312,235,cs)
);
},
{
closed = 1;
nodes = (
(183,392,o),
(152,394,o),
(137,409,cs),
(133,413,o),
(130,418,o),
(130,428,cs),
(130,437,o),
(133,443,o),
(137,447,cs),
(152,461,o),
(183,463,o),
(301,463,cs),
(419,463,o),
(450,461,o),
(465,447,cs),
(469,443,o),
(472,437,o),
(472,428,cs),
(472,418,o),
(469,413,o),
(465,409,cs),
(450,394,o),
(419,392,o),
(301,392,cs)
);
},
{
closed = 1;
nodes = (
(42,260,o),
(93,260,o),
(143,260,cs),
(193,260,o),
(243,260,o),
(293,258,c),
(293,310,l),
(244,308,o),
(193,308,o),
(143,308,cs),
(93,308,o),
(43,308,o),
(-7,310,c),
(-7,258,l)
);
}
);
width = 660;
}
);
unicode = 579;
},
{
glyphname = C;
kernLeft = KO_C;
kernRight = KO_C;
lastChange = "2024-01-31 17:57:43 +0000";
layers = (
{
anchors = (
{
name = bottom;
pos = (311,0);
},
{
name = center;
pos = (336,350);
},
{
name = hook;
pos = (578,686);
},
{
name = top;
pos = (342,700);
}
);
layerId = m01;
shapes = (
{
closed = 1;
nodes = (
(578,270,l),
(532,260,o),
(438,245,o),
(321,245,cs),
(234,245,o),
(176,256,o),
(143,281,cs),
(122,297,o),
(112,320,o),
(112,350,cs),
(112,380,o),
(122,403,o),
(143,419,cs),
(176,444,o),
(234,455,o),
(321,455,cs),
(438,455,o),
(532,440,o),
(578,430,c),
(578,677,l),
(542,689,o),
(456,710,o),
(381,710,cs),
(152,710,o),
(42,597,o),
(42,350,cs),
(42,101,o),
(147,-10,o),
(367,-10,cs),
(431,-10,o),
(521,3,o),
(578,28,c)
);
}
);
width = 614;
},
{
anchors = (
{
name = bottom;
pos = (333,0);
},
{
name = center;
pos = (343,350);
},
{
name = hook;
pos = (508,679);
},
{
name = top;
pos = (329,700);
}
);
layerId = "60D037D9-62E9-4843-B070-F1594CB0B0D1";
shapes = (
{
closed = 1;
nodes = (
(508,59,l),
(467,37,o),
(402,21,o),
(344,21,cs),
(277,21,o),
(223,41,o),
(182,75,cs),
(111,134,o),
(77,235,o),
(77,350,cs),
(77,448,o),
(102,536,o),
(153,596,cs),
(197,648,o),
(260,679,o),
(344,679,cs),
(402,679,o),
(467,665,o),
(508,643,c),
(508,690,l),
(476,704,o),
(416,716,o),
(355,716,cs),
(162,716,o),
(54,578,o),
(54,350,cs),
(54,122,o),
(162,-16,o),
(355,-16,cs),
(416,-16,o),
(476,-1,o),
(508,13,c)
);
}
);
width = 558;
}
);
metricLeft = O;
unicode = 67;
userData = {
KernOnName = C;
};
},
{
glyphname = "Chi-latin";
lastChange = "2024-01-25 21:24:00 +0000";
layers = (
{
background = {
shapes = (
{
closed = 1;
nodes = (
(667,46,l),
(560,46,o),
(559,46,o),
(540,70,cs),
(528,86,o),
(508,135,o),
(484,199,cs),
(446,303,o),
(398,447,o),
(360,549,cs),
(341,599,o),
(324,638,o),
(311,658,cs),
(288,694,o),
(266,700,o),
(171,700,c),
(171,654,l),
(277,654,o),
(278,654,o),
(297,630,cs),
(307,618,o),
(321,585,o),
(338,541,cs),
(374,448,o),
(422,302,o),
(463,189,cs),
(488,122,o),
(510,67,o),
(526,42,cs),
(549,6,o),
(571,0,o),
(667,0,c)
);
},
{
closed = 1;
nodes = (
(250,0,l),
(625,700,l),
(588,700,l),
(214,0,l)
);
}
);
};
layerId = "60D037D9-62E9-4843-B070-F1594CB0B0D1";
shapes = (
{
closed = 1;
nodes = (
(138,-158,l),
(205,-27,o),
(278,100,o),
(358,239,c),
(419,72,o),
(479,-81,o),
(507,-123,cs),
(528,-154,o),
(565,-169,o),
(597,-169,cs),
(623,-169,o),
(644,-167,o),
(668,-159,c),
(668,-113,l),
(645,-121,o),
(622,-127,o),
(597,-127,cs),
(574,-127,o),
(549,-118,o),
(530,-97,cs),
(507,-72,o),
(432,97,o),
(375,270,c),
(446,401,o),
(544,567,o),
(623,700,c),
(581,700,l),
(515,569,o),
(441,441,o),
(360,302,c),
(299,469,o),
(239,623,o),
(211,665,cs),
(190,696,o),
(153,711,o),
(121,711,cs),
(95,711,o),
(74,709,o),
(50,701,c),
(50,655,l),
(73,663,o),
(96,669,o),
(121,669,cs),
(144,669,o),
(169,660,o),
(188,639,cs),
(211,614,o),
(286,445,o),
(343,272,c),
(274,141,o),
(176,-25,o),
(96,-158,c)
);
}
);
width = 668;
},
{
background = {
shapes = (
{
closed = 1;
nodes = (
(377,341,l),
(317,466,o),
(254,596,o),
(244,614,cs),
(199,695,o),
(161,716,o),
(106,716,cs),
(61,716,o),
(28,710,o),
(-8,692,c),
(-8,449,l),
(34,472,o),
(82,485,o),
(125,485,cs),
(167,485,o),
(202,476,o),
(236,433,cs),
(244,423,o),
(283,346,o),
(327,252,c)
);
},
{
closed = 1;
nodes = (
(439,149,l),
(430,212,l),
(491,309,o),
(616,504,o),
(744,700,c),
(551,700,l),
(497,600,o),
(413,464,o),
(356,373,c),
(352,315,l),
(320,300,l),
(246,183,o),
(97,-47,o),
(8,-180,c),
(197,-180,l),
(261,-65,o),
(324,36,o),
(390,140,c)
);
},
{
closed = 1;
nodes = (
(368,167,l),
(420,55,o),
(474,-58,o),
(494,-94,cs),
(538,-173,o),
(589,-196,o),
(644,-196,cs),
(679,-196,o),
(712,-190,o),
(748,-172,c),
(748,71,l),
(706,48,o),
(658,35,o),
(615,35,cs),
(573,35,o),
(539,42,o),
(505,86,cs),
(498,95,o),
(454,168,o),
(418,254,c)
);
}
);
};
layerId = m01;
shapes = (
{
closed = 1;
nodes = (
(218,-180,l),
(272,-68,o),
(326,30,o),
(384,131,c),
(424,32,o),
(464,-62,o),
(480,-94,cs),
(518,-173,o),
(563,-196,o),
(612,-196,cs),
(642,-196,o),
(671,-190,o),
(704,-172,c),
(704,71,l),
(666,48,o),
(623,35,o),
(586,35,cs),
(549,35,o),
(519,42,o),
(489,86,cs),
(484,94,o),
(454,148,o),
(426,218,c),
(481,317,o),
(590,508,o),
(700,700,c),
(530,700,l),
(483,602,o),
(411,469,o),
(361,378,c),
(313,491,o),
(266,598,o),
(258,614,cs),
(218,694,o),
(185,716,o),
(137,716,cs),
(98,716,o),
(69,710,o),
(36,692,c),
(36,449,l),
(74,472,o),
(117,485,o),
(154,485,cs),
(191,485,o),
(222,476,o),
(252,433,cs),
(258,424,o),
(286,364,o),
(318,286,c),
(250,165,o),
(127,-52,o),
(51,-180,c)
);
}
);
width = 704;
}
);
metricLeft = "=|C";
unicode = 42931;
},
{
glyphname = D;
kernLeft = KO_H;
kernRight = KO_D;
lastChange = "2024-01-31 18:02:56 +0000";
layers = (
{
anchors = (
{
name = bottom;
pos = (295,0);
},
{
name = center;
pos = (140,350);
},
{
name = hook;
pos = (58,700);
},
{
name = top;
pos = (295,700);
}
);
layerId = m01;
shapes = (
{
closed = 1;
nodes = (
(345,0,ls),
(444,0,o),
(493,7,o),
(542,48,cs),
(601,98,o),
(626,157,o),
(626,350,cs),
(626,543,o),
(601,602,o),
(542,652,cs),
(493,693,o),
(444,700,o),
(345,700,cs),
(58,700,l),
(61,461,o),
(61,461,o),
(61,350,cs),
(61,237,o),
(61,237,o),
(58,0,c)
);
},
{
closed = 1;
nodes = (
(209,250,o),
(178,250,o),
(149,269,cs),
(128,283,o),
(124,299,o),
(124,350,cs),
(124,401,o),
(128,417,o),
(149,431,cs),
(178,450,o),
(209,450,o),
(339,450,cs),
(474,450,o),
(495,440,o),
(524,421,cs),
(545,407,o),
(559,383,o),
(559,350,cs),
(559,319,o),
(545,295,o),
(524,279,cs),
(497,258,o),
(474,250,o),
(339,250,cs)
);
}
);
width = 668;
},
{
anchors = (
{
name = bottom;
pos = (294,0);
},
{
name = center;
pos = (145,350);
},
{
name = hook;
pos = (95,700);
},
{
name = top;
pos = (290,700);
}
);
background = {
shapes = (
{
pos = (14,0);
ref = B;
}
);
};
layerId = "60D037D9-62E9-4843-B070-F1594CB0B0D1";
shapes = (
{
closed = 1;
nodes = (
(322,0,ls),
(427,0,o),
(495,32,o),
(537,115,cs),
(570,180,o),
(570,264,o),
(570,350,cs),
(570,436,o),
(570,520,o),
(537,585,cs),
(495,668,o),
(427,700,o),
(322,700,cs),
(95,700,l),
(99,461,o),
(99,461,o),
(99,350,cs),
(99,239,o),
(99,239,o),
(95,0,c)
);
},
{
closed = 1;
nodes = (
(188,40,o),
(143,43,o),
(132,53,cs),
(122,62,o),
(121,75,o),
(121,350,cs),
(121,634,o),
(124,646,o),
(133,653,cs),
(142,660,o),
(183,661,o),
(312,661,cs),
(435,661,o),
(492,622,o),
(519,566,cs),
(548,506,o),
(548,425,o),
(548,350,cs),
(548,275,o),
(548,198,o),
(519,138,cs),
(492,82,o),
(435,40,o),
(312,40,cs)
);
}
);
width = 624;
}
);
metricLeft = H;
metricRight = O;
unicode = 68;
userData = {
KernOnName = D;
};
},
{
glyphname = E;
kernLeft = KO_H;
kernRight = KO_E;
lastChange = "2024-01-31 18:05:04 +0000";
layers = (
{
anchors = (
{
name = bottom;
pos = (288,0);
},
{
name = ogonek;
pos = (494,0);
},
{
name = top;
pos = (295,700);
},
{
name = topleft;
pos = (95,700);
}
);
background = {
shapes = (
{
pos = (-83,0);
ref = I;
}
);
};
layerId = "60D037D9-62E9-4843-B070-F1594CB0B0D1";
shapes = (
{
closed = 1;
nodes = (
(494,0,l),
(494,36,l),
(440,36,o),
(366,36,o),
(288,36,cs),
(150,36,o),
(141,36,o),
(133,42,cs),
(123,50,o),
(121,65,o),
(121,195,cs),
(121,325,o),
(123,340,o),
(133,348,cs),
(141,354,o),
(150,354,o),
(241,354,cs),
(312,354,o),
(312,354,o),
(466,351,c),
(466,387,l),
(312,384,o),
(312,384,o),
(241,384,cs),
(150,384,o),
(141,384,o),
(133,390,cs),
(123,398,o),
(121,413,o),
(121,524,cs),
(121,635,o),
(123,650,o),
(133,658,cs),
(141,664,o),
(150,664,o),
(288,664,cs),
(363,664,o),
(438,664,o),
(486,664,c),
(486,700,l),
(95,700,l),
(99,461,o),
(99,461,o),
(99,350,cs),
(99,239,o),
(99,239,o),
(95,0,c)
);
}
);
width = 544;
},
{
anchors = (
{
name = bottom;
pos = (310,0);
},
{
name = ogonek;
pos = (574,0);
},
{
name = top;
pos = (320,700);
},
{
name = topleft;
pos = (58,700);
}
);
layerId = m01;
shapes = (
{
closed = 1;
nodes = (
(574,0,l),
(574,249,l),
(431,245,o),
(431,245,o),
(330,245,cs),
(194,245,o),
(155,246,o),
(137,262,cs),
(129,269,o),
(127,278,o),
(127,286,cs),
(127,291,o),
(129,303,o),
(137,310,cs),
(155,324,o),
(194,324,o),
(330,324,cs),
(381,324,o),
(381,324,o),
(534,321,c),
(534,396,l),
(381,393,o),
(381,393,o),
(330,393,cs),
(194,393,o),
(149,394,o),
(135,406,cs),
(129,411,o),
(127,416,o),
(127,424,cs),
(127,432,o),
(129,437,o),
(135,442,cs),
(149,454,o),
(194,455,o),
(330,455,cs),
(426,455,o),
(426,455,o),
(569,452,c),
(572,700,l),
(58,700,l),
(61,461,o),
(61,461,o),
(61,350,cs),
(61,239,o),
(61,239,o),
(58,0,c)
);
}
);
width = 610;
}
);
metricLeft = H;
metricRight = C;
unicode = 69;
userData = {
KernOnName = E;
};
},
{
glyphname = Eopen;
lastChange = "2024-01-27 09:22:42 +0000";
layers = (
{
layerId = "60D037D9-62E9-4843-B070-F1594CB0B0D1";
shapes = (
{
closed = 1;
nodes = (
(441,56,l),
(401,35,o),
(350,22,o),
(278,22,cs),
(145,22,o),
(71,92,o),
(71,197,cs),
(71,277,o),
(138,352,o),
(252,352,cs),
(298,352,o),
(322,352,o),
(359,350,c),
(359,383,l),
(322,381,o),
(290,381,o),
(264,381,cs),
(150,381,o),
(92,464,o),
(92,535,cs),
(92,627,o),
(172,678,o),
(266,678,cs),
(328,678,o),
(381,664,o),
(421,644,c),
(421,690,l),
(377,707,o),
(326,716,o),
(274,716,cs),
(151,716,o),
(67,647,o),
(67,538,cs),
(67,481,o),
(93,423,o),
(150,386,cs),
(164,377,o),
(169,373,o),
(169,370,cs),
(169,366,o),
(161,362,o),
(150,357,cs),
(80,324,o),
(45,261,o),
(45,189,cs),
(45,71,o),
(125,-16,o),
(289,-16,cs),
(346,-16,o),
(397,-7,o),
(441,11,c)
);
}
);
width = 491;
},
{
background = {
shapes = (
{
closed = 1;
nodes = (
(312,-7,o),
(385,-4,o),
(478,13,c),
(478,273,l),
(380,247,o),
(299,242,o),
(244,243,cs),
(172,244,o),
(157,270,o),
(157,285,cs),
(157,301,o),
(161,324,o),
(244,324,cs),
(291,324,o),
(347,323,o),
(421,322,c),
(421,389,l),
(347,388,o),
(291,387,o),
(244,387,cs),
(168,387,o),
(157,406,o),
(157,424,cs),
(157,445,o),
(174,457,o),
(244,457,cs),
(299,457,o),
(376,453,o),
(474,427,c),
(474,687,l),
(381,704,o),
(312,707,o),
(272,707,cs),
(119,707,o),
(16,669,o),
(16,532,cs),
(16,475,o),
(39,441,o),
(64,418,cs),
(95,388,o),
(130,375,o),
(130,355,cs),
(130,337,o),
(100,321,o),
(71,293,cs),
(43,267,o),
(16,229,o),
(16,168,cs),
(16,31,o),
(119,-7,o),
(272,-7,cs)
);
}
);
};
layerId = m01;
shapes = (
{
closed = 1;
nodes = (
(534,273,l),
(436,249,o),
(351,243,o),
(297,243,cs),
(217,243,o),
(195,265,o),
(195,287,cs),
(195,306,o),
(203,331,o),
(312,331,cs),
(368,331,o),
(411,330,o),
(459,326,c),
(459,391,l),
(385,388,o),
(329,386,o),
(282,386,cs),
(202,386,o),
(195,408,o),
(195,423,cs),
(195,440,o),
(210,457,o),
(284,457,cs),
(337,457,o),
(414,453,o),
(512,427,c),
(512,687,l),
(419,704,o),
(350,710,o),
(310,710,cs),
(157,710,o),
(57,669,o),
(57,539,cs),
(57,475,o),
(97,434,o),
(120,411,cs),
(145,386,o),
(155,375,o),
(155,360,cs),
(155,345,o),
(144,332,o),
(117,311,cs),
(95,294,o),
(40,251,o),
(40,173,cs),
(40,44,o),
(157,-10,o),
(310,-10,cs),
(350,-10,o),
(441,-4,o),
(534,13,c)
);
}
);
width = 570;
}
);
metricLeft = "=|B";
metricRight = C;
unicode = 400;
},
{
glyphname = Esh;
lastChange = "2024-01-26 23:20:56 +0000";
layers = (
{
background = {
shapes = (
{
pos = (54,0);
ref = E;
},
{
closed = 1;
nodes = (
(489,0,l),
(489,36,l),
(404,36,o),
(320,36,o),
(235,36,cs),
(149,36,o),
(141,37,o),
(132,42,cs),
(122,48,o),
(120,57,o),
(120,77,cs),
(120,93,o),
(120,104,o),
(127,112,cs),
(137,124,o),
(149,133,o),
(408,305,c),
(408,395,l),
(149,567,o),
(137,576,o),
(127,588,cs),
(120,597,o),
(120,608,o),
(120,624,cs),
(120,644,o),
(122,653,o),
(132,659,cs),
(141,664,o),
(149,664,o),
(235,664,cs),
(320,664,o),
(404,664,o),
(489,664,c),
(489,700,l),
(95,700,l),
(95,568,l),
(382,381,o),
(382,381,o),
(382,350,cs),
(382,319,o),
(382,319,o),
(95,132,c),
(95,0,l)
);
}
);
};
layerId = "60D037D9-62E9-4843-B070-F1594CB0B0D1";
shapes = (
{
closed = 1;
nodes = (
(487,0,l),
(487,36,l),
(402,36,o),
(318,36,o),
(233,36,cs),
(148,36,o),
(142,37,o),
(133,42,cs),
(123,48,o),
(121,61,o),
(121,81,cs),
(121,114,o),
(121,114,o),
(237,191,cs),
(274,216,o),
(332,256,o),
(410,312,c),
(410,388,l),
(332,444,o),
(274,484,o),
(237,509,cs),
(121,586,o),
(121,586,o),
(121,619,cs),
(121,639,o),
(123,652,o),
(133,658,cs),
(142,663,o),
(148,664,o),
(233,664,cs),
(318,664,o),
(402,664,o),
(487,664,c),
(487,700,l),
(95,700,l),
(95,568,l),
(382,379,o),
(382,379,o),
(382,350,cs),
(382,321,o),
(382,321,o),
(95,132,c),
(95,0,l)
);
}
);
width = 537;
},
{
background = {
shapes = (
{
closed = 1;
nodes = (
(318,368,l),
(272,411,o),
(260,423,o),
(260,438,cs),
(260,448,o),
(267,451,o),
(275,453,cs),
(279,454,o),
(305,455,o),
(333,455,cs),
(398,455,o),
(409,455,o),
(559,451,c),
(559,700,l),
(55,700,l),
(55,525,l),
(247,377,o),
(247,369,o),
(247,350,cs),
(247,331,o),
(247,323,o),
(55,175,c),
(55,0,l),
(559,0,l),
(559,249,l),
(409,245,o),
(398,245,o),
(333,245,cs),
(298,245,o),
(272,246,o),
(268,247,cs),
(260,249,o),
(253,252,o),
(253,262,cs),
(253,277,o),
(272,289,o),
(318,332,c)
);
}
);
};
layerId = m01;
shapes = (
{
closed = 1;
nodes = (
(561,0,l),
(561,247,l),
(499,245,o),
(423,245,o),
(341,245,cs),
(292,245,o),
(273,246,o),
(259,252,cs),
(246,257,o),
(242,264,o),
(242,276,cs),
(242,288,o),
(244,295,o),
(264,302,cs),
(295,312,o),
(326,317,o),
(401,328,c),
(401,381,l),
(326,392,o),
(295,397,o),
(264,408,cs),
(244,415,o),
(242,420,o),
(242,430,cs),
(242,443,o),
(246,446,o),
(259,450,cs),
(274,454,o),
(292,455,o),
(341,455,cs),
(423,455,o),
(499,455,o),
(561,453,c),
(561,700,l),
(58,700,l),
(58,424,l),
(191,391,o),
(225,382,o),
(225,355,cs),
(225,328,o),
(191,319,o),
(58,286,c),
(58,0,l)
);
}
);
width = 597;
}
);
metricLeft = E;
metricRight = E;
unicode = 425;
},
{
glyphname = Schwa;
lastChange = "2024-01-29 01:06:00 +0000";
layers = (
{
background = {
shapes = (
{
pos = (-4,0);
ref = O;
}
);
};
layerId = "60D037D9-62E9-4843-B070-F1594CB0B0D1";
shapes = (
{
closed = 1;
nodes = (
(499,-16,o),
(593,106,o),
(593,360,cs),
(593,568,o),
(504,716,o),
(285,716,cs),
(231,716,o),
(160,705,o),
(86,681,c),
(86,637,l),
(140,662,o),
(226,681,o),
(288,681,cs),
(471,681,o),
(556,555,o),
(570,377,c),
(54,377,l),
(54,130,o),
(136,-16,o),
(319,-16,cs)
);
},
{
closed = 1;
nodes = (
(183,24,o),
(78,134,o),
(78,347,c),
(570,347,l),
(563,115,o),
(472,24,o),
(319,24,cs)
);
}
);
width = 647;
},
{
background = {
shapes = (
{
pos = (-32,-1);
ref = O;
}
);
};
layerId = m01;
shapes = (
{
closed = 1;
nodes = (
(507,-10,o),
(619,124,o),
(619,346,cs),
(619,592,o),
(511,705,o),
(248,705,cs),
(154,705,o),
(109,695,o),
(58,679,c),
(63,411,l),
(158,446,o),
(229,456,o),
(307,456,cs),
(445,456,o),
(522,428,o),
(544,374,c),
(42,374,l),
(42,87,o),
(113,-10,o),
(330,-10,cs)
);
},
{
closed = 1;
nodes = (
(190,218,o),
(121,266,o),
(115,304,c),
(539,304,l),
(529,266,o),
(484,218,o),
(330,218,cs)
);
}
);
width = 661;
}
);
metricLeft = O;
metricRight = O;
unicode = 399;
},
{
glyphname = Ezh;
lastChange = "2024-01-29 13:27:07 +0000";
layers = (
{
anchors = (
{
name = top;
pos = (260,700);
}
);
background = {
shapes = (
{
pos = (10,0);
ref = three;
}
);
};
layerId = "60D037D9-62E9-4843-B070-F1594CB0B0D1";
shapes = (
{
closed = 1;
nodes = (
(107,-7,o),
(158,-16,o),
(215,-16,cs),
(379,-16,o),
(460,76,o),
(460,194,cs),
(460,379,o),
(292,409,o),
(215,409,c),
(293,465,o),
(344,503,o),
(426,571,c),
(426,700,l),
(83,700,l),
(83,664,l),
(182,664,o),
(228,664,o),
(303,664,cs),
(403,664,o),
(403,663,o),
(403,627,cs),
(403,595,o),
(403,586,o),
(371,561,cs),
(311,514,o),
(243,462,o),
(184,420,c),
(184,382,l),
(202,382,o),
(220,382,o),
(251,378,cs),
(329,368,o),
(434,327,o),
(434,193,cs),
(434,94,o),
(359,22,o),
(226,22,cs),
(154,22,o),
(103,35,o),
(63,56,c),
(63,11,l)
);
}
);
width = 509;
},
{
anchors = (
{
name = top;
pos = (302,700);
}
);
layerId = m01;
shapes = (
{
closed = 1;
nodes = (
(101,4,o),
(187,-10,o),
(262,-10,cs),
(446,-10,o),
(558,60,o),
(558,189,cs),
(558,308,o),
(475,364,o),
(323,384,c),
(388,411,o),
(427,427,o),
(515,455,c),
(515,700,l),
(77,700,l),
(77,452,l),
(157,452,o),
(190,452,o),
(236,452,cs),
(313,452,o),
(325,452,o),
(325,445,cs),
(325,440,o),
(324,437,o),
(320,435,cs),
(306,426,o),
(214,396,o),
(187,392,c),
(187,341,l),
(254,341,o),
(319,333,o),
(376,314,cs),
(403,305,o),
(421,291,o),
(421,275,cs),
(421,253,o),
(395,240,o),
(327,240,cs),
(233,240,o),
(132,255,o),
(65,276,c),
(65,13,l)
);
}
);
width = 600;
}
);
unicode = 439;
},
{
glyphname = F;
kernLeft = KO_H;
kernRight = KO_F;
lastChange = "2024-01-31 18:05:39 +0000";
layers = (
{
anchors = (
{
name = bottom;
pos = (315,0);
},
{
name = top;
pos = (315,700);
}
);
background = {
shapes = (
{
pos = (1,0);
ref = E;
}
);
};
layerId = m01;
shapes = (
{
closed = 1;
nodes = (
(144,0,l),
(138,80,o),
(134,152,o),
(134,205,cs),
(134,240,o),
(137,255,o),
(146,266,cs),
(165,288,o),
(199,293,o),
(335,293,cs),
(386,293,o),
(386,293,o),
(539,290,c),
(539,365,l),
(386,362,o),
(386,362,o),
(335,362,cs),
(199,362,o),
(157,368,o),
(140,382,cs),
(133,388,o),
(129,397,o),
(129,408,cs),
(129,419,o),
(133,429,o),
(140,435,cs),
(157,449,o),
(199,455,o),
(335,455,cs),
(420,455,o),
(420,455,o),
(563,452,c),
(566,701,l),
(58,701,l),
(62,462,o),
(62,462,o),
(62,351,cs),
(62,240,o),
(62,240,o),
(58,0,c)
);
}
);
width = 602;
},
{
anchors = (
{
name = bottom;
pos = (323,0);
},
{
name = top;
pos = (323,700);
}
);
background = {
shapes = (
{
pos = (13,0);
ref = E;
}
);
};
layerId = "60D037D9-62E9-4843-B070-F1594CB0B0D1";
shapes = (
{
closed = 1;
nodes = (
(129,0,l),
(124,121,o),
(122,198,o),
(122,246,cs),
(122,312,o),
(122,328,o),
(132,336,cs),
(140,342,o),
(149,343,o),
(236,343,cs),
(307,343,o),
(307,343,o),
(461,340,c),
(461,376,l),
(307,373,o),
(307,373,o),
(235,373,cs),
(149,373,o),
(140,373,o),
(132,379,cs),
(122,387,o),
(120,403,o),
(120,519,cs),
(120,635,o),
(122,650,o),
(132,658,cs),
(140,664,o),
(149,664,o),
(288,664,cs),
(366,664,o),
(425,664,o),
(476,664,c),
(476,700,l),
(95,700,l),
(99,461,o),
(99,461,o),
(99,350,cs),
(99,239,o),
(99,239,o),
(95,0,c)
);
}
);
width = 526;
}
);
metricLeft = H;
metricRight = C;
unicode = 70;
userData = {
KernOnName = F;
};
},
{
glyphname = Fhook;
kernRight = KO_F;
lastChange = "2024-01-26 21:50:02 +0000";
layers = (
{
anchors = (
{
name = bottom;
pos = (391,0);
},
{
name = top;
pos = (391,700);
}
);
layerId = "60D037D9-62E9-4843-B070-F1594CB0B0D1";
shapes = (
{
closed = 1;
nodes = (
(-51,-197,o),
(-18,-207,o),
(13,-207,cs),
(39,-207,o),
(64,-200,o),
(84,-185,cs),
(111,-165,o),
(122,-131,o),
(122,-81,cs),
(122,44,o),
(122,44,o),
(122,246,cs),
(122,312,o),
(122,328,o),
(132,336,cs),
(140,342,o),
(149,343,o),
(236,343,cs),
(307,343,o),
(307,343,o),
(461,340,c),
(461,376,l),
(307,373,o),
(307,373,o),
(235,373,cs),
(149,373,o),
(140,373,o),
(132,379,cs),
(122,387,o),
(120,403,o),
(120,519,cs),
(120,635,o),
(122,650,o),
(132,658,cs),
(140,664,o),
(149,664,o),
(288,664,cs),
(351,664,o),
(413,664,o),
(476,664,c),
(476,700,l),
(95,700,l),
(99,461,o),
(99,461,o),
(99,350,cs),
(99,144,o),
(99,-23,o),
(95,-87,cs),
(93,-114,o),
(83,-170,o),
(12,-170,cs),
(-22,-170,o),
(-58,-155,o),
(-77,-144,c),
(-77,-186,l)
);
}
);
width = 526;
},
{
anchors = (
{
name = bottom;
pos = (368,0);
},
{
name = top;
pos = (368,700);
}
);
background = {
shapes = (
{
pos = (46,0);
ref = F;
}
);
};
layerId = m01;
shapes = (
{
closed = 1;
nodes = (
(-16,-203,o),
(12,-205,o),
(36,-205,cs),
(90,-205,o),
(138,-180,o),
(159,-140,cs),
(174,-112,o),
(180,-79,o),
(180,-27,cs),
(180,3,o),
(180,3,o),
(180,205,cs),
(180,240,o),
(183,255,o),
(192,266,cs),
(211,288,o),
(245,293,o),
(381,293,cs),
(432,293,o),
(432,293,o),
(585,290,c),
(585,365,l),
(432,362,o),
(432,362,o),
(381,362,cs),
(245,362,o),
(203,368,o),
(186,382,cs),
(179,388,o),
(175,397,o),
(175,408,cs),
(175,419,o),
(179,429,o),
(186,435,cs),
(203,449,o),
(245,455,o),
(381,455,cs),
(466,455,o),
(466,455,o),
(609,452,c),
(612,701,l),
(104,701,l),
(108,462,o),
(108,462,o),
(108,351,cs),
(108,240,o),
(107,83,o),
(104,36,cs),
(100,-27,o),
(57,-34,o),
(28,-34,cs),
(8,-34,o),
(-17,-31,o),
(-48,-24,c),
(-48,-199,l)
);
}
);
width = 648;
}
);
metricRight = F;
unicode = 401;
},
{
glyphname = G;
kernLeft = KO_C;
kernRight = KO_G;
lastChange = "2024-01-31 18:06:25 +0000";
layers = (
{
anchors = (
{
name = bottom;
pos = (354,0);
},
{
name = center;
pos = (344,350);
},
{
name = hook;
pos = (592,677);
},
{
name = stroke;
pos = (522,306);
},
{
name = top;
pos = (357,700);
}
);
background = {
shapes = (
{
ref = C;
}
);
};
layerId = m01;
shapes = (
{
closed = 1;
nodes = (
(461,-10,o),
(550,1,o),
(591,30,c),
(591,143,o),
(595,254,o),
(602,364,c),
(519,364,l),
(522,341,o),
(526,286,o),
(526,260,c),
(483,253,o),
(420,245,o),
(335,245,cs),
(248,245,o),
(176,256,o),
(143,281,cs),
(122,297,o),
(112,320,o),
(112,350,cs),
(112,380,o),
(122,403,o),
(143,419,cs),
(176,444,o),
(248,455,o),
(335,455,cs),
(452,455,o),
(546,440,o),
(592,430,c),
(592,680,l),
(556,692,o),
(470,710,o),
(397,710,cs),
(154,710,o),
(42,597,o),
(42,350,cs),
(42,103,o),
(138,-10,o),
(394,-10,cs)
);
}
);
width = 644;
},
{
anchors = (
{
name = bottom;
pos = (322,0);
},
{
name = center;
pos = (319,350);
},
{
name = hook;
pos = (519,680);
},
{
name = stroke;
pos = (482,159);
},
{
name = top;
pos = (331,700);
}
);
background = {
shapes = (
{
ref = C;
}
);
};
layerId = "60D037D9-62E9-4843-B070-F1594CB0B0D1";
shapes = (
{
closed = 1;
nodes = (
(412,-16,o),
(493,0,o),
(527,18,c),
(527,150,o),
(527,150,o),
(531,287,c),
(496,287,l),
(500,150,o),
(500,150,o),
(500,48,c),
(475,33,o),
(404,21,o),
(351,21,cs),
(278,21,o),
(219,44,o),
(175,84,cs),
(110,142,o),
(77,235,o),
(77,350,cs),
(77,463,o),
(109,549,o),
(163,605,cs),
(209,652,o),
(274,679,o),
(349,679,cs),
(403,679,o),
(459,665,o),
(519,638,c),
(519,688,l),
(470,706,o),
(411,716,o),
(361,716,cs),
(174,716,o),
(54,575,o),
(54,350,cs),
(54,130,o),
(168,-16,o),
(352,-16,cs)
);
}
);
width = 585;
}
);
metricLeft = C;
metricRight = O;
unicode = 71;
userData = {
KernOnName = G;
};
},
{
glyphname = Glottalstop;
lastChange = "2024-01-28 20:26:03 +0000";
layers = (
{
background = {
shapes = (
{
pos = (571,0);
ref = G;
scale = (-1,1);
}
);
};
layerId = "60D037D9-62E9-4843-B070-F1594CB0B0D1";
shapes = (
{
closed = 1;
nodes = (
(185,0,l),
(183,29,o),
(181,124,o),
(181,165,cs),
(181,278,o),
(184,287,o),
(193,303,cs),
(202,319,o),
(236,339,o),
(264,354,cs),
(356,403,o),
(407,457,o),
(407,539,cs),
(407,649,o),
(330,716,o),
(206,716,cs),
(147,716,o),
(96,708,o),
(52,690,c),
(52,644,l),
(92,665,o),
(145,678,o),
(219,678,cs),
(305,678,o),
(381,632,o),
(381,532,cs),
(381,475,o),
(351,433,o),
(240,369,cs),
(207,350,o),
(185,335,o),
(171,314,cs),
(159,297,o),
(156,279,o),
(156,165,cs),
(156,124,o),
(155,29,o),
(154,0,c)
);
}
);
width = 459;
},
{
background = {
shapes = (
{
pos = (-97,0);
ref = question;
}
);
};
layerId = m01;
shapes = (
{
closed = 1;
nodes = (
(180,0,l),
(174,130,o),
(172,184,o),
(172,220,cs),
(172,246,o),
(175,261,o),
(179,270,cs),
(191,298,o),
(223,310,o),
(257,321,cs),
(362,355,o),
(466,399,o),
(466,525,cs),
(466,653,o),
(363,707,o),
(210,707,cs),
(170,707,o),
(101,704,o),
(8,687,c),
(8,427,l),
(106,451,o),
(168,457,o),
(223,457,cs),
(279,457,o),
(297,442,o),
(297,427,cs),
(297,409,o),
(279,392,o),
(189,361,cs),
(142,345,o),
(120,330,o),
(109,309,cs),
(98,287,o),
(94,269,o),
(94,120,cs),
(94,87,o),
(94,47,o),
(94,0,c)
);
}
);
width = 474;
}
);
metricLeft = "=|S";
metricRight = S;
unicode = 577;
},
{
glyphname = H;
kernLeft = KO_H;
kernRight = KO_H;
lastChange = "2024-01-31 18:05:18 +0000";
layers = (
{
anchors = (
{
name = bottom;
pos = (347,0);
},
{
name = center;
pos = (347,588);
},
{
name = hook;
pos = (58,700);
},
{
name = top;
pos = (347,700);
},
{
name = topleft;
pos = (58,700);
}
);
background = {
shapes = (
{
ref = O;
}
);
};
layerId = m01;
shapes = (
{
closed = 1;
nodes = (
(142,0,l),
(139,69,o),
(139,83,o),
(139,121,cs),
(139,214,o),
(152,222,o),
(347,222,cs),
(542,222,o),
(555,214,o),
(555,121,cs),
(555,83,o),
(555,69,o),
(552,0,c),
(636,0,l),
(629,239,o),
(629,239,o),
(629,350,cs),
(629,461,o),
(629,461,o),
(636,700,c),
(554,700,l),
(557,621,o),
(557,593,o),
(557,563,cs),
(557,514,o),
(544,510,o),
(347,510,cs),
(150,510,o),
(137,514,o),
(137,563,cs),
(137,593,o),
(137,621,o),
(140,700,c),
(58,700,l),
(65,461,o),
(65,461,o),
(65,350,cs),
(65,239,o),
(65,239,o),
(58,0,c)
);
}
);
width = 694;
},
{
anchors = (
{
name = bottom;
pos = (334,0);
},
{
name = center;
pos = (334,519);
},
{
name = hook;
pos = (95,700);
},
{
name = top;
pos = (334,700);
},
{
name = topleft;
pos = (93,700);
}
);
background = {
shapes = (
{
pos = (16,0);
ref = O;
},
{
pos = (18,0);
ref = E;
}
);
};
layerId = "60D037D9-62E9-4843-B070-F1594CB0B0D1";
shapes = (
{
closed = 1;
nodes = (
(126,0,l),
(123,219,o),
(123,219,o),
(123,319,cs),
(123,350,o),
(135,350,o),
(334,350,cs),
(533,350,o),
(545,350,o),
(545,319,cs),
(545,219,o),
(545,219,o),
(542,0,c),
(573,0,l),
(568,239,o),
(568,239,o),
(568,350,cs),
(568,461,o),
(568,461,o),
(573,700,c),
(542,700,l),
(545,519,o),
(545,519,o),
(545,419,cs),
(545,388,o),
(533,388,o),
(334,388,cs),
(135,388,o),
(123,388,o),
(123,419,cs),
(123,519,o),
(123,519,o),
(126,700,c),
(95,700,l),
(100,461,o),
(100,461,o),
(100,350,cs),
(100,239,o),
(100,239,o),
(95,0,c)
);
}
);
width = 668;
}
);
unicode = 72;
userData = {
KernOnName = H;
};
},
{
glyphname = Hbar;
lastChange = "2024-01-26 22:22:16 +0000";
layers = (
{
layerId = "60D037D9-62E9-4843-B070-F1594CB0B0D1";
shapes = (
{
closed = 1;
nodes = (
(126,0,l),
(123,219,o),
(123,219,o),
(123,319,cs),
(123,350,o),
(135,350,o),
(334,350,cs),
(533,350,o),
(545,350,o),
(545,319,cs),
(545,219,o),
(545,219,o),
(542,0,c),
(573,0,l),
(568,239,o),
(568,239,o),
(568,350,cs),
(568,461,o),
(568,461,o),
(573,700,c),
(542,700,l),
(545,519,o),
(545,519,o),
(545,419,cs),
(545,388,o),
(533,388,o),
(334,388,cs),
(135,388,o),
(123,388,o),
(123,419,cs),
(123,519,o),
(123,519,o),
(126,700,c),
(95,700,l),
(100,461,o),
(100,461,o),
(100,350,cs),
(100,239,o),
(100,239,o),
(95,0,c)
);
},
{
closed = 1;
nodes = (
(233,551,o),
(233,551,o),
(334,551,cs),
(435,551,o),
(435,551,o),
(610,548,c),
(610,583,l),
(435,580,o),
(435,580,o),
(334,580,cs),
(233,580,o),
(233,580,o),
(58,583,c),
(58,548,l)
);
}
);
width = 646;
},
{
layerId = m01;
shapes = (
{
closed = 1;
nodes = (
(142,0,l),
(139,69,o),
(139,83,o),
(139,121,cs),
(139,214,o),
(152,222,o),
(347,222,cs),
(542,222,o),
(555,214,o),
(555,121,cs),
(555,83,o),
(555,69,o),
(552,0,c),
(636,0,l),
(629,239,o),
(629,239,o),
(629,350,cs),
(629,461,o),
(629,461,o),
(636,700,c),
(554,700,l),
(557,621,o),
(557,593,o),
(557,563,cs),
(557,514,o),
(544,510,o),
(347,510,cs),
(150,510,o),
(137,514,o),
(137,563,cs),
(137,593,o),
(137,621,o),
(140,700,c),
(58,700,l),
(65,461,o),
(65,461,o),
(65,350,cs),
(65,239,o),
(65,239,o),
(58,0,c)
);
},
{
closed = 1;
nodes = (
(126,579,o),
(236,579,o),
(347,579,cs),
(458,579,o),
(568,579,o),
(679,576,c),
(679,630,l),
(568,627,o),
(458,627,o),
(347,627,cs),
(236,627,o),
(126,627,o),
(15,630,c),
(15,576,l)
);
}
);
width = 694;
}
);
unicode = 294;
},
{
glyphname = Hcedilla;
kernRight = KO_H;
lastChange = "2024-01-29 01:05:02 +0000";
layers = (
{
anchors = (
{
name = hook;
pos = (136,700);
},
{
name = topleft;
pos = (134,700);
}
);
layerId = "60D037D9-62E9-4843-B070-F1594CB0B0D1";
shapes = (
{
closed = 1;
nodes = (
(116,-37,o),
(106,-56,o),
(106,-66,cs),
(106,-78,o),
(116,-80,o),
(138,-80,cs),
(180,-80,o),
(200,-90,o),
(200,-108,cs),
(200,-124,o),
(186,-136,o),
(158,-136,cs),
(135,-136,o),
(122,-133,o),
(95,-125,c),
(95,-168,l),
(117,-173,o),
(134,-175,o),
(152,-175,cs),
(200,-175,o),
(229,-149,o),
(229,-112,cs),
(229,-85,o),
(212,-68,o),
(189,-60,cs),
(179,-57,o),
(167,-55,o),
(156,-55,cs),
(144,-55,o),
(135,-55,o),
(135,-49,cs),
(135,-44,o),
(138,-38,o),
(167,0,c),
(164,219,o),
(164,219,o),
(164,319,cs),
(164,350,o),
(176,350,o),
(375,350,cs),
(574,350,o),
(586,350,o),
(586,319,cs),
(586,219,o),
(586,219,o),
(583,0,c),
(614,0,l),
(609,239,o),
(609,239,o),
(609,350,cs),
(609,461,o),
(609,461,o),
(614,700,c),
(583,700,l),
(586,519,o),
(586,519,o),
(586,419,cs),
(586,388,o),
(574,388,o),
(375,388,cs),
(176,388,o),
(164,388,o),
(164,419,cs),
(164,519,o),
(164,519,o),
(167,700,c),
(136,700,l),
(141,461,o),
(141,461,o),
(141,350,cs),
(141,239,o),
(141,239,o),
(136,0,c)
);
}
);
width = 709;
},
{
anchors = (
{
name = hook;
pos = (98,700);
},
{
name = topleft;
pos = (98,700);
}
);
layerId = m01;
shapes = (
{
closed = 1;
nodes = (
(87,-17,o),
(78,-32,o),
(78,-46,cs),
(78,-61,o),
(95,-63,o),
(121,-63,cs),
(150,-63,o),
(167,-68,o),
(167,-85,cs),
(167,-99,o),
(153,-113,o),
(113,-113,cs),
(98,-113,o),
(80,-111,o),
(58,-106,c),
(58,-205,l),
(87,-211,o),
(104,-212,o),
(124,-212,cs),
(202,-212,o),
(249,-163,o),
(249,-111,cs),
(249,-69,o),
(228,-49,o),
(211,-40,cs),
(196,-32,o),
(178,-30,o),
(169,-30,cs),
(154,-30,o),
(152,-30,o),
(152,-25,cs),
(152,-21,o),
(160,-15,o),
(182,0,c),
(179,69,o),
(179,83,o),
(179,121,cs),
(179,214,o),
(192,222,o),
(387,222,cs),
(582,222,o),
(595,214,o),
(595,121,cs),
(595,83,o),
(595,69,o),
(592,0,c),
(676,0,l),
(669,239,o),
(669,239,o),
(669,350,cs),
(669,461,o),
(669,461,o),
(676,700,c),
(594,700,l),
(597,621,o),
(597,593,o),
(597,563,cs),
(597,514,o),
(584,510,o),
(387,510,cs),
(190,510,o),
(177,514,o),
(177,563,cs),
(177,593,o),
(177,621,o),
(180,700,c),
(98,700,l),
(105,461,o),
(105,461,o),
(105,350,cs),
(105,239,o),
(105,239,o),
(98,0,c)
);
}
);
width = 734;
}
);
metricLeft = H;
metricRight = H;
unicode = 7720;
},
{
glyphname = Heng;
lastChange = "2024-01-28 20:18:09 +0000";
layers = (
{
layerId = "60D037D9-62E9-4843-B070-F1594CB0B0D1";
shapes = (
{
closed = 1;
nodes = (
(126,0,l),
(123,219,o),
(123,219,o),
(123,319,cs),
(123,350,o),
(135,350,o),
(334,350,cs),
(533,350,o),
(545,350,o),
(545,319,cs),
(545,218,o),
(544,14,o),
(541,-87,cs),
(540,-114,o),
(529,-170,o),
(458,-170,cs),
(424,-170,o),
(388,-155,o),
(369,-144,c),
(369,-186,l),
(395,-197,o),
(428,-207,o),
(459,-207,cs),
(485,-207,o),
(510,-200,o),
(530,-185,cs),
(557,-165,o),
(568,-131,o),
(568,-81,cs),
(568,-47,o),
(568,233,o),
(568,350,cs),
(568,461,o),
(568,461,o),
(573,700,c),
(542,700,l),
(545,519,o),
(545,519,o),
(545,419,cs),
(545,388,o),
(533,388,o),
(334,388,cs),
(135,388,o),
(123,388,o),
(123,419,cs),
(123,519,o),
(123,519,o),
(126,700,c),
(95,700,l),
(100,461,o),
(100,461,o),
(100,350,cs),
(100,239,o),
(100,239,o),
(95,0,c)
);
}
);
width = 646;
},
{
layerId = m01;
shapes = (
{
closed = 1;
nodes = (
(142,0,l),
(139,69,o),
(139,83,o),
(139,121,cs),
(139,214,o),
(152,222,o),
(347,222,cs),
(532,222,o),
(553,214,o),
(553,134,cs),
(553,91,o),
(553,55,o),
(552,36,cs),
(548,-27,o),
(509,-34,o),
(480,-34,cs),
(460,-34,o),
(435,-31,o),
(404,-24,c),
(404,-199,l),
(436,-203,o),
(464,-205,o),
(488,-205,cs),
(542,-205,o),
(586,-180,o),
(607,-140,cs),
(622,-112,o),
(629,-79,o),
(629,-27,cs),
(629,257,o),
(629,257,o),
(629,350,cs),
(629,461,o),
(629,461,o),
(636,700,c),
(554,700,l),
(557,621,o),
(557,593,o),
(557,563,cs),
(557,514,o),
(544,510,o),
(347,510,cs),
(150,510,o),
(137,514,o),
(137,563,cs),
(137,593,o),
(137,621,o),
(140,700,c),
(58,700,l),
(65,461,o),
(65,461,o),
(65,350,cs),
(65,239,o),
(65,239,o),
(58,0,c)
);
}
);
width = 694;
}
);
unicode = 42790;
},
{
glyphname = Hturned;
lastChange = "2024-01-26 12:42:32 +0000";
layers = (
{
background = {
shapes = (
{
pos = (-13,0);
ref = H;
}
);
};
layerId = "60D037D9-62E9-4843-B070-F1594CB0B0D1";
shapes = (
{
closed = 1;
nodes = (
(151,350,o),
(205,350,o),
(322,350,cs),
(521,350,o),
(533,350,o),
(533,319,cs),
(533,219,o),
(533,219,o),
(530,0,c),
(561,0,l),
(556,239,o),
(556,239,o),
(556,350,cs),
(556,461,o),
(556,461,o),
(561,700,c),
(530,700,l),
(533,519,o),
(533,519,o),
(533,419,cs),
(533,388,o),
(521,388,o),
(322,388,cs),
(123,388,o),
(111,388,o),
(111,419,cs),
(111,519,o),
(111,519,o),
(114,700,c),
(83,700,l),
(87,544,o),
(88,490,o),
(88,440,cs),
(88,414,o),
(88,388,o),
(88,350,c)
);
}
);
width = 656;
},
{
background = {
shapes = (
{
pos = (-44,0);
ref = H;
}
);
};
layerId = m01;
shapes = (
{
closed = 1;
nodes = (
(233,222,o),
(273,222,o),
(325,222,cs),
(520,222,o),
(533,214,o),
(533,121,cs),
(533,83,o),
(533,69,o),
(530,0,c),
(614,0,l),
(607,239,o),
(607,239,o),
(607,350,cs),
(607,461,o),
(607,461,o),
(614,700,c),
(532,700,l),
(535,621,o),
(535,593,o),
(535,563,cs),
(535,514,o),
(522,510,o),
(325,510,cs),
(128,510,o),
(115,514,o),
(115,563,cs),
(115,593,o),
(115,621,o),
(118,700,c),
(36,700,l),
(43,461,o),
(43,461,o),
(43,350,cs),
(43,293,o),
(43,248,o),
(42,219,c)
);
}
);
width = 664;
}
);
metricLeft = "=|h";
metricRight = "=|h";
unicode = 42893;
},
{
glyphname = I;
kernLeft = KO_I;
kernRight = KO_I;
lastChange = "2024-01-31 17:59:08 +0000";
layers = (
{
anchors = (
{
name = bottom;
pos = (253,0);
},
{
name = center;
pos = (252,350);
},
{
name = ogonek;
pos = (445,0);
},
{
name = top;
pos = (253,700);
},
{
name = topleft;
pos = (58,700);
}
);
background = {
shapes = (
{
pos = (-94,0);
ref = O;
}
);
};
layerId = m01;
shapes = (
{
closed = 1;
nodes = (
(445,0,l),
(445,248,l),
(415,246,o),
(392,245,o),
(374,245,cs),
(337,245,o),
(320,249,o),
(309,256,cs),
(289,269,o),
(285,284,o),
(285,350,cs),
(285,416,o),
(289,431,o),
(309,444,cs),
(320,451,o),
(337,455,o),
(374,455,cs),
(392,455,o),
(415,454,o),
(445,452,c),
(445,700,l),
(58,700,l),
(58,452,l),
(88,454,o),
(111,455,o),
(129,455,cs),
(166,455,o),
(183,451,o),
(194,444,cs),
(214,431,o),
(218,416,o),
(218,350,cs),
(218,284,o),
(214,269,o),
(194,256,cs),
(183,249,o),
(166,245,o),
(129,245,cs),
(111,245,o),
(88,246,o),
(58,248,c),
(58,0,l)
);
}
);
width = 503;
},
{
anchors = (
{
name = bottom;
pos = (163,0);
},
{
name = center;
pos = (163,350);
},
{
name = ogonek;
pos = (283,0);
},
{
name = top;
pos = (163,700);
},
{
name = topleft;
pos = (42,700);
}
);
background = {
shapes = (
{
pos = (-72,0);
ref = one;
}
);
};
layerId = "60D037D9-62E9-4843-B070-F1594CB0B0D1";
shapes = (
{
closed = 1;
nodes = (
(283,0,l),
(283,36,l),
(265,36,o),
(250,36,o),
(238,36,cs),
(199,36,o),
(191,37,o),
(185,42,cs),
(175,50,o),
(174,65,o),
(174,350,cs),
(174,635,o),
(176,650,o),
(186,658,cs),
(192,663,o),
(200,664,o),
(239,664,cs),
(251,664,o),
(266,664,o),
(284,664,c),
(284,700,l),
(42,700,l),
(42,664,l),
(60,664,o),
(75,664,o),
(87,664,cs),
(126,664,o),
(134,663,o),
(140,658,cs),
(150,650,o),
(152,635,o),
(152,350,cs),
(152,65,o),
(150,50,o),
(140,42,cs),
(134,37,o),
(126,36,o),
(87,36,cs),
(75,36,o),
(60,36,o),
(42,36,c),
(42,0,l)
);
}
);
width = 326;
}
);
unicode = 73;
userData = {
KernOnName = I;
};
},
{
glyphname = IJ;
kernLeft = KO_I;
kernRight = KO_J;
lastChange = "2024-01-26 12:47:32 +0000";
layers = (
{
anchors = (
{
name = top;
pos = (328,700);
}
);
layerId = "60D037D9-62E9-4843-B070-F1594CB0B0D1";
shapes = (
{
closed = 1;
nodes = (
(283,0,l),
(283,36,l),
(265,36,o),
(250,36,o),
(238,36,cs),
(199,36,o),
(191,37,o),
(185,42,cs),
(175,50,o),
(174,65,o),
(174,350,cs),
(174,635,o),
(176,650,o),
(186,658,cs),
(192,663,o),
(200,664,o),
(239,664,cs),
(251,664,o),
(266,664,o),
(284,664,c),
(284,700,l),
(42,700,l),
(42,664,l),
(60,664,o),
(75,664,o),
(87,664,cs),
(126,664,o),
(134,663,o),
(140,658,cs),
(150,650,o),
(152,635,o),
(152,350,cs),
(152,65,o),
(150,50,o),
(140,42,cs),
(134,37,o),
(126,36,o),
(87,36,cs),
(75,36,o),
(60,36,o),
(42,36,c),
(42,0,l)
);
},
{
closed = 1;
nodes = (
(332,-5,o),
(379,-16,o),
(405,-16,cs),
(511,-16,o),
(534,43,o),
(534,148,cs),
(534,259,ls),
(534,635,o),
(536,650,o),
(546,658,cs),
(552,663,o),
(560,664,o),
(599,664,cs),
(611,664,o),
(626,664,o),
(644,664,c),
(644,700,l),
(402,700,l),
(402,664,l),
(420,664,o),
(435,664,o),
(447,664,cs),
(486,664,o),
(494,663,o),
(500,658,cs),
(510,650,o),
(512,635,o),
(512,259,cs),
(512,69,o),
(511,21,o),
(414,21,cs),
(380,21,o),
(347,29,o),
(307,51,c),
(307,8,l)
);
}
);
width = 686;
},
{
anchors = (
{
name = top;
pos = (478,700);
}
);
layerId = m01;
shapes = (
{
closed = 1;
nodes = (
(445,0,l),
(445,248,l),
(415,246,o),
(392,245,o),
(374,245,cs),
(337,245,o),
(320,249,o),
(309,256,cs),
(289,269,o),
(285,284,o),
(285,350,cs),
(285,416,o),
(289,431,o),
(309,444,cs),
(320,451,o),
(337,455,o),
(374,455,cs),
(392,455,o),
(415,454,o),
(445,452,c),
(445,700,l),
(58,700,l),
(58,452,l),
(88,454,o),
(111,455,o),
(129,455,cs),
(166,455,o),
(183,451,o),
(194,444,cs),
(214,431,o),
(218,416,o),
(218,350,cs),
(218,284,o),
(214,269,o),
(194,256,cs),
(183,249,o),
(166,245,o),
(129,245,cs),
(111,245,o),
(88,246,o),
(58,248,c),
(58,0,l)
);
},
{
closed = 1;
nodes = (
(517,-1,o),
(585,-8,o),
(647,-8,cs),
(749,-8,o),
(801,43,o),
(801,190,cs),
(801,350,ls),
(801,419,o),
(805,431,o),
(825,444,cs),
(835,451,o),
(852,455,o),
(889,455,cs),
(907,455,o),
(930,454,o),
(960,452,c),
(960,700,l),
(573,700,l),
(573,452,l),
(603,454,o),
(626,455,o),
(644,455,cs),
(681,455,o),
(698,451,o),
(708,444,cs),
(728,431,o),
(732,419,o),
(732,350,cs),
(732,271,o),
(732,223,o),
(651,223,cs),
(596,223,o),
(539,236,o),
(490,252,c),
(490,5,l)
);
}
);
width = 984;
}
);
metricLeft = I;
metricRight = J;
unicode = 306;
},
{
glyphname = "Iota-latin";
lastChange = "2024-01-27 23:36:11 +0000";
layers = (
{
anchors = (
{
name = bottom;
pos = (194,0);
},
{
name = center;
pos = (201,368);
},
{
name = top;
pos = (194,739);
},
{
name = topright;
pos = (383,739);
}
);
layerId = "60D037D9-62E9-4843-B070-F1594CB0B0D1";
shapes = (
{
closed = 1;
nodes = (
(311,39,l),
(296,35,o),
(274,30,o),
(251,30,cs),
(209,30,o),
(175,45,o),
(164,89,cs),
(157,117,o),
(157,138,o),
(157,366,cs),
(157,477,o),
(157,589,o),
(157,700,c),
(42,700,l),
(42,667,l),
(56,667,o),
(67,667,o),
(76,667,cs),
(110,667,o),
(117,666,o),
(123,661,cs),
(133,653,o),
(135,646,o),
(135,126,cs),
(135,61,o),
(158,26,o),
(187,9,cs),
(209,-4,o),
(233,-8,o),
(256,-8,cs),
(280,-8,o),
(301,-4,o),
(311,-2,c)
);
}
);
width = 353;
},
{
anchors = (
{
name = bottom;
pos = (199,0);
},
{
name = center;
pos = (219,324);
},
{
name = top;
pos = (199,741);
},
{
name = topright;
pos = (361,738);
}
);
layerId = m01;
shapes = (
{
closed = 1;
nodes = (
(446,253,l),
(410,239,o),
(376,232,o),
(345,232,cs),
(319,232,o),
(295,237,o),
(282,254,cs),
(269,272,o),
(260,289,o),
(260,424,cs),
(260,486,o),
(260,486,o),
(263,700,c),
(58,700,l),
(58,452,l),
(76,454,o),
(95,455,o),
(113,455,cs),
(142,455,o),
(159,451,o),
(169,444,cs),
(187,431,o),
(190,418,o),
(190,350,cs),
(190,197,o),
(190,117,o),
(217,67,cs),
(247,12,o),
(298,-8,o),
(381,-8,cs),
(401,-8,o),
(423,-7,o),
(446,-5,c)
);
}
);
width = 504;
}
);
metricLeft = I;
metricRight = I;
unicode = 406;
},
{
glyphname = J;
kernLeft = KO_J;
kernRight = KO_J;
lastChange = "2024-01-31 17:40:49 +0000";
layers = (
{
anchors = (
{
name = bottom;
pos = (243,0);
},
{
name = center;
pos = (312,350);
},
{
name = top;
pos = (306,700);
}
);
background = {
shapes = (
{
pos = (76,0);
ref = I;
}
);
};
layerId = m01;
shapes = (
{
closed = 1;
nodes = (
(63,-1,o),
(131,-8,o),
(193,-8,cs),
(295,-8,o),
(347,43,o),
(347,190,cs),
(347,350,ls),
(347,419,o),
(351,431,o),
(371,444,cs),
(381,451,o),
(398,455,o),
(435,455,cs),
(453,455,o),
(476,454,o),
(506,452,c),
(506,700,l),
(119,700,l),
(119,452,l),
(149,454,o),
(172,455,o),
(190,455,cs),
(227,455,o),
(244,451,o),
(254,444,cs),
(274,431,o),
(278,419,o),
(278,350,cs),
(278,271,o),
(278,223,o),
(197,223,cs),
(142,223,o),
(85,236,o),
(36,252,c),
(36,5,l)
);
}
);
width = 530;
},
{
anchors = (
{
name = bottom;
pos = (208,0);
},
{
name = center;
pos = (236,350);
},
{
name = top;
pos = (231,700);
}
);
background = {
shapes = (
{
pos = (30,0);
ref = I;
}
);
};
layerId = "60D037D9-62E9-4843-B070-F1594CB0B0D1";
shapes = (
{
closed = 1;
nodes = (
(45,-5,o),
(92,-16,o),
(118,-16,cs),
(224,-16,o),
(247,43,o),
(247,148,cs),
(247,259,ls),
(247,635,o),
(249,650,o),
(259,658,cs),
(265,663,o),
(273,664,o),
(312,664,cs),
(324,664,o),
(339,664,o),
(357,664,c),
(357,700,l),
(115,700,l),
(115,664,l),
(133,664,o),
(148,664,o),
(160,664,cs),
(199,664,o),
(207,663,o),
(213,658,cs),
(223,650,o),
(225,635,o),
(225,259,cs),
(225,69,o),
(224,21,o),
(127,21,cs),
(93,21,o),
(60,29,o),
(20,51,c),
(20,8,l)
);
}
);
width = 399;
}
);
unicode = 74;
userData = {
KernOnName = J;
};
},
{
glyphname = Jcrossedtail;
lastChange = "2024-01-28 20:18:48 +0000";
layers = (
{
layerId = "60D037D9-62E9-4843-B070-F1594CB0B0D1";
shapes = (
{
closed = 1;
nodes = (
(292,197,l),
(197,197,o),
(20,193,o),
(20,77,cs),
(20,12,o),
(70,-16,o),
(110,-16,cs),
(198,-16,o),
(220,46,o),
(220,148,cs),
(220,185,ls),
(220,635,o),
(222,650,o),
(232,658,cs),
(238,663,o),
(246,664,o),
(285,664,cs),
(300,664,o),
(315,664,o),
(330,664,c),
(330,700,l),
(88,700,l),
(88,664,l),
(103,664,o),
(118,664,o),
(133,664,cs),
(172,664,o),
(180,663,o),
(186,658,cs),
(196,650,o),
(198,635,o),
(198,185,cs),
(198,65,o),
(188,21,o),
(110,21,cs),
(70,21,o),
(45,48,o),
(45,80,cs),
(45,169,o),
(223,170,o),
(292,170,c)
);
}
);
width = 350;
},
{
background = {
shapes = (
{
closed = 1;
nodes = (
(307,323,l),
(373,329,o),
(444,326,o),
(475,327,c),
(475,379,l),
(428,382,o),
(362,384,o),
(307,382,c)
);
}
);
};
layerId = m01;
shapes = (
{
closed = 1;
nodes = (
(477,377,l),
(164,377,o),
(36,327,o),
(36,184,cs),
(36,74,o),
(96,-8,o),
(231,-8,cs),
(344,-8,o),
(390,56,o),
(390,190,cs),
(390,350,ls),
(390,419,o),
(394,431,o),
(414,444,cs),
(424,451,o),
(441,455,o),
(478,455,cs),
(496,455,o),
(519,454,o),
(549,452,c),
(549,700,l),
(162,700,l),
(162,452,l),
(192,454,o),
(215,455,o),
(233,455,cs),
(270,455,o),
(287,451,o),
(297,444,cs),
(317,431,o),
(321,419,o),
(321,350,cs),
(321,271,o),
(321,223,o),
(240,223,cs),
(195,223,o),
(167,237,o),
(167,265,cs),
(167,276,o),
(172,321,o),
(477,325,c)
);
}
);
width = 585;
}
);
metricLeft = J;
metricRight = "=|J";
unicode = 42930;
},
{
glyphname = K;
kernLeft = KO_H;
kernRight = KO_K;
lastChange = "2024-01-31 18:01:02 +0000";
layers = (
{
anchors = (
{
name = bottom;
pos = (314,0);
},
{
name = hook;
pos = (550,700);
},
{
name = stroke;
pos = (114,551);
},
{
name = top;
pos = (314,700);
}
);
background = {
shapes = (
{
closed = 1;
nodes = (
(128,0,l),
(126,82,o),
(123,258,o),
(123,274,cs),
(123,314,o),
(123,326,o),
(131,331,cs),
(141,336,o),
(157,340,o),
(384,342,c),
(463,53,o),
(490,30,o),
(514,13,cs),
(525,5,o),
(539,-1,o),
(549,-3,cs),
(564,-6,o),
(570,-6,o),
(581,-5,c),
(581,42,l),
(566,38,o),
(546,37,o),
(527,51,cs),
(496,73,o),
(460,148,o),
(408,346,c),
(428,354,o),
(446,340,o),
(568,700,c),
(533,700,l),
(494,571,o),
(475,511,o),
(459,470,cs),
(433,405,o),
(425,387,o),
(389,383,cs),
(367,378,o),
(273,378,o),
(243,378,cs),
(150,378,o),
(141,378,o),
(131,386,cs),
(126,392,o),
(126,401,o),
(126,437,cs),
(126,493,o),
(126,647,o),
(128,700,c),
(96,700,l),
(100,592,o),
(101,482,o),
(101,361,cs),
(101,250,o),
(99,132,o),
(96,0,c)
);
},
{
pos = (14,0);
ref = B;
},
{
closed = 1;
nodes = (
(565,-6,o),
(578,-4,o),
(589,0,c),
(589,41,l),
(575,37,o),
(563,35,o),
(548,35,cs),
(491,35,o),
(421,93,o),
(317,343,c),
(384,343,o),
(411,343,o),
(428,354,cs),
(444,364,o),
(461,382,o),
(566,700,c),
(532,700,l),
(514,631,o),
(502,587,o),
(464,480,cs),
(447,432,o),
(426,395,o),
(415,387,cs),
(403,378,o),
(391,378,o),
(241,378,cs),
(148,378,o),
(139,378,o),
(129,386,cs),
(124,392,o),
(123,401,o),
(123,437,cs),
(123,493,o),
(123,493,o),
(126,700,c),
(96,700,l),
(99,461,o),
(99,461,o),
(99,350,cs),
(99,239,o),
(99,239,o),
(96,0,c),
(126,0,l),
(123,82,o),
(121,258,o),
(121,274,cs),
(121,319,o),
(121,330,o),
(129,336,cs),
(138,343,o),
(155,343,o),
(292,343,c),
(390,97,o),
(465,-6,o),
(541,-6,cs)
);
}
);
};
layerId = "60D037D9-62E9-4843-B070-F1594CB0B0D1";
shapes = (
{
closed = 1;
nodes = (
(127,0,l),
(124,82,o),
(121,258,o),
(121,274,cs),
(121,319,o),
(121,330,o),
(129,336,cs),
(138,343,o),
(155,343,o),
(293,343,c),
(382,97,o),
(421,-8,o),
(541,-8,cs),
(565,-8,o),
(578,-5,o),
(589,-1,c),
(589,41,l),
(575,35,o),
(558,32,o),
(543,32,cs),
(456,32,o),
(410,93,o),
(318,343,c),
(358,345,o),
(385,362,o),
(403,386,cs),
(414,401,o),
(436,432,o),
(565,700,c),
(524,700,l),
(499,631,o),
(491,613,o),
(443,509,cs),
(421,461,o),
(395,412,o),
(372,395,cs),
(354,382,o),
(341,378,o),
(241,378,cs),
(148,378,o),
(139,378,o),
(129,386,cs),
(124,392,o),
(123,401,o),
(123,437,cs),
(123,493,o),
(123,493,o),
(127,700,c),
(95,700,l),
(99,461,o),
(99,461,o),
(99,350,cs),
(99,239,o),
(99,239,o),
(95,0,c)
);
}
);
width = 625;
},
{
anchors = (
{
name = bottom;
pos = (305,0);
},
{
name = hook;
pos = (588,700);
},
{
name = stroke;
pos = (98,583);
},
{
name = top;
pos = (305,700);
}
);
background = {
shapes = (
{
closed = 1;
nodes = (
(138,0,l),
(136,36,o),
(134,118,o),
(134,152,cs),
(134,170,o),
(132,208,o),
(140,228,cs),
(156,265,o),
(195,269,o),
(225,268,c),
(226,185,o),
(263,105,o),
(311,52,cs),
(352,15,o),
(409,-8,o),
(483,-8,cs),
(516,-8,o),
(599,1,o),
(624,13,c),
(624,275,l),
(597,250,o),
(508,215,o),
(427,215,cs),
(351,215,o),
(309,242,o),
(294,270,c),
(533,274,o),
(576,298,o),
(611,700,c),
(522,700,l),
(522,626,o),
(523,617,o),
(519,560,cs),
(517,536,o),
(515,519,o),
(501,508,cs),
(480,492,o),
(433,488,o),
(321,488,cs),
(212,488,o),
(168,492,o),
(149,507,cs),
(136,518,o),
(135,535,o),
(136,560,cs),
(137,602,o),
(139,645,o),
(140,700,c),
(58,701,l),
(62,233,o),
(59,117,o),
(55,0,c)
);
}
);
};
layerId = m01;
shapes = (
{
closed = 1;
nodes = (
(141,0,l),
(138,36,o),
(134,118,o),
(134,152,cs),
(134,196,o),
(136,226,o),
(149,244,cs),
(162,261,o),
(184,268,o),
(225,268,c),
(225,136,o),
(299,-8,o),
(483,-8,cs),
(516,-8,o),
(599,1,o),
(624,13,c),
(624,275,l),
(586,242,o),
(489,215,o),
(427,215,cs),
(351,215,o),
(309,242,o),
(294,270,c),
(347,270,o),
(440,271,o),
(492,304,cs),
(562,348,o),
(585,452,o),
(607,700,c),
(514,700,l),
(514,669,o),
(514,602,o),
(514,560,cs),
(514,535,o),
(514,518,o),
(501,507,cs),
(483,491,o),
(442,488,o),
(325,488,cs),
(208,488,o),
(167,491,o),
(149,507,cs),
(136,518,o),
(136,535,o),
(136,560,cs),
(136,602,o),
(137,645,o),
(140,700,c),
(58,700,l),
(61,461,o),
(61,461,o),
(61,350,cs),
(61,239,o),
(61,239,o),
(58,0,c)
);
}
);
width = 648;
}
);
metricLeft = H;
unicode = 75;
userData = {
KernOnName = K;
};
},
{
glyphname = Kstroke;
lastChange = "2024-01-26 04:26:27 +0000";
layers = (
{
layerId = "60D037D9-62E9-4843-B070-F1594CB0B0D1";
shapes = (
{
ref = K;
},
{
closed = 1;
nodes = (
(39,577,o),
(75,577,o),
(111,577,cs),
(147,577,o),
(182,577,o),
(208,576,c),
(208,607,l),
(182,606,o),
(146,606,o),
(110,606,cs),
(75,606,o),
(39,606,o),
(14,607,c),
(14,576,l)
);
}
);
width = 625;
},
{
layerId = m01;
shapes = (
{
ref = K;
},
{
closed = 1;
nodes = (
(-1,567,o),
(50,568,o),
(100,568,cs),
(151,568,o),
(202,568,o),
(232,566,c),
(232,618,l),
(202,616,o),
(151,616,o),
(100,616,cs),
(50,616,o),
(-1,617,o),
(-31,618,c),
(-31,566,l)
);
}
);
width = 648;
}
);
unicode = 42816;
},
{
glyphname = L;
kernLeft = KO_H;
kernRight = KO_L;
lastChange = "2024-01-31 17:40:49 +0000";
layers = (
{
anchors = (
{
name = bottom;
pos = (276,0);
},
{
name = center;
pos = (115,443);
},
{
name = top;
pos = (277,700);
},
{
name = topright;
pos = (363,700);
}
);
background = {
shapes = (
{
pos = (-4,0);
ref = E;
}
);
};
layerId = m01;
shapes = (
{
closed = 1;
nodes = (
(494,248,l),
(465,247,o),
(307,245,o),
(277,245,cs),
(184,245,o),
(163,248,o),
(150,258,cs),
(139,266,o),
(137,278,o),
(137,296,cs),
(137,327,o),
(140,481,o),
(145,700,c),
(58,700,l),
(61,461,o),
(61,461,o),
(61,350,cs),
(61,239,o),
(61,239,o),
(58,0,c),
(494,0,l)
);
}
);
width = 522;
},
{
anchors = (
{
name = bottom;
pos = (250,0);
},
{
name = center;
pos = (113,397);
},
{
name = top;
pos = (272,700);
},
{
name = topright;
pos = (373,700);
}
);
layerId = "60D037D9-62E9-4843-B070-F1594CB0B0D1";
shapes = (
{
closed = 1;
nodes = (
(421,37,l),
(304,37,o),
(254,37,o),
(179,37,cs),
(152,37,o),
(143,37,o),
(135,43,cs),
(125,51,o),
(123,66,o),
(123,107,cs),
(123,307,o),
(124,477,o),
(128,701,c),
(95,701,l),
(99,462,o),
(99,461,o),
(99,350,cs),
(99,239,o),
(99,239,o),
(96,0,c),
(421,0,l)
);
}
);
width = 433;
}
);
metricLeft = H;
unicode = 76;
userData = {
KernOnName = L;
};
},
{
glyphname = Lbar;
lastChange = "2024-01-27 15:58:36 +0000";
layers = (
{
layerId = "60D037D9-62E9-4843-B070-F1594CB0B0D1";
shapes = (
{
ref = L;
},
{
closed = 1;
nodes = (
(39,361,o),
(75,361,o),
(111,361,cs),
(147,361,o),
(182,361,o),
(208,360,c),
(208,391,l),
(182,390,o),
(146,390,o),
(110,390,cs),
(75,390,o),
(39,390,o),
(14,391,c),
(14,360,l)
);
}
);
width = 462;
},
{
layerId = m01;
shapes = (
{
ref = L;
},
{
closed = 1;
nodes = (
(0,400,o),
(51,401,o),
(101,401,cs),
(152,401,o),
(203,401,o),
(233,399,c),
(233,451,l),
(203,449,o),
(152,449,o),
(101,449,cs),
(50,449,o),
(0,450,o),
(-30,451,c),
(-30,399,l)
);
}
);
width = 530;
}
);
unicode = 573;
},
{
glyphname = Lbelt;
lastChange = "2024-01-26 15:11:43 +0000";
layers = (
{
layerId = "60D037D9-62E9-4843-B070-F1594CB0B0D1";
shapes = (
{
closed = 1;
nodes = (
(139,359,o),
(172,359,o),
(226,359,c),
(226,391,l),
(172,388,o),
(154,387,o),
(117,387,cs),
(54,387,o),
(32,387,o),
(32,407,cs),
(32,417,o),
(40,425,o),
(56,425,cs),
(74,425,o),
(88,414,o),
(99,390,c),
(99,417,l),
(92,443,o),
(72,456,o),
(47,456,cs),
(23,456,o),
(-1,443,o),
(-1,410,cs),
(-1,364,o),
(36,359,o),
(117,359,cs)
);
},
{
ref = L;
}
);
width = 462;
},
{
layerId = m01;
shapes = (
{
closed = 1;
nodes = (
(115,366,o),
(171,366,o),
(252,363,c),
(252,415,l),
(170,412,o),
(134,412,o),
(61,412,cs),
(25,412,o),
(8,423,o),
(8,441,cs),
(8,455,o),
(16,463,o),
(27,463,cs),
(38,463,o),
(52,452,o),
(61,427,c),
(61,484,l),
(47,509,o),
(21,521,o),
(-4,521,cs),
(-41,521,o),
(-76,496,o),
(-76,450,cs),
(-76,394,o),
(-30,366,o),
(61,366,cs)
);
},
{
ref = L;
}
);
width = 530;
}
);
unicode = 42925;
},
{
glyphname = Ldoublebar;
lastChange = "2024-01-23 16:23:27 +0000";
layers = (
{
layerId = "60D037D9-62E9-4843-B070-F1594CB0B0D1";
shapes = (
{
pos = (-7,0);
ref = L;
},
{
closed = 1;
nodes = (
(63,307,o),
(155,307,o),
(206,305,c),
(206,336,l),
(155,334,o),
(63,334,o),
(12,336,c),
(12,305,l)
);
},
{
closed = 1;
nodes = (
(63,391,o),
(155,391,o),
(206,389,c),
(206,420,l),
(155,418,o),
(63,418,o),
(12,420,c),
(12,389,l)
);
}
);
width = 455;
},
{
layerId = m01;
shapes = (
{
pos = (32,0);
ref = L;
},
{
closed = 1;
nodes = (
(73,381,o),
(205,381,o),
(265,378,c),
(265,430,l),
(205,427,o),
(73,427,o),
(12,430,c),
(12,378,l)
);
},
{
closed = 1;
nodes = (
(73,480,o),
(205,480,o),
(265,477,c),
(265,529,l),
(205,526,o),
(73,526,o),
(12,529,c),
(12,477,l)
);
}
);
width = 562;
}
);
metricLeft = T;
unicode = 11360;
},
{
glyphname = Lmiddletilde;
lastChange = "2024-01-26 15:01:32 +0000";
layers = (
{
layerId = "60D037D9-62E9-4843-B070-F1594CB0B0D1";
shapes = (
{
ref = L;
},
{
closed = 1;
nodes = (
(220,347,o),
(240,371,o),
(240,417,c),
(196,417,l),
(196,374,o),
(176,372,o),
(158,372,cs),
(144,372,o),
(131,380,o),
(118,391,cs),
(101,405,o),
(81,418,o),
(51,418,cs),
(6,418,o),
(-15,394,o),
(-15,348,c),
(29,348,l),
(29,391,o),
(49,394,o),
(67,394,cs),
(81,394,o),
(93,385,o),
(106,375,cs),
(124,361,o),
(143,347,o),
(174,347,cs)
);
}
);
width = 462;
},
{
layerId = m01;
shapes = (
{
ref = L;
},
{
closed = 1;
nodes = (
(234,382,o),
(279,406,o),
(288,488,c),
(176,488,l),
(176,461,o),
(164,442,o),
(137,442,cs),
(114,442,o),
(96,452,o),
(78,464,cs),
(59,477,o),
(38,488,o),
(9,488,cs),
(-35,488,o),
(-79,465,o),
(-88,383,c),
(24,383,l),
(24,410,o),
(36,429,o),
(63,429,cs),
(78,429,o),
(96,421,o),
(113,410,cs),
(136,396,o),
(163,382,o),
(194,382,cs)
);
}
);
width = 530;
}
);
unicode = 11362;
},
{
glyphname = Lslash;
kernRight = KO_L;
lastChange = "2024-01-26 15:03:19 +0000";
layers = (
{
layerId = "60D037D9-62E9-4843-B070-F1594CB0B0D1";
shapes = (
{
ref = L;
},
{
closed = 1;
nodes = (
(245,436,l),
(153,403,o),
(153,403,o),
(111,388,cs),
(67,372,o),
(67,372,o),
(-24,343,c),
(-24,311,l),
(69,343,o),
(69,343,o),
(114,358,cs),
(158,373,o),
(158,373,o),
(245,402,c)
);
}
);
width = 433;
},
{
layerId = m01;
shapes = (
{
ref = L;
},
{
closed = 1;
nodes = (
(234,509,l),
(145,476,o),
(145,476,o),
(104,461,cs),
(63,446,o),
(63,446,o),
(-24,416,c),
(-24,361,l),
(63,395,o),
(63,395,o),
(104,410,cs),
(145,425,o),
(145,425,o),
(234,454,c)
);
}
);
width = 522;
}
);
unicode = 321;
},
{
glyphname = M;
kernLeft = KO_H;
kernRight = KO_H;
lastChange = "2024-02-01 16:32:33 +0000";
layers = (
{
anchors = (
{
name = bottom;
pos = (414,0);
},
{
name = top;
pos = (414,700);
}
);
background = {
shapes = (
{
pos = (67,0);
ref = O;
}
);
};
layerId = m01;
shapes = (
{
closed = 1;
nodes = (
(141,0,l),
(137,97,o),
(135,192,o),
(135,259,cs),
(135,298,o),
(139,313,o),
(154,326,cs),
(164,335,o),
(187,339,o),
(220,339,cs),
(254,339,o),
(276,338,o),
(294,322,cs),
(322,297,o),
(331,271,o),
(367,0,c),
(461,0,l),
(497,271,o),
(506,297,o),
(534,322,cs),
(552,338,o),
(574,339,o),
(608,339,cs),
(641,339,o),
(664,335,o),
(674,326,cs),
(689,313,o),
(693,298,o),
(693,259,cs),
(693,192,o),
(691,97,o),
(687,0,c),
(770,0,l),
(767,239,o),
(767,239,o),
(767,350,cs),
(767,461,o),
(767,461,o),
(770,700,c),
(475,700,l),
(458,381,o),
(453,353,o),
(414,353,cs),
(375,353,o),
(370,381,o),
(353,700,c),
(58,700,l),
(61,461,o),
(61,461,o),
(61,350,cs),
(61,239,o),
(61,239,o),
(58,0,c)
);
}
);
width = 828;
},
{
anchors = (
{
name = bottom;
pos = (402,0);
},
{
name = top;
pos = (402,700);
}
);
background = {
shapes = (
{
closed = 1;
nodes = (
(166,0,l),
(162,207,o),
(161,349,o),
(161,446,cs),
(161,633,o),
(163,644,o),
(176,655,cs),
(182,660,o),
(191,661,o),
(224,661,cs),
(261,661,o),
(274,660,o),
(280,654,cs),
(291,643,o),
(294,632,o),
(390,134,c),
(478,134,l),
(574,632,o),
(577,643,o),
(588,654,cs),
(594,660,o),
(607,661,o),
(644,661,cs),
(677,661,o),
(686,660,o),
(692,655,cs),
(705,644,o),
(707,633,o),
(707,447,cs),
(707,350,o),
(705,207,o),
(702,0,c),
(732,0,l),
(729,239,o),
(729,239,o),
(729,350,cs),
(729,461,o),
(729,461,o),
(732,700,c),
(564,700,l),
(464,170,o),
(464,170,o),
(434,170,cs),
(404,170,o),
(404,170,o),
(304,700,c),
(136,700,l),
(139,461,o),
(139,461,o),
(139,350,cs),
(139,239,o),
(139,239,o),
(136,0,c)
);
},
{
pos = (94,0);
ref = O;
}
);
};
layerId = "60D037D9-62E9-4843-B070-F1594CB0B0D1";
shapes = (
{
closed = 1;
nodes = (
(128,0,l),
(124,207,o),
(122,349,o),
(122,446,cs),
(122,633,o),
(124,644,o),
(137,655,cs),
(143,660,o),
(152,661,o),
(186,661,cs),
(222,661,o),
(235,660,o),
(242,654,cs),
(253,644,o),
(276,498,o),
(354,0,c),
(449,0,l),
(527,498,o),
(550,644,o),
(561,654,cs),
(568,660,o),
(581,661,o),
(617,661,cs),
(651,661,o),
(660,660,o),
(666,655,cs),
(679,644,o),
(681,633,o),
(681,447,cs),
(681,350,o),
(679,207,o),
(675,0,c),
(708,0,l),
(704,239,o),
(704,239,o),
(704,350,cs),
(704,461,o),
(704,461,o),
(707,700,c),
(535,700,l),
(432,36,o),
(432,36,o),
(402,36,cs),
(371,36,o),
(371,36,o),
(268,700,c),
(96,700,l),
(99,461,o),
(99,461,o),
(99,350,cs),
(99,239,o),
(99,239,o),
(95,0,c)
);
}
);
width = 803;
}
);
metricLeft = H;
metricRight = H;
unicode = 77;
userData = {
KernOnName = M;
};
},
{
glyphname = Mturned;
lastChange = "2024-01-26 02:36:54 +0000";
layers = (
{
layerId = "60D037D9-62E9-4843-B070-F1594CB0B0D1";
shapes = (
{
closed = 1;
nodes = (
(719,700,l),
(723,327,o),
(723,327,o),
(723,240,cs),
(723,104,o),
(658,21,o),
(550,21,cs),
(488,21,o),
(414,51,o),
(414,175,cs),
(414,325,o),
(414,325,o),
(418,700,c),
(387,700,l),
(391,325,o),
(391,325,o),
(391,240,cs),
(391,112,o),
(330,21,o),
(218,21,cs),
(157,21,o),
(81,51,o),
(81,175,cs),
(81,327,o),
(81,327,o),
(85,700,c),
(54,700,l),
(58,327,o),
(58,325,o),
(58,150,cs),
(58,55,o),
(116,-16,o),
(205,-16,cs),
(286,-16,o),
(340,36,o),
(368,82,cs),
(382,105,o),
(387,109,o),
(392,109,cs),
(399,109,o),
(400,107,o),
(408,78,cs),
(420,37,o),
(453,-16,o),
(542,-16,cs),
(621,-16,o),
(675,42,o),
(694,72,cs),
(707,93,o),
(710,97,o),
(716,97,cs),
(723,97,o),
(723,90,o),
(723,50,cs),
(723,38,o),
(722,19,o),
(721,0,c),
(751,0,l),
(746,146,o),
(746,146,o),
(746,207,cs),
(746,270,o),
(746,270,o),
(751,700,c)
);
}
);
width = 805;
},
{
layerId = m01;
shapes = (
{
closed = 1;
nodes = (
(735,700,l),
(738,504,o),
(739,366,o),
(739,328,cs),
(739,251,o),
(727,245,o),
(597,245,cs),
(470,245,o),
(457,251,o),
(457,328,cs),
(457,366,o),
(459,504,o),
(462,700,c),
(382,700,l),
(385,504,o),
(386,366,o),
(386,328,cs),
(386,251,o),
(374,245,o),
(247,245,cs),
(117,245,o),
(105,251,o),
(105,328,cs),
(105,366,o),
(107,504,o),
(110,700,c),
(30,700,l),
(33,436,o),
(34,320,o),
(34,159,cs),
(34,41,o),
(116,-10,o),
(207,-10,cs),
(282,-10,o),
(341,37,o),
(365,75,cs),
(384,105,o),
(388,111,o),
(394,111,cs),
(400,111,o),
(404,102,o),
(408,91,cs),
(430,30,o),
(474,-10,o),
(552,-10,cs),
(634,-10,o),
(676,35,o),
(696,62,cs),
(714,87,o),
(723,98,o),
(730,98,cs),
(740,98,o),
(740,86,o),
(740,67,cs),
(740,50,o),
(738,25,o),
(736,0,c),
(815,0,l),
(814,29,o),
(811,177,o),
(811,253,cs),
(811,333,o),
(811,436,o),
(815,700,c)
);
}
);
width = 845;
}
);
metricLeft = W;
metricRight = W;
unicode = 412;
},
{
glyphname = N;
kernLeft = KO_H;
kernRight = KO_N;
lastChange = "2024-01-31 17:40:49 +0000";
layers = (
{
anchors = (
{
name = bottom;
pos = (314,0);
},
{
name = top;
pos = (314,700);
}
);
background = {
shapes = (
{
closed = 1;
nodes = (
(144,0,l),
(140,102,o),
(136,177,o),
(136,229,cs),
(136,276,o),
(138,295,o),
(143,317,cs),
(150,342,o),
(166,349,o),
(221,349,cs),
(270,349,o),
(290,342,o),
(312,316,cs),
(345,276,o),
(355,259,o),
(436,0,c),
(603,0,l),
(599,280,o),
(599,420,o),
(603,700,c),
(517,700,l),
(526,601,o),
(542,432,o),
(519,401,cs),
(509,387,o),
(496,383,o),
(464,383,cs),
(428,383,o),
(413,391,o),
(394,426,cs),
(367,477,o),
(346,534,o),
(299,700,c),
(58,700,l),
(62,420,o),
(62,280,o),
(58,0,c)
);
}
);
};
layerId = m01;
shapes = (
{
closed = 1;
nodes = (
(144,0,l),
(139,102,o),
(137,177,o),
(137,229,cs),
(137,276,o),
(138,296,o),
(143,317,cs),
(149,342,o),
(166,349,o),
(221,349,cs),
(270,349,o),
(290,342,o),
(312,316,cs),
(345,276,o),
(355,259,o),
(436,0,c),
(603,0,l),
(600,319,o),
(600,319,o),
(600,350,cs),
(600,381,o),
(600,381,o),
(603,700,c),
(517,700,l),
(523,639,o),
(527,551,o),
(527,485,cs),
(527,445,o),
(524,413,o),
(516,401,cs),
(506,387,o),
(496,383,o),
(464,383,cs),
(428,383,o),
(413,391,o),
(394,426,cs),
(367,477,o),
(346,534,o),
(299,700,c),
(58,700,l),
(61,381,o),
(61,381,o),
(61,350,cs),
(61,319,o),
(61,319,o),
(58,0,c)
);
}
);
width = 661;
},
{
anchors = (
{
name = bottom;
pos = (318,0);
},
{
name = top;
pos = (335,700);
}
);
background = {
shapes = (
{
pos = (2,0);
ref = M;
}
);
};
layerId = "60D037D9-62E9-4843-B070-F1594CB0B0D1";
shapes = (
{
closed = 1;
nodes = (
(128,0,l),
(121,224,o),
(121,449,o),
(121,538,cs),
(121,635,o),
(123,645,o),
(136,656,cs),
(142,661,o),
(151,662,o),
(184,662,cs),
(220,662,o),
(232,661,o),
(238,655,cs),
(249,644,o),
(252,633,o),
(421,0,c),
(569,0,l),
(566,239,o),
(566,239,o),
(566,350,cs),
(566,461,o),
(566,461,o),
(571,700,c),
(537,700,l),
(543,476,o),
(545,248,o),
(545,159,cs),
(545,53,o),
(540,47,o),
(533,41,cs),
(527,36,o),
(518,35,o),
(493,35,cs),
(462,35,o),
(450,36,o),
(444,42,cs),
(433,53,o),
(430,64,o),
(259,700,c),
(97,700,l),
(100,461,o),
(100,461,o),
(100,350,cs),
(100,239,o),
(100,239,o),
(94,0,c)
);
}
);
width = 659;
}
);
unicode = 78;
userData = {
KernOnName = N;
};
},
{
glyphname = Nhookleft;
kernRight = KO_N;
lastChange = "2024-01-28 20:27:29 +0000";
layers = (
{
anchors = (
{
name = bottom;
pos = (431,0);
},
{
name = top;
pos = (448,700);
}
);
layerId = "60D037D9-62E9-4843-B070-F1594CB0B0D1";
shapes = (
{
closed = 1;
nodes = (
(2,-197,o),
(35,-207,o),
(66,-207,cs),
(92,-207,o),
(117,-200,o),
(137,-185,cs),
(164,-165,o),
(177,-131,o),
(177,-81,cs),
(174,224,o),
(174,449,o),
(174,538,cs),
(174,635,o),
(176,645,o),
(189,656,cs),
(195,661,o),
(204,662,o),
(237,662,cs),
(273,662,o),
(285,661,o),
(291,655,cs),
(302,644,o),
(305,633,o),
(474,0,c),
(622,0,l),
(619,239,o),
(619,239,o),
(619,350,cs),
(619,461,o),
(619,461,o),
(624,700,c),
(590,700,l),
(596,476,o),
(598,248,o),
(598,159,cs),
(598,53,o),
(593,47,o),
(586,41,cs),
(580,36,o),
(571,35,o),
(546,35,cs),
(515,35,o),
(503,36,o),
(497,42,cs),
(486,53,o),
(483,64,o),
(312,700,c),
(150,700,l),
(153,461,o),
(153,461,o),
(153,350,cs),
(153,146,o),
(153,117,o),
(153,-56,cs),
(153,-119,o),
(136,-170,o),
(65,-170,cs),
(31,-170,o),
(-5,-155,o),
(-24,-144,c),
(-24,-186,l)
);
}
);
width = 712;
},
{
anchors = (
{
name = bottom;
pos = (468,0);
},
{
name = top;
pos = (468,700);
}
);
layerId = m01;
shapes = (
{
closed = 1;
nodes = (
(16,-203,o),
(44,-205,o),
(68,-205,cs),
(122,-205,o),
(173,-179,o),
(194,-140,cs),
(209,-112,o),
(216,-81,o),
(216,-27,cs),
(216,56,o),
(216,144,o),
(216,229,cs),
(216,276,o),
(217,296,o),
(222,317,cs),
(228,342,o),
(245,349,o),
(300,349,cs),
(349,349,o),
(369,342,o),
(391,316,cs),
(424,276,o),
(434,259,o),
(515,0,c),
(682,0,l),
(679,319,o),
(679,319,o),
(679,350,cs),
(679,467,o),
(679,583,o),
(682,700,c),
(596,700,l),
(602,639,o),
(606,551,o),
(606,485,cs),
(606,445,o),
(603,413,o),
(595,401,cs),
(585,387,o),
(575,383,o),
(543,383,cs),
(507,383,o),
(492,391,o),
(473,426,cs),
(446,477,o),
(425,534,o),
(378,700,c),
(137,700,l),
(140,381,o),
(140,381,o),
(140,350,cs),
(140,304,o),
(140,304,o),
(140,36,cs),
(140,-28,o),
(89,-34,o),
(60,-34,cs),
(40,-34,o),
(15,-31,o),
(-16,-24,c),
(-16,-199,l)
);
}
);
width = 740;
}
);
metricLeft = j;
metricRight = N;
unicode = 413;
},
{
glyphname = Nlongrightleg;
lastChange = "2024-01-26 02:37:27 +0000";
layers = (
{
anchors = (
{
name = bottom;
pos = (310,0);
},
{
name = top;
pos = (310,480);
}
);
layerId = "60D037D9-62E9-4843-B070-F1594CB0B0D1";
shapes = (
{
closed = 1;
nodes = (
(126,0,l),
(121,375,o),
(121,375,o),
(121,466,cs),
(121,588,o),
(197,676,o),
(335,676,cs),
(416,676,o),
(501,646,o),
(501,522,cs),
(501,373,o),
(501,373,o),
(496,-207,c),
(527,-207,l),
(523,373,o),
(523,373,o),
(523,547,cs),
(523,642,o),
(468,713,o),
(345,713,cs),
(234,713,o),
(179,655,o),
(157,625,cs),
(142,604,o),
(139,600,o),
(131,600,cs),
(123,600,o),
(123,607,o),
(123,647,cs),
(123,659,o),
(123,678,o),
(124,700,c),
(96,700,l),
(99,552,o),
(99,549,o),
(99,487,cs),
(99,424,o),
(99,424,o),
(95,0,c)
);
}
);
width = 610;
},
{
anchors = (
{
name = bottom;
pos = (297,0);
},
{
name = top;
pos = (297,500);
}
);
background = {
shapes = (
{
closed = 1;
nodes = (
(134,0,l),
(132,194,o),
(130,225,o),
(130,265,cs),
(130,346,o),
(142,352,o),
(290,352,cs),
(438,352,o),
(450,346,o),
(450,265,cs),
(450,225,o),
(448,-12,o),
(446,-206,c),
(522,-206,l),
(519,56,o),
(518,386,o),
(518,547,cs),
(518,665,o),
(426,708,o),
(331,708,cs),
(244,708,o),
(200,668,o),
(175,639,cs),
(154,614,o),
(147,600,o),
(140,600,cs),
(130,600,o),
(130,612,o),
(130,631,cs),
(130,648,o),
(132,675,o),
(134,700,c),
(58,700,l),
(61,513,o),
(61,387,o),
(58,0,c)
);
}
);
};
layerId = m01;
shapes = (
{
closed = 1;
nodes = (
(143,0,l),
(138,96,o),
(137,228,o),
(137,285,cs),
(137,346,o),
(152,350,o),
(326,350,cs),
(501,350,o),
(515,346,o),
(515,280,cs),
(515,193,o),
(513,-58,o),
(510,-205,c),
(595,-205,l),
(591,-8,o),
(590,388,o),
(590,549,cs),
(590,667,o),
(488,710,o),
(375,710,cs),
(272,710,o),
(216,667,o),
(188,635,cs),
(165,609,o),
(158,602,o),
(150,602,cs),
(137,602,o),
(137,614,o),
(137,633,cs),
(137,650,o),
(140,675,o),
(143,700,c),
(58,700,l),
(59,671,o),
(61,525,o),
(61,447,cs),
(61,348,o),
(61,348,o),
(58,0,c)
);
}
);
width = 631;
}
);
metricLeft = H;
metricRight = n;
unicode = 544;
},
{
glyphname = Eng;
kernLeft = KO_H;
kernRight = KO_N;
lastChange = "2024-01-28 20:28:13 +0000";
layers = (
{
layerId = "60D037D9-62E9-4843-B070-F1594CB0B0D1";
shapes = (
{
closed = 1;
nodes = (
(128,0,l),
(121,224,o),
(121,449,o),
(121,538,cs),
(121,635,o),
(123,645,o),
(136,656,cs),
(142,661,o),
(151,662,o),
(184,662,cs),
(220,662,o),
(232,661,o),
(238,655,cs),
(249,644,o),
(252,633,o),
(421,0,c),
(544,0,l),
(544,-80,o),
(544,-133,o),
(512,-157,cs),
(500,-166,o),
(482,-171,o),
(459,-171,cs),
(425,-171,o),
(389,-156,o),
(370,-146,c),
(370,-189,l),
(396,-199,o),
(429,-207,o),
(460,-207,cs),
(486,-207,o),
(506,-202,o),
(526,-187,cs),
(555,-165,o),
(566,-121,o),
(566,-73,cs),
(566,-40,o),
(566,7,o),
(566,78,cs),
(566,182,o),
(566,310,o),
(566,350,cs),
(566,461,o),
(566,461,o),
(571,700,c),
(537,700,l),
(543,476,o),
(545,248,o),
(545,159,cs),
(545,53,o),
(540,47,o),
(533,41,cs),
(527,36,o),
(518,35,o),
(493,35,cs),
(462,35,o),
(450,36,o),
(444,42,cs),
(433,53,o),
(430,64,o),
(259,700,c),
(97,700,l),
(100,461,o),
(100,461,o),
(100,350,cs),
(100,239,o),
(100,239,o),
(94,0,c)
);
}
);
width = 659;
},
{
background = {
shapes = (
{
closed = 1;
nodes = (
(530,134,l),
(529,91,o),
(528,55,o),
(527,36,cs),
(523,-27,o),
(480,-34,o),
(451,-34,cs),
(431,-34,o),
(406,-31,o),
(375,-24,c),
(375,-199,l),
(407,-203,o),
(435,-205,o),
(459,-205,cs),
(513,-205,o),
(561,-180,o),
(582,-140,cs),
(597,-112,o),
(603,-79,o),
(603,-27,cs),
(603,-1,o),
(603,2,o),
(603,134,c)
);
}
);
};
layerId = m01;
shapes = (
{
closed = 1;
nodes = (
(144,0,l),
(139,102,o),
(137,177,o),
(137,229,cs),
(137,276,o),
(138,296,o),
(143,317,cs),
(149,342,o),
(166,349,o),
(221,349,cs),
(270,349,o),
(290,342,o),
(312,316,cs),
(345,276,o),
(355,259,o),
(436,0,c),
(519,0,l),
(519,-7,o),
(516,-13,o),
(512,-18,cs),
(500,-35,o),
(473,-40,o),
(452,-40,cs),
(428,-40,o),
(407,-38,o),
(376,-32,c),
(376,-199,l),
(408,-203,o),
(436,-205,o),
(460,-205,cs),
(514,-205,o),
(560,-182,o),
(581,-142,cs),
(596,-114,o),
(600,-79,o),
(600,-27,cs),
(600,72,o),
(600,72,o),
(600,159,cs),
(600,247,o),
(600,247,o),
(600,350,cs),
(600,381,o),
(600,381,o),
(603,700,c),
(517,700,l),
(523,639,o),
(527,551,o),
(527,485,cs),
(527,445,o),
(524,413,o),
(516,401,cs),
(506,387,o),
(496,383,o),
(464,383,cs),
(428,383,o),
(413,391,o),
(394,426,cs),
(367,477,o),
(346,534,o),
(299,700,c),
(58,700,l),
(61,381,o),
(61,381,o),
(61,350,cs),
(61,319,o),
(61,319,o),
(58,0,c)
);
}
);
width = 661;
}
);
metricLeft = N;
metricRight = N;
unicode = 330;
},
{
glyphname = O;
kernLeft = KO_O;
kernRight = KO_O;
lastChange = "2024-01-31 17:58:53 +0000";
layers = (
{
anchors = (
{
name = bottom;
pos = (347,0);
},
{
name = center;
pos = (347,350);
},
{
name = ogonek;
pos = (443,10);
},
{
name = top;
pos = (347,700);
},
{
name = topleft;
pos = (20,700);
},
{
name = topright;
pos = (423,704);
}
);
layerId = m01;
shapes = (
{
closed = 1;
nodes = (
(566,-10,o),
(652,95,o),
(652,350,cs),
(652,605,o),
(565,710,o),
(347,710,cs),
(129,710,o),
(42,605,o),
(42,350,cs),
(42,95,o),
(128,-10,o),
(347,-10,cs)
);
},
{
closed = 1;
nodes = (
(168,245,o),
(109,271,o),
(109,350,cs),
(109,429,o),
(168,455,o),
(347,455,cs),
(526,455,o),
(585,429,o),
(585,350,cs),
(585,271,o),
(526,245,o),
(347,245,cs)
);
}
);
width = 694;
},
{
anchors = (
{
name = bottom;
pos = (325,0);
},
{
name = center;
pos = (325,350);
},
{
name = ogonek;
pos = (445,10);
},
{
name = top;
pos = (325,700);
},
{
name = topleft;
pos = (5,700);
},
{
name = topright;
pos = (392,707);
}
);
layerId = "60D037D9-62E9-4843-B070-F1594CB0B0D1";
shapes = (
{
closed = 1;
nodes = (
(495,-16,o),
(596,103,o),
(596,350,cs),
(596,597,o),
(495,716,o),
(325,716,cs),
(155,716,o),
(54,597,o),
(54,350,cs),
(54,103,o),
(155,-16,o),
(325,-16,cs)
);
},
{
closed = 1;
nodes = (
(173,23,o),
(77,132,o),
(77,350,cs),
(77,568,o),
(173,677,o),
(325,677,cs),
(477,677,o),
(573,568,o),
(573,350,cs),
(573,132,o),
(477,23,o),
(325,23,cs)
);
}
);
width = 650;
}
);
unicode = 79;
userData = {
KernOnName = O;
};
},
{
glyphname = OU;
lastChange = "2024-01-28 01:55:20 +0000";
layers = (
{
layerId = "60D037D9-62E9-4843-B070-F1594CB0B0D1";
shapes = (
{
closed = 1;
nodes = (
(83,595,o),
(86,522,o),
(103,488,cs),
(118,457,o),
(143,441,o),
(185,433,c),
(101,396,o),
(54,322,o),
(54,223,cs),
(54,70,o),
(158,-16,o),
(332,-16,cs),
(506,-16,o),
(610,71,o),
(610,223,cs),
(610,323,o),
(563,397,o),
(479,434,c),
(519,442,o),
(544,458,o),
(559,488,cs),
(576,522,o),
(579,595,o),
(583,700,c),
(552,700,l),
(553,671,o),
(554,608,o),
(554,570,cs),
(554,541,o),
(547,515,o),
(537,502,cs),
(512,470,o),
(465,461,o),
(331,461,cs),
(197,461,o),
(150,470,o),
(125,502,cs),
(115,515,o),
(108,541,o),
(108,570,cs),
(108,608,o),
(109,671,o),
(110,700,c),
(79,700,l)
);
},
{
closed = 1;
nodes = (
(77,353,o),
(179,425,o),
(332,425,cs),
(484,425,o),
(587,357,o),
(587,223,cs),
(587,89,o),
(470,21,o),
(332,21,cs),
(179,21,o),
(77,85,o),
(77,223,cs)
);
}
);
width = 664;
},
{
background = {
shapes = (
{
closed = 1;
nodes = (
(549,-10,o),
(660,79,o),
(660,239,cs),
(660,426,o),
(542,507,o),
(351,507,cs),
(160,507,o),
(42,426,o),
(42,239,cs),
(42,79,o),
(153,-10,o),
(351,-10,cs)
);
},
{
closed = 1;
nodes = (
(180,245,o),
(126,262,o),
(126,313,cs),
(126,367,o),
(180,383,o),
(351,383,cs),
(521,383,o),
(576,367,o),
(576,313,cs),
(576,262,o),
(521,245,o),
(351,245,cs)
);
},
{
closed = 1;
nodes = (
(576,386,o),
(652,448,o),
(652,700,c),
(560,700,l),
(563,661,o),
(563,617,o),
(563,579,cs),
(563,543,o),
(546,539,o),
(350,539,cs),
(157,539,o),
(140,543,o),
(140,579,cs),
(140,617,o),
(141,661,o),
(144,700,c),
(54,700,l),
(54,448,o),
(118,386,o),
(350,386,cs)
);
}
);
};
layerId = m01;
shapes = (
{
closed = 1;
nodes = (
(52,581,o),
(69,504,o),
(109,456,cs),
(114,450,o),
(118,446,o),
(123,441,c),
(71,398,o),
(42,331,o),
(42,239,cs),
(42,79,o),
(153,-10,o),
(351,-10,cs),
(549,-10,o),
(660,79,o),
(660,239,cs),
(660,332,o),
(631,398,o),
(579,442,c),
(584,447,o),
(588,451,o),
(593,457,cs),
(635,504,o),
(650,581,o),
(650,700,c),
(558,700,l),
(561,661,o),
(561,617,o),
(561,579,cs),
(561,568,o),
(560,561,o),
(553,555,cs),
(536,541,o),
(487,539,o),
(351,539,cs),
(215,539,o),
(166,541,o),
(149,555,cs),
(142,561,o),
(141,568,o),
(141,579,cs),
(141,617,o),
(141,661,o),
(144,700,c),
(52,700,l)
);
},
{
closed = 1;
nodes = (
(126,367,o),
(180,383,o),
(351,383,cs),
(521,383,o),
(576,367,o),
(576,313,cs),
(576,262,o),
(521,245,o),
(351,245,cs),
(180,245,o),
(126,262,o),
(126,313,cs)
);
}
);
width = 702;
}
);
metricLeft = O;
metricRight = O;
unicode = 546;
},
{
glyphname = Ocenteredtilde;
kernLeft = KO_O;
lastChange = "2024-01-26 15:18:00 +0000";
layers = (
{
layerId = "60D037D9-62E9-4843-B070-F1594CB0B0D1";
shapes = (
{
ref = O;
},
{
closed = 1;
nodes = (
(129,334,o),
(228,334,o),
(325,334,cs),
(424,334,o),
(520,334,o),
(593,331,c),
(593,366,l),
(520,363,o),
(424,363,o),
(325,363,cs),
(228,363,o),
(129,363,o),
(57,366,c),
(57,331,l)
);
}
);
width = 680;
},
{
layerId = m01;
shapes = (
{
ref = O;
},
{
closed = 1;
nodes = (
(159,317,o),
(251,317,o),
(342,317,cs),
(435,317,o),
(527,317,o),
(638,314,c),
(638,383,l),
(528,380,o),
(436,380,o),
(343,380,cs),
(251,380,o),
(159,380,o),
(49,383,c),
(49,314,l)
);
}
);
width = 694;
}
);
unicode = 415;
},
{
glyphname = "Omega-latin";
lastChange = "2024-01-28 23:44:51 +0000";
layers = (
{
background = {
shapes = (
{
closed = 1;
nodes = (
(123,716,o),
(54,549,o),
(54,350,cs),
(54,103,o),
(123,-16,o),
(240,-16,cs),
(308,-16,o),
(360,25,o),
(391,109,cs),
(401,134,o),
(408,162,o),
(414,195,c),
(420,162,o),
(427,134,o),
(437,109,cs),
(468,25,o),
(520,-16,o),
(588,-16,cs),
(705,-16,o),
(774,103,o),
(774,350,cs),
(774,549,o),
(705,716,o),
(588,716,c),
(588,677,l),
(693,677,o),
(751,520,o),
(751,350,cs),
(751,132,o),
(692,23,o),
(588,23,cs),
(503,23,o),
(448,97,o),
(432,243,cs),
(428,275,o),
(426,311,o),
(426,350,c),
(402,350,l),
(402,311,o),
(400,275,o),
(396,242,cs),
(380,96,o),
(325,23,o),
(240,23,cs),
(136,23,o),
(77,132,o),
(77,350,cs),
(77,520,o),
(135,677,o),
(240,677,c),
(240,716,l)
);
}
);
};
layerId = "60D037D9-62E9-4843-B070-F1594CB0B0D1";
shapes = (
{
closed = 1;
nodes = (
(123,716,o),
(54,549,o),
(54,350,cs),
(54,103,o),
(123,-16,o),
(240,-16,cs),
(355,-16,o),
(384,80,o),
(407,182,cs),
(409,191,o),
(410,195,o),
(414,195,cs),
(418,195,o),
(419,191,o),
(421,182,cs),
(444,80,o),
(473,-16,o),
(588,-16,cs),
(705,-16,o),
(774,103,o),
(774,350,cs),
(774,549,o),
(705,716,o),
(588,716,c),
(588,677,l),
(693,677,o),
(751,520,o),
(751,350,cs),
(751,132,o),
(692,23,o),
(588,23,cs),
(503,23,o),
(446,97,o),
(432,243,cs),
(429,275,o),
(429,311,o),
(429,350,c),
(399,350,l),
(399,311,o),
(399,275,o),
(396,242,cs),
(383,96,o),
(325,23,o),
(240,23,cs),
(136,23,o),
(77,132,o),
(77,350,cs),
(77,520,o),
(135,677,o),
(240,677,c),
(240,716,l)
);
}
);
width = 828;
},
{
layerId = m01;
shapes = (
{
closed = 1;
nodes = (
(137,700,o),
(42,580,o),
(42,382,cs),
(42,113,o),
(101,-10,o),
(227,-10,cs),
(290,-10,o),
(324,18,o),
(346,91,cs),
(363,148,o),
(369,165,o),
(391,165,cs),
(413,165,o),
(419,148,o),
(436,91,cs),
(458,18,o),
(492,-10,o),
(555,-10,cs),
(681,-10,o),
(740,138,o),
(740,382,cs),
(740,580,o),
(645,700,o),
(488,700,c),
(488,455,l),
(625,455,o),
(677,427,o),
(677,344,cs),
(677,282,o),
(631,245,o),
(555,245,cs),
(502,245,o),
(430,265,o),
(430,339,cs),
(430,366,o),
(433,405,o),
(436,439,c),
(346,439,l),
(349,405,o),
(352,366,o),
(352,339,cs),
(352,265,o),
(280,245,o),
(227,245,cs),
(151,245,o),
(105,282,o),
(105,344,cs),
(105,427,o),
(157,455,o),
(294,455,c),
(294,700,l)
);
}
);
width = 782;
}
);
metricLeft = O;
metricRight = O;
unicode = 42934;
},
{
glyphname = Oogonek;
kernLeft = KO_O;
kernRight = KO_O;
lastChange = "2024-01-29 01:03:06 +0000";
layers = (
{
anchors = (
{
name = top;
pos = (325,700);
}
);
layerId = "60D037D9-62E9-4843-B070-F1594CB0B0D1";
shapes = (
{
closed = 1;
nodes = (
(346,-16,o),
(366,-14,o),
(385,-11,c),
(349,-47,o),
(337,-76,o),
(337,-104,cs),
(337,-143,o),
(365,-162,o),
(391,-162,cs),
(409,-162,o),
(427,-156,o),
(446,-146,c),
(446,-116,l),
(430,-123,o),
(415,-128,o),
(398,-128,cs),
(382,-128,o),
(370,-118,o),
(370,-96,cs),
(370,-74,o),
(382,-30,o),
(445,7,cs),
(537,61,o),
(596,168,o),
(596,350,cs),
(596,597,o),
(495,716,o),
(325,716,cs),
(155,716,o),
(54,597,o),
(54,350,cs),
(54,103,o),
(155,-16,o),
(325,-16,cs)
);
},
{
closed = 1;
nodes = (
(77,568,o),
(173,677,o),
(325,677,cs),
(477,677,o),
(573,568,o),
(573,350,cs),
(573,132,o),
(477,23,o),
(325,23,cs),
(173,23,o),
(77,132,o),
(77,350,cs)
);
}
);
width = 650;
},
{
anchors = (
{
name = top;
pos = (347,700);
}
);
layerId = m01;
shapes = (
{
closed = 1;
nodes = (
(359,-10,o),
(370,-10,o),
(382,-9,c),
(343,-45,o),
(326,-81,o),
(326,-123,cs),
(326,-163,o),
(349,-202,o),
(399,-202,cs),
(426,-202,o),
(458,-194,o),
(486,-172,c),
(486,-93,l),
(467,-102,o),
(448,-108,o),
(435,-108,cs),
(414,-108,o),
(407,-97,o),
(407,-85,cs),
(407,-56,o),
(431,-14,o),
(486,10,cs),
(600,59,o),
(652,158,o),
(652,350,cs),
(652,605,o),
(565,710,o),
(347,710,cs),
(129,710,o),
(42,605,o),
(42,350,cs),
(42,95,o),
(128,-10,o),
(347,-10,cs)
);
},
{
closed = 1;
nodes = (
(109,429,o),
(168,455,o),
(347,455,cs),
(526,455,o),
(585,429,o),
(585,350,cs),
(585,271,o),
(526,245,o),
(347,245,cs),
(168,245,o),
(109,271,o),
(109,350,cs)
);
}
);
width = 694;
}
);
unicode = 490;
},
{
glyphname = OE;
kernLeft = KO_O;
kernRight = KO_E;
lastChange = "2024-01-26 15:29:00 +0000";
layers = (
{
anchors = (
{
name = bottom;
pos = (461,0);
},
{
name = top;
pos = (461,700);
}
);
background = {
shapes = (
{
closed = 1;
nodes = (
(420,-8,o),
(500,56,o),
(534,185,c),
(533,0,l),
(874,0,l),
(874,36,l),
(824,36,o),
(773,36,o),
(723,36,cs),
(585,36,o),
(576,36,o),
(568,42,cs),
(558,50,o),
(556,65,o),
(556,195,cs),
(556,325,o),
(558,340,o),
(568,348,cs),
(576,354,o),
(585,354,o),
(723,354,cs),
(809,354,o),
(853,354,o),
(869,353,c),
(869,386,l),
(853,385,o),
(809,384,o),
(723,384,cs),
(585,384,o),
(576,384,o),
(568,390,cs),
(558,398,o),
(556,413,o),
(556,524,cs),
(556,635,o),
(558,650,o),
(568,658,cs),
(576,664,o),
(585,664,o),
(723,664,cs),
(773,664,o),
(824,664,o),
(874,664,c),
(874,700,l),
(533,700,l),
(534,515,l),
(500,644,o),
(420,708,o),
(304,708,cs),
(146,708,o),
(56,589,o),
(56,350,cs),
(56,111,o),
(146,-8,o),
(304,-8,cs)
);
},
{
closed = 1;
nodes = (
(164,31,o),
(76,140,o),
(76,350,cs),
(76,560,o),
(164,669,o),
(304,669,cs),
(445,669,o),
(533,560,o),
(533,350,cs),
(533,140,o),
(445,31,o),
(304,31,cs)
);
}
);
};
layerId = "60D037D9-62E9-4843-B070-F1594CB0B0D1";
shapes = (
{
closed = 1;
nodes = (
(413,-16,o),
(491,45,o),
(527,172,c),
(527,132,o),
(527,79,o),
(524,0,c),
(885,0,l),
(885,36,l),
(829,36,o),
(773,36,o),
(717,36,cs),
(579,36,o),
(570,36,o),
(562,42,cs),
(552,50,o),
(550,65,o),
(550,195,cs),
(550,325,o),
(552,340,o),
(562,348,cs),
(570,354,o),
(579,354,o),
(670,354,cs),
(703,354,o),
(703,354,o),
(857,351,c),
(857,387,l),
(703,384,o),
(703,384,o),
(670,384,cs),
(579,384,o),
(570,384,o),
(562,390,cs),
(552,398,o),
(550,413,o),
(550,524,cs),
(550,635,o),
(552,650,o),
(562,658,cs),
(570,664,o),
(579,664,o),
(717,664,cs),
(770,664,o),
(824,664,o),
(877,664,c),
(877,700,l),
(524,700,l),
(527,621,o),
(527,568,o),
(527,528,c),
(491,655,o),
(413,716,o),
(302,716,cs),
(148,716,o),
(54,597,o),
(54,350,cs),
(54,103,o),
(148,-16,o),
(302,-16,cs)
);
},
{
closed = 1;
nodes = (
(77,568,o),
(164,677,o),
(302,677,cs),
(440,677,o),
(527,568,o),
(527,350,cs),
(527,132,o),
(440,23,o),
(302,23,cs),
(164,23,o),
(77,132,o),
(77,350,cs)
);
}
);
width = 935;
},
{
anchors = (
{
name = bottom;
pos = (476,0);
},
{
name = top;
pos = (476,700);
}
);
background = {
shapes = (
{
closed = 1;
nodes = (
(392,-10,o),
(464,17,o),
(509,78,c),
(508,0,l),
(934,0,l),
(934,250,l),
(929,249,o),
(879,248,o),
(780,248,cs),
(638,248,o),
(602,248,o),
(583,263,cs),
(576,269,o),
(571,273,o),
(571,287,cs),
(571,300,o),
(576,306,o),
(583,312,cs),
(602,327,o),
(679,325,o),
(780,325,cs),
(833,325,o),
(907,323,o),
(918,322,c),
(918,396,l),
(907,395,o),
(833,392,o),
(780,392,cs),
(679,392,o),
(593,392,o),
(579,404,cs),
(573,409,o),
(571,415,o),
(571,423,cs),
(571,431,o),
(573,437,o),
(579,442,cs),
(593,454,o),
(638,455,o),
(780,455,cs),
(879,455,o),
(927,453,o),
(933,452,c),
(934,700,l),
(508,700,l),
(509,622,l),
(464,683,o),
(391,710,o),
(287,710,cs),
(84,710,o),
(3,605,o),
(3,350,cs),
(3,95,o),
(83,-10,o),
(287,-10,cs)
);
},
{
closed = 1;
nodes = (
(120,245,o),
(65,271,o),
(65,350,cs),
(65,429,o),
(120,455,o),
(287,455,cs),
(454,455,o),
(509,429,o),
(509,350,cs),
(509,271,o),
(454,245,o),
(287,245,cs)
);
}
);
};
layerId = m01;
shapes = (
{
closed = 1;
nodes = (
(429,-10,o),
(501,18,o),
(546,79,c),
(546,56,o),
(546,29,o),
(545,0,c),
(1015,0,l),
(1015,249,l),
(885,245,o),
(885,245,o),
(793,245,cs),
(669,245,o),
(633,246,o),
(617,262,cs),
(610,269,o),
(608,278,o),
(608,286,cs),
(608,291,o),
(610,303,o),
(617,310,cs),
(633,324,o),
(669,324,o),
(793,324,cs),
(839,324,o),
(839,324,o),
(978,321,c),
(978,396,l),
(839,393,o),
(839,393,o),
(793,393,cs),
(669,393,o),
(628,394,o),
(615,406,cs),
(610,411,o),
(608,416,o),
(608,424,cs),
(608,432,o),
(610,437,o),
(615,442,cs),
(628,454,o),
(669,455,o),
(793,455,cs),
(880,455,o),
(880,455,o),
(1010,452,c),
(1013,700,l),
(545,700,l),
(546,671,o),
(546,644,o),
(546,621,c),
(501,682,o),
(429,710,o),
(325,710,cs),
(123,710,o),
(42,605,o),
(42,350,cs),
(42,95,o),
(122,-10,o),
(325,-10,cs)
);
},
{
closed = 1;
nodes = (
(112,429,o),
(166,455,o),
(329,455,cs),
(492,455,o),
(546,429,o),
(546,350,cs),
(546,271,o),
(492,245,o),
(329,245,cs),
(166,245,o),
(112,271,o),
(112,350,cs)
);
}
);
width = 1051;
}
);
metricLeft = O;
metricRight = E;
unicode = 338;
},
{
glyphname = P;
kernLeft = KO_H;
kernRight = KO_P;
lastChange = "2024-01-31 17:40:49 +0000";
layers = (
{
anchors = (
{
name = bottom;
pos = (319,0);
},
{
name = center;
pos = (318,381);
},
{
name = hook;
pos = (69,700);
},
{
name = stroke;
pos = (137,381);
},
{
name = top;
pos = (319,700);
}
);
background = {
shapes = (
{
pos = (-1,-12);
ref = R.ss10;
}
);
};
layerId = m01;
shapes = (
{
closed = 1;
nodes = (
(140,0,l),
(135,61,o),
(133,104,o),
(133,135,cs),
(133,178,o),
(138,199,o),
(148,212,cs),
(165,235,o),
(186,245,o),
(337,245,cs),
(534,245,o),
(625,311,o),
(625,472,cs),
(625,620,o),
(541,700,o),
(408,700,cs),
(58,700,l),
(61,381,o),
(61,381,o),
(61,350,cs),
(61,319,o),
(61,319,o),
(58,0,c)
);
},
{
closed = 1;
nodes = (
(242,307,o),
(192,315,o),
(167,325,cs),
(140,336,o),
(131,357,o),
(131,381,cs),
(131,405,o),
(140,426,o),
(167,437,cs),
(192,447,o),
(242,455,o),
(318,455,cs),
(403,455,o),
(453,447,o),
(478,437,cs),
(505,426,o),
(515,405,o),
(515,381,cs),
(515,357,o),
(505,336,o),
(478,325,cs),
(453,315,o),
(403,307,o),
(318,307,cs)
);
}
);
width = 672;
},
{
anchors = (
{
name = bottom;
pos = (319,0);
},
{
name = center;
pos = (324,480);
},
{
name = hook;
pos = (96,700);
},
{
name = stroke;
pos = (110,477);
},
{
name = top;
pos = (286,700);
}
);
layerId = "60D037D9-62E9-4843-B070-F1594CB0B0D1";
shapes = (
{
closed = 1;
nodes = (
(127,0,l),
(123,109,o),
(123,109,o),
(123,157,cs),
(123,204,o),
(124,233,o),
(130,244,cs),
(139,260,o),
(166,260,o),
(310,260,cs),
(461,260,o),
(540,369,o),
(540,477,cs),
(540,610,o),
(461,700,o),
(310,700,cs),
(96,700,l),
(99,461,o),
(99,461,o),
(99,350,cs),
(99,239,o),
(99,239,o),
(95,0,c)
);
},
{
closed = 1;
nodes = (
(169,293,o),
(137,296,o),
(129,307,cs),
(123,315,o),
(122,337,o),
(122,477,cs),
(122,614,o),
(123,636,o),
(129,646,cs),
(137,660,o),
(148,661,o),
(306,661,cs),
(397,661,o),
(447,633,o),
(480,592,cs),
(505,561,o),
(518,522,o),
(518,477,cs),
(518,432,o),
(505,393,o),
(480,362,cs),
(449,324,o),
(405,293,o),
(306,293,cs)
);
}
);
width = 588;
}
);
metricLeft = H;
unicode = 80;
userData = {
KernOnName = P;
};
},
{
glyphname = Thorn;
kernLeft = KO_H;
kernRight = KO_Thorn;
lastChange = "2024-01-26 23:04:17 +0000";
layers = (
{
layerId = "60D037D9-62E9-4843-B070-F1594CB0B0D1";
shapes = (
{
closed = 1;
nodes = (
(126,0,l),
(123,50,o),
(123,50,o),
(123,66,cs),
(123,84,o),
(124,107,o),
(130,118,cs),
(139,134,o),
(166,134,o),
(310,134,cs),
(461,134,o),
(540,243,o),
(540,351,cs),
(540,484,o),
(461,574,o),
(310,574,cs),
(160,574,o),
(140,577,o),
(131,585,cs),
(124,591,o),
(123,607,o),
(123,632,cs),
(123,652,o),
(123,652,o),
(126,700,c),
(95,700,l),
(98,433,o),
(98,433,o),
(98,350,cs),
(98,267,o),
(98,267,o),
(95,0,c)
);
},
{
closed = 1;
nodes = (
(122,488,o),
(123,510,o),
(129,520,cs),
(137,534,o),
(148,535,o),
(306,535,cs),
(397,535,o),
(447,507,o),
(480,466,cs),
(505,435,o),
(518,396,o),
(518,351,cs),
(518,306,o),
(505,267,o),
(480,236,cs),
(449,198,o),
(405,167,o),
(306,167,cs),
(169,167,o),
(137,170,o),
(129,181,cs),
(123,189,o),
(122,211,o),
(122,351,cs)
);
}
);
width = 588;
},
{
background = {
shapes = (
{
closed = 1;
nodes = (
(143,0,l),
(139,54,o),
(141,82,o),
(151,95,cs),
(167,115,o),
(189,125,o),
(379,128,cs),
(537,130,o),
(628,198,o),
(628,355,cs),
(628,503,o),
(547,582,o),
(411,582,cs),
(311,582,ls),
(189,582,o),
(165,589,o),
(149,609,cs),
(139,622,o),
(137,646,o),
(141,700,c),
(58,700,l),
(65,320,o),
(66,447,o),
(60,0,c)
);
},
{
closed = 1;
nodes = (
(134,286,o),
(143,310,o),
(170,322,cs),
(195,332,o),
(245,338,o),
(321,338,cs),
(406,338,o),
(456,332,o),
(481,322,cs),
(508,310,o),
(518,286,o),
(518,264,cs),
(518,244,o),
(508,219,o),
(481,208,cs),
(456,198,o),
(406,190,o),
(321,190,cs),
(245,190,o),
(195,197,o),
(170,208,cs),
(143,218,o),
(134,240,o),
(134,264,cs)
);
}
);
};
layerId = m01;
shapes = (
{
closed = 1;
nodes = (
(143,0,l),
(142,12,o),
(141,26,o),
(141,39,cs),
(141,61,o),
(143,82,o),
(152,95,cs),
(167,118,o),
(192,126,o),
(341,126,cs),
(538,126,o),
(629,192,o),
(629,353,cs),
(629,501,o),
(545,581,o),
(412,581,cs),
(183,581,o),
(168,591,o),
(153,603,cs),
(141,612,o),
(139,636,o),
(139,657,cs),
(139,669,o),
(139,683,o),
(141,700,c),
(58,700,l),
(61,628,o),
(63,414,o),
(63,350,cs),
(63,170,o),
(63,52,o),
(60,0,c)
);
},
{
closed = 1;
nodes = (
(135,286,o),
(144,307,o),
(171,318,cs),
(196,328,o),
(246,336,o),
(322,336,cs),
(407,336,o),
(457,328,o),
(482,318,cs),
(509,307,o),
(519,286,o),
(519,262,cs),
(519,238,o),
(509,217,o),
(482,206,cs),
(457,196,o),
(407,188,o),
(322,188,cs),
(246,188,o),
(196,196,o),
(171,206,cs),
(144,217,o),
(135,238,o),
(135,262,cs)
);
}
);
width = 676;
}
);
metricLeft = P;
metricRight = P;
unicode = 222;
},
{
glyphname = Q;
kernLeft = KO_O;
kernRight = KO_O;
lastChange = "2024-01-23 16:23:27 +0000";
layers = (
{
anchors = (
{
name = bottom;
pos = (300,0);
},
{
name = top;
pos = (300,700);
}
);
background = {
shapes = (
{
ref = O;
}
);
};
layerId = m01;
shapes = (
{
closed = 1;
nodes = (
(621,-16,l),
(611,-21,o),
(549,-50,o),
(496,-50,cs),
(429,-50,o),
(395,-34,o),
(386,-9,c),
(568,6,o),
(652,95,o),
(652,350,cs),
(652,605,o),
(565,710,o),
(347,710,cs),
(129,710,o),
(42,605,o),
(42,350,cs),
(42,95,o),
(128,5,o),
(308,-9,c),
(312,-51,o),
(317,-98,o),
(346,-144,cs),
(382,-201,o),
(452,-233,o),
(517,-233,cs),
(556,-233,o),
(607,-221,o),
(621,-214,c)
);
},
{
closed = 1;
nodes = (
(170,245,o),
(110,271,o),
(110,350,cs),
(110,429,o),
(170,455,o),
(347,455,cs),
(524,455,o),
(584,429,o),
(584,350,cs),
(584,271,o),
(524,245,o),
(347,245,cs)
);
}
);
width = 694;
},
{
anchors = (
{
name = bottom;
pos = (297,0);
},
{
name = top;
pos = (297,700);
}
);
background = {
shapes = (
{
pos = (-17,0);
ref = O;
}
);
};
layerId = "60D037D9-62E9-4843-B070-F1594CB0B0D1";
shapes = (
{
closed = 1;
nodes = (
(553,-110,l),
(529,-120,o),
(496,-127,o),
(471,-127,cs),
(382,-127,o),
(331,-71,o),
(331,-8,c),
(492,-2,o),
(590,111,o),
(590,350,cs),
(590,589,o),
(492,708,o),
(322,708,cs),
(152,708,o),
(54,589,o),
(54,350,cs),
(54,111,o),
(152,-2,o),
(313,-8,c),
(313,-28,o),
(314,-54,o),
(328,-85,cs),
(351,-135,o),
(403,-163,o),
(478,-163,cs),
(498,-163,o),
(520,-162,o),
(553,-154,c)
);
},
{
closed = 1;
nodes = (
(170,31,o),
(76,140,o),
(76,350,cs),
(76,560,o),
(170,669,o),
(322,669,cs),
(474,669,o),
(568,560,o),
(568,350,cs),
(568,140,o),
(474,31,o),
(322,31,cs)
);
}
);
width = 644;
}
);
metricLeft = O;
metricRight = O;
unicode = 81;
},
{
glyphname = Qhooktail;
lastChange = "2024-01-28 23:45:58 +0000";
layers = (
{
layerId = "60D037D9-62E9-4843-B070-F1594CB0B0D1";
shapes = (
{
closed = 1;
nodes = (
(765,-144,l),
(746,-155,o),
(710,-170,o),
(676,-170,cs),
(619,-170,o),
(597,-135,o),
(594,-60,cs),
(588,105,o),
(588,105,o),
(588,350,cs),
(588,454,o),
(591,633,o),
(595,700,c),
(565,700,l),
(568,662,o),
(569,640,o),
(569,603,cs),
(569,571,o),
(568,562,o),
(558,562,cs),
(549,562,o),
(543,570,o),
(519,608,cs),
(483,665,o),
(421,716,o),
(326,716,cs),
(172,716,o),
(54,637,o),
(54,350,cs),
(54,63,o),
(172,-16,o),
(326,-16,cs),
(421,-16,o),
(483,35,o),
(519,92,cs),
(543,130,o),
(549,138,o),
(558,138,cs),
(564,138,o),
(566,133,o),
(566,96,cs),
(566,38,o),
(566,11,o),
(566,-63,cs),
(566,-119,o),
(578,-166,o),
(606,-187,cs),
(626,-202,o),
(649,-207,o),
(675,-207,cs),
(706,-207,o),
(739,-197,o),
(765,-186,c)
);
},
{
closed = 1;
nodes = (
(77,463,o),
(104,551,o),
(142,602,cs),
(187,663,o),
(252,677,o),
(326,677,cs),
(406,677,o),
(459,644,o),
(508,581,cs),
(545,533,o),
(564,463,o),
(564,350,cs),
(564,237,o),
(545,167,o),
(508,119,cs),
(459,56,o),
(406,23,o),
(326,23,cs),
(252,23,o),
(187,37,o),
(142,98,cs),
(104,149,o),
(77,237,o),
(77,350,cs)
);
}
);
width = 741;
},
{
background = {
shapes = (
{
closed = 1;
nodes = (
(107,134,l),
(106,91,o),
(105,55,o),
(104,36,cs),
(100,-27,o),
(57,-34,o),
(28,-34,cs),
(8,-34,o),
(-17,-31,o),
(-48,-24,c),
(-48,-199,l),
(-16,-203,o),
(12,-205,o),
(36,-205,cs),
(90,-205,o),
(138,-180,o),
(159,-140,cs),
(174,-112,o),
(180,-79,o),
(180,-27,cs),
(180,-1,o),
(180,2,o),
(180,134,c)
);
}
);
};
layerId = m01;
shapes = (
{
closed = 1;
nodes = (
(798,-24,l),
(767,-31,o),
(742,-34,o),
(722,-34,cs),
(693,-34,o),
(646,-27,o),
(643,36,cs),
(639,126,o),
(639,260,o),
(639,350,cs),
(639,532,o),
(639,532,o),
(643,700,c),
(565,700,l),
(568,662,o),
(569,631,o),
(569,610,cs),
(569,580,o),
(567,573,o),
(557,573,cs),
(548,573,o),
(536,589,o),
(516,619,cs),
(492,655,o),
(439,710,o),
(320,710,cs),
(124,710,o),
(42,594,o),
(42,350,cs),
(42,106,o),
(124,-10,o),
(320,-10,cs),
(439,-10,o),
(492,45,o),
(516,81,cs),
(536,111,o),
(548,127,o),
(557,127,cs),
(568,127,o),
(570,122,o),
(570,64,cs),
(570,34,o),
(570,3,o),
(570,-27,cs),
(570,-79,o),
(576,-112,o),
(591,-140,cs),
(612,-180,o),
(660,-205,o),
(714,-205,cs),
(738,-205,o),
(766,-203,o),
(798,-199,c)
);
},
{
closed = 1;
nodes = (
(109,395,o),
(129,422,o),
(176,438,cs),
(212,450,o),
(264,455,o),
(342,455,cs),
(414,455,o),
(472,450,o),
(507,438,cs),
(555,422,o),
(575,395,o),
(575,350,cs),
(575,305,o),
(555,278,o),
(507,262,cs),
(472,250,o),
(414,245,o),
(342,245,cs),
(264,245,o),
(212,250,o),
(176,262,cs),
(129,278,o),
(109,305,o),
(109,350,cs)
);
}
);
width = 782;
}
);
metricLeft = O;
metricRight = "=|j";
unicode = 586;
},
{
glyphname = R;
kernLeft = KO_H;
kernRight = KO_R;
lastChange = "2024-01-31 17:56:23 +0000";
layers = (
{
anchors = (
{
name = bottom;
pos = (328,0);
},
{
name = stroke;
pos = (116,315);
},
{
name = top;
pos = (304,700);
}
);
background = {
shapes = (
{
closed = 1;
nodes = (
(126,0,l),
(123,82,o),
(122,186,o),
(122,228,cs),
(122,275,o),
(123,284,o),
(129,289,cs),
(138,296,o),
(169,299,o),
(362,299,c),
(433,50,o),
(459,30,o),
(481,13,cs),
(498,0,o),
(520,-6,o),
(537,-6,cs),
(540,-6,o),
(544,-6,o),
(548,-5,c),
(548,42,l),
(542,40,o),
(536,39,o),
(529,39,cs),
(518,39,o),
(506,42,o),
(494,51,cs),
(465,71,o),
(433,135,o),
(386,301,c),
(477,318,o),
(542,381,o),
(542,501,cs),
(542,626,o),
(455,700,o),
(343,700,cs),
(96,700,l),
(99,461,o),
(99,461,o),
(99,350,cs),
(99,239,o),
(99,239,o),
(96,0,c)
);
},
{
closed = 1;
nodes = (
(153,330,o),
(141,331,o),
(132,338,cs),
(123,345,o),
(120,357,o),
(120,496,cs),
(120,635,o),
(123,647,o),
(132,654,cs),
(141,661,o),
(153,662,o),
(249,662,cs),
(351,662,o),
(377,661,o),
(405,654,cs),
(451,642,o),
(520,604,o),
(520,496,cs),
(520,388,o),
(447,350,o),
(401,338,cs),
(373,331,o),
(337,330,o),
(249,330,cs)
);
},
{
ref = K;
}
);
};
layerId = "60D037D9-62E9-4843-B070-F1594CB0B0D1";
shapes = (
{
closed = 1;
nodes = (
(127,0,l),
(124,82,o),
(122,186,o),
(122,228,cs),
(122,275,o),
(123,284,o),
(129,289,cs),
(138,296,o),
(168,299,o),
(320,299,c),
(398,85,o),
(433,-8,o),
(541,-8,cs),
(565,-8,o),
(578,-4,o),
(589,0,c),
(589,42,l),
(575,36,o),
(556,32,o),
(543,32,cs),
(473,32,o),
(427,63,o),
(345,299,c),
(465,299,o),
(542,377,o),
(542,501,cs),
(542,626,o),
(455,700,o),
(343,700,cs),
(95,700,l),
(99,461,o),
(99,461,o),
(99,350,cs),
(99,239,o),
(99,239,o),
(95,0,c)
);
},
{
closed = 1;
nodes = (
(153,330,o),
(141,331,o),
(132,338,cs),
(123,345,o),
(120,357,o),
(120,496,cs),
(120,635,o),
(123,647,o),
(132,654,cs),
(141,661,o),
(153,662,o),
(249,662,cs),
(351,662,o),
(377,661,o),
(405,654,cs),
(451,642,o),
(520,604,o),
(520,496,cs),
(520,388,o),
(447,350,o),
(401,338,cs),
(373,331,o),
(337,330,o),
(249,330,cs)
);
}
);
width = 596;
},
{
anchors = (
{
name = bottom;
pos = (333,0);
},
{
name = stroke;
pos = (108,303);
},
{
name = top;
pos = (297,700);
}
);
background = {
shapes = (
{
ref = K;
}
);
};
layerId = m01;
shapes = (
{
closed = 1;
nodes = (
(141,0,l),
(138,36,o),
(134,118,o),
(134,152,cs),
(134,196,o),
(138,225,o),
(154,244,cs),
(170,263,o),
(196,268,o),
(234,268,c),
(234,97,o),
(346,-8,o),
(492,-8,cs),
(565,-8,o),
(609,2,o),
(635,13,c),
(635,272,l),
(592,240,o),
(507,215,o),
(433,215,cs),
(371,215,o),
(318,242,o),
(309,269,c),
(514,269,o),
(625,316,o),
(625,472,cs),
(625,640,o),
(541,700,o),
(408,700,cs),
(58,700,l),
(61,461,o),
(61,461,o),
(61,350,cs),
(61,239,o),
(61,239,o),
(58,0,c)
);
},
{
closed = 1;
nodes = (
(242,331,o),
(192,337,o),
(167,345,cs),
(140,354,o),
(131,374,o),
(131,394,cs),
(131,414,o),
(140,434,o),
(167,443,cs),
(192,451,o),
(242,457,o),
(318,457,cs),
(403,457,o),
(454,451,o),
(479,443,cs),
(506,434,o),
(515,414,o),
(515,394,cs),
(515,374,o),
(506,354,o),
(479,345,cs),
(454,337,o),
(403,331,o),
(318,331,cs)
);
}
);
width = 671;
}
);
metricLeft = H;
unicode = 82;
userData = {
KernOnName = R;
};
},
{
glyphname = Rstroke;
kernRight = KO_R;
lastChange = "2024-01-27 15:59:08 +0000";
layers = (
{
layerId = "60D037D9-62E9-4843-B070-F1594CB0B0D1";
shapes = (
{
closed = 1;
nodes = (
(126,0,l),
(123,82,o),
(122,186,o),
(122,228,cs),
(122,275,o),
(123,284,o),
(129,289,cs),
(138,296,o),
(168,299,o),
(320,299,c),
(398,85,o),
(433,-8,o),
(541,-8,cs),
(565,-8,o),
(578,-4,o),
(589,0,c),
(589,42,l),
(575,36,o),
(556,32,o),
(543,32,cs),
(473,32,o),
(427,63,o),
(345,299,c),
(465,299,o),
(542,377,o),
(542,501,cs),
(542,626,o),
(455,700,o),
(343,700,cs),
(96,700,l),
(99,461,o),
(99,461,o),
(99,350,cs),
(99,328,l),
(71,328,o),
(43,328,o),
(15,330,c),
(15,298,l),
(43,300,o),
(71,300,o),
(99,300,c),
(99,232,o),
(99,197,o),
(96,0,c)
);
},
{
closed = 1;
nodes = (
(120,635,o),
(123,647,o),
(132,654,cs),
(141,661,o),
(153,662,o),
(249,662,cs),
(351,662,o),
(377,661,o),
(405,654,cs),
(451,642,o),
(520,604,o),
(520,496,cs),
(520,388,o),
(447,350,o),
(401,338,cs),
(373,331,o),
(337,330,o),
(249,330,cs),
(153,330,o),
(141,331,o),
(132,338,cs),
(123,345,o),
(120,357,o),
(120,496,cs)
);
}
);
width = 596;
},
{
layerId = m01;
shapes = (
{
closed = 1;
nodes = (
(141,0,l),
(138,36,o),
(134,118,o),
(134,152,cs),
(134,196,o),
(138,225,o),
(154,244,cs),
(170,263,o),
(196,268,o),
(234,268,c),
(234,97,o),
(346,-8,o),
(492,-8,cs),
(565,-8,o),
(609,2,o),
(635,13,c),
(635,272,l),
(592,240,o),
(507,215,o),
(433,215,cs),
(371,215,o),
(318,242,o),
(309,269,c),
(514,269,o),
(625,316,o),
(625,472,cs),
(625,640,o),
(541,700,o),
(408,700,cs),
(58,700,l),
(61,461,o),
(61,461,o),
(61,350,cs),
(61,327,l),
(27,327,o),
(-8,327,o),
(-42,329,c),
(-42,277,l),
(-8,279,o),
(26,279,o),
(61,279,c),
(61,222,o),
(61,176,o),
(58,0,c)
);
},
{
closed = 1;
nodes = (
(131,414,o),
(140,434,o),
(167,443,cs),
(192,451,o),
(242,457,o),
(318,457,cs),
(403,457,o),
(454,451,o),
(479,443,cs),
(506,434,o),
(515,414,o),
(515,394,cs),
(515,374,o),
(506,354,o),
(479,345,cs),
(454,337,o),
(403,331,o),
(318,331,cs),
(242,331,o),
(192,337,o),
(167,345,cs),
(140,354,o),
(131,374,o),
(131,394,cs)
);
}
);
width = 671;
}
);
unicode = 588;
},
{
glyphname = Rtail;
kernRight = KO_R;
lastChange = "2024-01-28 20:37:27 +0000";
layers = (
{
layerId = "60D037D9-62E9-4843-B070-F1594CB0B0D1";
shapes = (
{
closed = 1;
nodes = (
(298,-144,l),
(279,-155,o),
(243,-170,o),
(209,-170,cs),
(138,-170,o),
(128,-114,o),
(127,-87,cs),
(123,60,o),
(121,190,o),
(121,228,cs),
(121,275,o),
(123,284,o),
(129,289,cs),
(138,296,o),
(168,299,o),
(320,299,c),
(398,85,o),
(433,-8,o),
(541,-8,cs),
(565,-8,o),
(578,-4,o),
(589,0,c),
(589,42,l),
(575,36,o),
(556,32,o),
(543,32,cs),
(473,32,o),
(427,63,o),
(345,299,c),
(465,299,o),
(542,377,o),
(542,501,cs),
(542,626,o),
(455,700,o),
(343,700,cs),
(95,700,l),
(99,461,o),
(99,461,o),
(99,350,cs),
(99,279,o),
(99,254,o),
(99,-81,cs),
(99,-131,o),
(110,-165,o),
(137,-185,cs),
(157,-200,o),
(182,-207,o),
(208,-207,cs),
(239,-207,o),
(272,-197,o),
(298,-186,c)
);
},
{
closed = 1;
nodes = (
(153,330,o),
(141,331,o),
(132,338,cs),
(123,345,o),
(120,357,o),
(120,496,cs),
(120,635,o),
(123,647,o),
(132,654,cs),
(141,661,o),
(153,662,o),
(249,662,cs),
(351,662,o),
(377,661,o),
(405,654,cs),
(451,642,o),
(520,604,o),
(520,496,cs),
(520,388,o),
(447,350,o),
(401,338,cs),
(373,331,o),
(337,330,o),
(249,330,cs)
);
}
);
width = 596;
},
{
layerId = m01;
shapes = (
{
closed = 1;
nodes = (
(288,-24,l),
(257,-31,o),
(232,-34,o),
(212,-34,cs),
(185,-34,o),
(146,-26,o),
(140,24,cs),
(135,63,o),
(134,144,o),
(134,152,cs),
(134,196,o),
(138,225,o),
(154,244,cs),
(170,263,o),
(196,268,o),
(234,268,c),
(234,97,o),
(346,-8,o),
(492,-8,cs),
(565,-8,o),
(609,2,o),
(635,13,c),
(635,272,l),
(592,240,o),
(507,215,o),
(433,215,cs),
(371,215,o),
(318,242,o),
(309,269,c),
(514,269,o),
(625,316,o),
(625,472,cs),
(625,640,o),
(541,700,o),
(408,700,cs),
(58,700,l),
(61,461,o),
(61,461,o),
(61,350,cs),
(61,239,o),
(61,131,o),
(61,-27,cs),
(61,-79,o),
(66,-112,o),
(81,-140,cs),
(102,-180,o),
(150,-205,o),
(204,-205,cs),
(228,-205,o),
(256,-203,o),
(288,-199,c)
);
},
{
closed = 1;
nodes = (
(242,331,o),
(192,337,o),
(167,345,cs),
(140,354,o),
(131,374,o),
(131,394,cs),
(131,414,o),
(140,434,o),
(167,443,cs),
(192,451,o),
(242,457,o),
(318,457,cs),
(403,457,o),
(454,451,o),
(479,443,cs),
(506,434,o),
(515,414,o),
(515,394,cs),
(515,374,o),
(506,354,o),
(479,345,cs),
(454,337,o),
(403,331,o),
(318,331,cs)
);
}
);
width = 671;
}
);
metricLeft = R;
metricRight = R;
unicode = 11364;
},
{
glyphname = S;
kernLeft = KO_S;
kernRight = KO_S;
lastChange = "2024-01-31 18:06:43 +0000";
layers = (
{
anchors = (
{
name = bottom;
pos = (311,0);
},
{
name = center;
pos = (326,350);
},
{
name = top;
pos = (311,700);
}
);
background = {
shapes = (
{
closed = 1;
nodes = (
(446,-10,o),
(558,54,o),
(558,185,cs),
(558,300,o),
(481,341,o),
(344,381,cs),
(276,401,o),
(235,406,o),
(235,433,cs),
(235,447,o),
(251,457,o),
(307,457,cs),
(362,457,o),
(426,453,o),
(524,427,c),
(524,687,l),
(488,696,o),
(402,710,o),
(327,710,cs),
(164,710,o),
(66,663,o),
(66,532,cs),
(66,424,o),
(149,383,o),
(257,351,cs),
(346,325,o),
(416,312,o),
(416,273,cs),
(416,253,o),
(387,241,o),
(299,241,cs),
(251,241,o),
(129,253,o),
(65,276,c),
(65,13,l),
(101,4,o),
(187,-10,o),
(262,-10,cs)
);
}
);
};
backgroundImage = {
imagePath = "../../../Downloads/IMG_7408.JPG";
locked = 1;
pos = (-859,-1771);
scale = (0.7854,0.7854);
};
layerId = m01;
shapes = (
{
closed = 1;
nodes = (
(101,4,o),
(187,-10,o),
(262,-10,cs),
(446,-10,o),
(558,60,o),
(558,189,cs),
(558,310,o),
(475,353,o),
(317,387,cs),
(243,403,o),
(212,411,o),
(212,432,cs),
(212,447,o),
(228,457,o),
(282,457,cs),
(337,457,o),
(426,453,o),
(524,427,c),
(524,687,l),
(488,696,o),
(402,710,o),
(327,710,cs),
(159,710,o),
(67,653,o),
(67,525,cs),
(67,393,o),
(166,359,o),
(319,327,cs),
(373,316,o),
(421,301,o),
(421,275,cs),
(421,253,o),
(395,240,o),
(327,240,cs),
(233,240,o),
(132,255,o),
(65,276,c),
(65,13,l)
);
}
);
width = 566;
},
{
anchors = (
{
name = bottom;
pos = (258,0);
},
{
name = center;
pos = (264,351);
},
{
name = top;
pos = (258,700);
}
);
background = {
shapes = (
{
pos = (567,0);
ref = C;
scale = (-1,1);
}
);
};
layerId = "60D037D9-62E9-4843-B070-F1594CB0B0D1";
shapes = (
{
closed = 1;
nodes = (
(106,-6,o),
(162,-16,o),
(215,-16,cs),
(362,-16,o),
(454,56,o),
(454,174,cs),
(454,265,o),
(396,329,o),
(265,385,cs),
(136,440,o),
(90,486,o),
(90,549,cs),
(90,628,o),
(157,678,o),
(264,678,cs),
(320,678,o),
(378,665,o),
(418,644,c),
(418,690,l),
(374,706,o),
(321,716,o),
(271,716,cs),
(145,716,o),
(65,652,o),
(65,551,cs),
(65,469,o),
(119,419,o),
(256,360,cs),
(376,308,o),
(427,253,o),
(427,177,cs),
(427,82,o),
(351,23,o),
(230,23,cs),
(169,23,o),
(102,38,o),
(60,59,c),
(60,13,l)
);
}
);
width = 506;
}
);
unicode = 83;
userData = {
KernOnName = S;
};
},
{
glyphname = Germandbls;
lastChange = "2024-01-27 00:09:38 +0000";
layers = (
{
background = {
shapes = (
{
pos = (-58,0);
ref = f;
},
{
pos = (87,0);
ref = s;
}
);
};
layerId = "60D037D9-62E9-4843-B070-F1594CB0B0D1";
shapes = (
{
closed = 1;
nodes = (
(61,0,l),
(57,177,o),
(57,302,o),
(57,393,cs),
(57,510,o),
(69,572,o),
(102,612,cs),
(132,648,o),
(187,677,o),
(268,677,cs),
(383,677,o),
(426,612,o),
(426,592,cs),
(426,583,o),
(420,577,o),
(408,567,cs),
(355,526,o),
(271,463,o),
(212,420,c),
(212,382,l),
(230,382,o),
(248,382,o),
(279,378,cs),
(357,368,o),
(462,327,o),
(462,193,cs),
(462,94,o),
(387,22,o),
(254,22,cs),
(208,22,o),
(170,27,o),
(138,37,c),
(138,-4,l),
(171,-12,o),
(205,-16,o),
(243,-16,cs),
(407,-16,o),
(488,76,o),
(488,194,cs),
(488,379,o),
(320,409,o),
(243,409,c),
(321,466,o),
(372,505,o),
(454,569,c),
(454,641,o),
(388,715,o),
(266,715,cs),
(153,715,o),
(55,656,o),
(42,534,cs),
(36,474,o),
(35,435,o),
(35,395,cs),
(35,263,o),
(35,263,o),
(30,0,c)
);
}
);
width = 536;
},
{
background = {
shapes = (
{
closed = 1;
nodes = (
(484,-7,o),
(577,48,o),
(577,169,cs),
(577,232,o),
(558,262,o),
(537,291,cs),
(516,319,o),
(467,352,o),
(437,363,c),
(461,381,o),
(529,420,o),
(547,468,c),
(547,700,l),
(428,712,o),
(141,764,o),
(81,535,cs),
(66,479,o),
(61,420,o),
(61,395,cs),
(57,0,l),
(136,0,l),
(135,144,o),
(131,233,o),
(133,293,cs),
(135,362,o),
(144,392,o),
(172,419,cs),
(231,475,o),
(404,466,o),
(458,453,c),
(420,394,o),
(354,380,o),
(237,386,c),
(237,326,l),
(299,329,o),
(346,330,o),
(385,325,cs),
(400,323,o),
(435,316,o),
(435,286,cs),
(435,256,o),
(400,247,o),
(385,245,cs),
(338,239,o),
(256,244,o),
(174,270,c),
(174,14,l),
(252,-4,o),
(328,-7,o),
(362,-7,cs)
);
}
);
};
layerId = m01;
shapes = (
{
closed = 1;
nodes = (
(109,0,l),
(106,144,o),
(106,233,o),
(106,293,cs),
(106,362,o),
(123,406,o),
(169,435,cs),
(199,454,o),
(242,462,o),
(291,462,cs),
(340,462,o),
(378,456,o),
(378,447,cs),
(378,444,o),
(378,442,o),
(374,439,cs),
(365,432,o),
(267,396,o),
(240,392,c),
(240,341,l),
(307,341,o),
(340,335,o),
(371,329,cs),
(402,323,o),
(474,308,o),
(474,275,cs),
(474,253,o),
(448,240,o),
(380,240,cs),
(312,240,o),
(240,248,o),
(181,260,c),
(181,0,l),
(220,-6,o),
(270,-10,o),
(315,-10,cs),
(499,-10,o),
(611,60,o),
(611,189,cs),
(611,308,o),
(528,364,o),
(376,384,c),
(441,411,o),
(480,427,o),
(568,455,c),
(568,618,o),
(497,710,o),
(306,710,cs),
(118,710,o),
(71,614,o),
(52,545,cs),
(38,493,o),
(33,441,o),
(33,293,cs),
(33,195,o),
(33,98,o),
(30,0,c)
);
}
);
width = 635;
}
);
metricLeft = f;
metricRight = s;
unicode = 7838;
},
{
glyphname = T;
kernLeft = KO_T;
kernRight = KO_T;
lastChange = "2024-01-31 21:46:23 +0000";
layers = (
{
anchors = (
{
name = bottom;
pos = (286,0);
},
{
name = center;
pos = (286,294);
},
{
name = hook;
pos = (12,700);
},
{
name = top;
pos = (286,700);
}
);
background = {
shapes = (
{
closed = 1;
nodes = (
(329,0,l),
(325,120,o),
(324,281,o),
(324,394,cs),
(324,426,o),
(324,441,o),
(351,447,cs),
(368,451,o),
(401,453,o),
(482,450,cs),
(560,447,l),
(560,699,l),
(12,699,l),
(12,447,l),
(90,450,ls),
(171,453,o),
(204,451,o),
(221,447,cs),
(248,441,o),
(248,426,o),
(248,394,cs),
(248,281,o),
(247,120,o),
(243,0,c)
);
}
);
};
layerId = m01;
shapes = (
{
closed = 1;
nodes = (
(329,0,l),
(325,120,o),
(324,281,o),
(324,394,cs),
(324,426,o),
(324,440,o),
(351,447,cs),
(362,450,o),
(381,451,o),
(416,451,cs),
(434,451,o),
(455,451,o),
(560,447,c),
(560,700,l),
(12,700,l),
(12,447,l),
(117,451,o),
(138,451,o),
(156,451,cs),
(191,451,o),
(210,450,o),
(221,447,cs),
(248,440,o),
(248,426,o),
(248,394,cs),
(248,281,o),
(247,120,o),
(243,0,c)
);
}
);
width = 572;
},
{
anchors = (
{
name = bottom;
pos = (252,0);
},
{
name = center;
pos = (252,350);
},
{
name = hook;
pos = (12,700);
},
{
name = top;
pos = (252,700);
}
);
background = {
shapes = (
{
closed = 1;
nodes = (
(268,0,l),
(265,294,o),
(263,542,o),
(263,604,cs),
(263,636,o),
(265,651,o),
(275,659,cs),
(283,665,o),
(292,667,o),
(423,665,cs),
(491,664,l),
(491,700,l),
(12,700,l),
(12,664,l),
(80,665,ls),
(211,667,o),
(220,665,o),
(228,659,cs),
(238,651,o),
(240,636,o),
(240,604,cs),
(240,542,o),
(239,294,o),
(236,0,c)
);
}
);
};
layerId = "60D037D9-62E9-4843-B070-F1594CB0B0D1";
shapes = (
{
closed = 1;
nodes = (
(269,0,l),
(264,267,o),
(263,542,o),
(263,604,cs),
(263,636,o),
(265,651,o),
(275,659,cs),
(281,664,o),
(287,666,o),
(345,666,cs),
(364,666,o),
(429,666,o),
(491,664,c),
(491,700,l),
(12,700,l),
(12,664,l),
(74,666,o),
(139,666,o),
(158,666,cs),
(216,666,o),
(222,664,o),
(228,659,cs),
(238,651,o),
(240,636,o),
(240,604,cs),
(240,542,o),
(239,267,o),
(235,0,c)
);
}
);
width = 503;
}
);
unicode = 84;
userData = {
KernOnName = T;
};
},
{
glyphname = Tcedilla;
kernLeft = KO_T;
lastChange = "2024-01-28 23:50:05 +0000";
layers = (
{
layerId = "60D037D9-62E9-4843-B070-F1594CB0B0D1";
shapes = (
{
closed = 1;
nodes = (
(219,-173,o),
(236,-175,o),
(254,-175,cs),
(302,-175,o),
(331,-149,o),
(331,-112,cs),
(331,-85,o),
(314,-68,o),
(291,-60,cs),
(281,-57,o),
(269,-55,o),
(258,-55,cs),
(246,-55,o),
(237,-55,o),
(237,-49,cs),
(237,-44,o),
(240,-38,o),
(269,0,c),
(264,267,o),
(263,542,o),
(263,604,cs),
(263,636,o),
(265,651,o),
(275,659,cs),
(281,664,o),
(287,666,o),
(345,666,cs),
(364,666,o),
(429,666,o),
(491,664,c),
(491,700,l),
(12,700,l),
(12,664,l),
(74,666,o),
(139,666,o),
(158,666,cs),
(216,666,o),
(222,664,o),
(228,659,cs),
(238,651,o),
(240,636,o),
(240,604,cs),
(240,542,o),
(239,267,o),
(235,0,c),
(215,-37,o),
(208,-56,o),
(208,-66,cs),
(208,-78,o),
(218,-80,o),
(240,-80,cs),
(282,-80,o),
(302,-90,o),
(302,-108,cs),
(302,-124,o),
(288,-136,o),
(260,-136,cs),
(237,-136,o),
(224,-133,o),
(197,-125,c),
(197,-168,l)
);
}
);
width = 503;
},
{
layerId = m01;
shapes = (
{
closed = 1;
nodes = (
(234,-211,o),
(251,-212,o),
(271,-212,cs),
(349,-212,o),
(396,-163,o),
(396,-111,cs),
(396,-69,o),
(375,-49,o),
(358,-40,cs),
(343,-32,o),
(325,-30,o),
(316,-30,cs),
(301,-30,o),
(299,-30,o),
(299,-25,cs),
(299,-21,o),
(307,-15,o),
(329,0,c),
(325,120,o),
(324,281,o),
(324,394,cs),
(324,426,o),
(324,440,o),
(351,447,cs),
(362,450,o),
(381,451,o),
(416,451,cs),
(434,451,o),
(455,451,o),
(560,447,c),
(560,700,l),
(12,700,l),
(12,447,l),
(117,451,o),
(138,451,o),
(156,451,cs),
(191,451,o),
(210,450,o),
(221,447,cs),
(248,440,o),
(248,426,o),
(248,394,cs),
(248,281,o),
(247,120,o),
(243,0,c),
(232,-17,o),
(224,-32,o),
(224,-46,cs),
(224,-61,o),
(242,-63,o),
(268,-63,cs),
(297,-63,o),
(314,-68,o),
(314,-85,cs),
(314,-99,o),
(300,-113,o),
(260,-113,cs),
(245,-113,o),
(227,-111,o),
(205,-106,c),
(205,-205,l)
);
}
);
width = 572;
}
);
unicode = 354;
},
{
glyphname = Thook;
lastChange = "2024-01-28 23:51:32 +0000";
layers = (
{
layerId = "60D037D9-62E9-4843-B070-F1594CB0B0D1";
shapes = (
{
closed = 1;
nodes = (
(44,592,l),
(44,596,o),
(44,600,o),
(44,604,cs),
(44,619,o),
(46,641,o),
(60,652,cs),
(71,660,o),
(82,666,o),
(121,666,cs),
(217,666,o),
(223,664,o),
(229,659,cs),
(239,651,o),
(241,636,o),
(241,604,cs),
(241,542,o),
(240,294,o),
(237,0,c),
(269,0,l),
(266,294,o),
(264,542,o),
(264,604,cs),
(264,636,o),
(266,651,o),
(276,659,cs),
(282,664,o),
(288,666,o),
(346,666,cs),
(365,666,o),
(430,666,o),
(492,664,c),
(492,700,l),
(121,700,ls),
(56,700,o),
(12,679,o),
(12,611,cs),
(12,605,o),
(12,599,o),
(12,592,c)
);
}
);
width = 504;
},
{
layerId = m01;
shapes = (
{
closed = 1;
nodes = (
(167,350,l),
(165,368,o),
(165,383,o),
(165,401,cs),
(165,424,o),
(172,437,o),
(184,444,cs),
(190,447,o),
(204,451,o),
(230,451,cs),
(258,451,o),
(273,451,o),
(284,447,cs),
(305,440,o),
(307,426,o),
(307,394,cs),
(307,281,o),
(306,120,o),
(302,0,c),
(388,0,l),
(384,120,o),
(383,281,o),
(383,394,cs),
(383,426,o),
(383,440,o),
(410,447,cs),
(421,450,o),
(440,451,o),
(475,451,cs),
(493,451,o),
(514,451,o),
(619,447,c),
(619,700,l),
(230,700,ls),
(91,700,o),
(12,633,o),
(12,484,cs),
(12,424,o),
(13,399,o),
(17,350,c)
);
}
);
width = 631;
}
);
metricLeft = T;
metricRight = T;
unicode = 428;
},
{
glyphname = Tretroflexhook;
kernLeft = KO_T;
lastChange = "2024-01-28 21:05:39 +0000";
layers = (
{
layerId = "60D037D9-62E9-4843-B070-F1594CB0B0D1";
shapes = (
{
closed = 1;
nodes = (
(438,-144,l),
(419,-155,o),
(383,-169,o),
(349,-169,cs),
(280,-169,o),
(268,-114,o),
(267,-87,cs),
(263,43,o),
(263,481,o),
(263,604,cs),
(263,636,o),
(265,651,o),
(275,659,cs),
(281,664,o),
(287,666,o),
(345,666,cs),
(364,666,o),
(429,666,o),
(491,664,c),
(491,700,l),
(12,700,l),
(12,664,l),
(74,666,o),
(139,666,o),
(158,666,cs),
(216,666,o),
(222,664,o),
(228,659,cs),
(238,651,o),
(240,636,o),
(240,604,cs),
(240,383,o),
(240,383,o),
(236,145,cs),
(236,121,o),
(236,121,o),
(236,-81,cs),
(236,-131,o),
(248,-165,o),
(275,-185,cs),
(295,-200,o),
(322,-207,o),
(348,-207,cs),
(379,-207,o),
(412,-197,o),
(438,-186,c)
);
}
);
width = 551;
},
{
layerId = m01;
shapes = (
{
closed = 1;
nodes = (
(477,-24,l),
(446,-31,o),
(422,-34,o),
(402,-34,cs),
(373,-34,o),
(334,-27,o),
(330,36,cs),
(326,100,o),
(324,330,o),
(324,394,cs),
(324,426,o),
(324,440,o),
(351,447,cs),
(362,450,o),
(381,451,o),
(416,451,cs),
(434,451,o),
(455,451,o),
(560,447,c),
(560,700,l),
(12,700,l),
(12,447,l),
(117,451,o),
(138,451,o),
(156,451,cs),
(191,451,o),
(210,450,o),
(221,447,cs),
(248,440,o),
(248,426,o),
(248,394,cs),
(248,343,o),
(248,333,o),
(248,149,cs),
(248,103,o),
(248,47,o),
(248,-24,cs),
(248,-79,o),
(255,-116,o),
(270,-140,cs),
(294,-178,o),
(339,-205,o),
(393,-205,cs),
(417,-205,o),
(445,-203,o),
(477,-199,c)
);
}
);
width = 620;
}
);
unicode = 430;
},
{
glyphname = U;
kernLeft = KO_U;
kernRight = KO_U;
lastChange = "2024-01-31 17:40:49 +0000";
layers = (
{
anchors = (
{
name = bottom;
pos = (313,0);
},
{
name = center;
pos = (313,346);
},
{
name = ogonek;
pos = (392,10);
},
{
name = top;
pos = (323,700);
},
{
name = topright;
pos = (496,700);
}
);
layerId = m01;
shapes = (
{
closed = 1;
nodes = (
(514,-10,o),
(578,59,o),
(578,302,cs),
(578,435,o),
(578,435,o),
(581,700,c),
(496,700,l),
(499,607,o),
(501,514,o),
(501,421,cs),
(501,334,o),
(488,326,o),
(311,326,cs),
(135,326,o),
(122,334,o),
(122,421,cs),
(122,514,o),
(124,607,o),
(127,700,c),
(42,700,l),
(45,440,o),
(45,440,o),
(45,310,cs),
(45,56,o),
(102,-10,o),
(311,-10,cs)
);
}
);
width = 623;
},
{
anchors = (
{
name = bottom;
pos = (292,0);
},
{
name = center;
pos = (292,345);
},
{
name = ogonek;
pos = (375,0);
},
{
name = top;
pos = (292,700);
},
{
name = topright;
pos = (486,700);
}
);
background = {
shapes = (
{
pos = (-7,0);
ref = H;
}
);
};
layerId = "60D037D9-62E9-4843-B070-F1594CB0B0D1";
shapes = (
{
closed = 1;
nodes = (
(479,-11,o),
(513,119,o),
(513,233,cs),
(513,273,o),
(515,516,o),
(519,700,c),
(486,700,l),
(489,538,o),
(490,376,o),
(490,214,cs),
(490,95,o),
(412,28,o),
(292,28,cs),
(172,28,o),
(94,95,o),
(94,214,cs),
(94,376,o),
(95,538,o),
(98,700,c),
(65,700,l),
(69,516,o),
(71,273,o),
(71,233,cs),
(71,115,o),
(107,-11,o),
(292,-11,cs)
);
}
);
width = 584;
}
);
unicode = 85;
userData = {
KernOnName = U;
};
},
{
glyphname = Ubar;
lastChange = "2024-01-26 22:21:32 +0000";
layers = (
{
layerId = "60D037D9-62E9-4843-B070-F1594CB0B0D1";
shapes = (
{
pos = (-4,0);
ref = U;
},
{
closed = 1;
nodes = (
(187,546,o),
(187,546,o),
(288,546,cs),
(389,546,o),
(389,546,o),
(564,543,c),
(564,578,l),
(389,575,o),
(389,575,o),
(288,575,cs),
(187,575,o),
(187,575,o),
(12,578,c),
(12,543,l)
);
}
);
width = 576;
},
{
layerId = m01;
shapes = (
{
pos = (32,0);
ref = U;
},
{
closed = 1;
nodes = (
(123,530,o),
(233,530,o),
(344,530,cs),
(455,530,o),
(565,530,o),
(676,527,c),
(676,581,l),
(565,578,o),
(455,578,o),
(344,578,cs),
(233,578,o),
(123,578,o),
(12,581,c),
(12,527,l)
);
}
);
width = 688;
}
);
metricLeft = T;
metricRight = T;
unicode = 580;
},
{
glyphname = Uhorn;
kernLeft = KO_U;
kernRight = KO_Uhorn;
lastChange = "2024-01-31 21:45:15 +0000";
layers = (
{
anchors = (
{
name = top;
pos = (297,700);
}
);
layerId = "60D037D9-62E9-4843-B070-F1594CB0B0D1";
shapes = (
{
closed = 1;
nodes = (
(479,-11,o),
(513,119,o),
(513,233,cs),
(513,271,o),
(515,494,o),
(518,674,c),
(593,674,o),
(612,704,o),
(612,755,cs),
(612,763,o),
(612,773,o),
(611,784,c),
(579,784,l),
(580,776,o),
(580,769,o),
(580,762,cs),
(580,747,o),
(578,725,o),
(564,714,cs),
(548,702,o),
(533,700,o),
(486,700,c),
(489,538,o),
(490,376,o),
(490,214,cs),
(490,95,o),
(412,28,o),
(292,28,cs),
(172,28,o),
(94,95,o),
(94,214,cs),
(94,376,o),
(95,538,o),
(98,700,c),
(65,700,l),
(69,516,o),
(71,273,o),
(71,233,cs),
(71,115,o),
(107,-11,o),
(292,-11,cs)
);
}
);
width = 624;
},
{
anchors = (
{
name = top;
pos = (311,700);
}
);
layerId = m01;
shapes = (
{
closed = 1;
nodes = (
(514,-10,o),
(578,59,o),
(578,302,cs),
(578,423,o),
(578,434,o),
(581,635,c),
(661,638,o),
(707,682,o),
(721,748,cs),
(726,771,o),
(727,797,o),
(727,824,c),
(592,824,l),
(598,778,o),
(598,778,o),
(598,761,cs),
(598,741,o),
(591,725,o),
(580,716,cs),
(568,706,o),
(545,700,o),
(496,700,c),
(499,607,o),
(501,514,o),
(501,421,cs),
(501,334,o),
(488,326,o),
(311,326,cs),
(135,326,o),
(122,334,o),
(122,421,cs),
(122,514,o),
(124,607,o),
(127,700,c),
(42,700,l),
(45,440,o),
(45,440,o),
(45,310,cs),
(45,56,o),
(102,-10,o),
(311,-10,cs)
);
}
);
width = 739;
}
);
metricLeft = U;
metricRight = T;
unicode = 431;
},
{
glyphname = Uogonek;
kernLeft = KO_U;
kernRight = KO_U;
lastChange = "2024-01-29 00:54:00 +0000";
layers = (
{
anchors = (
{
name = topright;
pos = (486,700);
}
);
layerId = "60D037D9-62E9-4843-B070-F1594CB0B0D1";
shapes = (
{
closed = 1;
nodes = (
(304,-11,o),
(314,-11,o),
(325,-10,c),
(281,-51,o),
(266,-83,o),
(266,-114,cs),
(266,-153,o),
(294,-172,o),
(320,-172,cs),
(338,-172,o),
(356,-166,o),
(375,-156,c),
(375,-126,l),
(359,-133,o),
(344,-138,o),
(327,-138,cs),
(311,-138,o),
(299,-128,o),
(299,-106,cs),
(299,-84,o),
(307,-34,o),
(374,-4,cs),
(484,45,o),
(513,138,o),
(513,233,cs),
(513,273,o),
(515,516,o),
(519,700,c),
(486,700,l),
(489,538,o),
(490,376,o),
(490,214,cs),
(490,95,o),
(412,28,o),
(292,28,cs),
(172,28,o),
(94,95,o),
(94,214,cs),
(94,376,o),
(95,538,o),
(98,700,c),
(65,700,l),
(69,516,o),
(71,273,o),
(71,233,cs),
(71,115,o),
(107,-11,o),
(292,-11,cs)
);
}
);
width = 584;
},
{
anchors = (
{
name = topright;
pos = (496,700);
}
);
layerId = m01;
shapes = (
{
closed = 1;
nodes = (
(328,-10,o),
(345,-9,o),
(360,-8,c),
(327,-42,o),
(312,-76,o),
(312,-115,cs),
(312,-155,o),
(335,-194,o),
(385,-194,cs),
(412,-194,o),
(444,-186,o),
(472,-164,c),
(472,-85,l),
(453,-94,o),
(434,-100,o),
(421,-100,cs),
(400,-100,o),
(393,-89,o),
(393,-77,cs),
(393,-48,o),
(418,-12,o),
(470,16,cs),
(547,58,o),
(578,139,o),
(578,302,cs),
(578,435,o),
(578,435,o),
(581,700,c),
(496,700,l),
(499,607,o),
(501,514,o),
(501,421,cs),
(501,334,o),
(488,326,o),
(311,326,cs),
(135,326,o),
(122,334,o),
(122,421,cs),
(122,514,o),
(124,607,o),
(127,700,c),
(42,700,l),
(45,440,o),
(45,440,o),
(45,310,cs),
(45,56,o),
(102,-10,o),
(311,-10,cs)
);
}
);
width = 623;
}
);
unicode = 370;
},
{
glyphname = "Upsilon-latin";
lastChange = "2024-02-01 16:37:45 +0000";
layers = (
{
background = {
shapes = (
{
closed = 1;
nodes = (
(509,-16,o),
(626,117,o),
(626,322,cs),
(626,489,o),
(534,604,o),
(392,660,c),
(593,661,l),
(593,700,l),
(366,700,l),
(366,659,l),
(523,590,o),
(603,476,o),
(603,322,cs),
(603,158,o),
(490,23,o),
(321,23,cs),
(152,23,o),
(39,158,o),
(39,322,cs),
(39,476,o),
(119,590,o),
(276,659,c),
(276,700,l),
(49,700,l),
(49,661,l),
(250,660,l),
(108,604,o),
(16,489,o),
(16,322,cs),
(16,117,o),
(133,-16,o),
(321,-16,cs)
);
}
);
};
layerId = "60D037D9-62E9-4843-B070-F1594CB0B0D1";
shapes = (
{
closed = 1;
nodes = (
(497,-16,o),
(620,108,o),
(620,341,cs),
(620,514,o),
(525,629,o),
(465,661,c),
(592,661,l),
(592,700,l),
(385,700,l),
(385,661,l),
(509,632,o),
(597,502,o),
(597,332,cs),
(597,139,o),
(479,23,o),
(337,23,cs),
(195,23,o),
(77,139,o),
(77,332,cs),
(77,502,o),
(165,632,o),
(289,661,c),
(289,700,l),
(82,700,l),
(82,661,l),
(209,661,l),
(149,629,o),
(54,514,o),
(54,341,cs),
(54,108,o),
(177,-16,o),
(337,-16,cs)
);
}
);
width = 674;
},
{
background = {
shapes = (
{
pos = (10,0);
ref = O;
}
);
};
layerId = m01;
shapes = (
{
closed = 1;
nodes = (
(547,-10,o),
(663,90,o),
(663,254,cs),
(663,375,o),
(603,433,o),
(592,443,c),
(684,443,l),
(684,700,l),
(430,700,l),
(430,454,l),
(528,448,o),
(570,405,o),
(570,348,cs),
(570,277,o),
(513,245,o),
(363,245,cs),
(213,245,o),
(156,277,o),
(156,348,cs),
(156,405,o),
(198,448,o),
(296,454,c),
(296,700,l),
(42,700,l),
(42,443,l),
(134,443,l),
(126,436,o),
(63,375,o),
(63,254,cs),
(63,90,o),
(179,-10,o),
(363,-10,cs)
);
}
);
width = 726;
}
);
metricLeft = O;
metricRight = O;
unicode = 433;
},
{
glyphname = V;
kernLeft = KO_V;
kernRight = KO_V;
lastChange = "2024-01-31 18:01:09 +0000";
layers = (
{
anchors = (
{
name = bottom;
pos = (323,0);
},
{
name = top;
pos = (323,700);
}
);
layerId = m01;
shapes = (
{
closed = 1;
nodes = (
(524,0,l),
(550,224,o),
(577,452,o),
(616,700,c),
(523,700,l),
(519,623,o),
(508,423,o),
(493,356,cs),
(486,324,o),
(470,319,o),
(323,319,cs),
(176,319,o),
(160,324,o),
(153,356,cs),
(138,423,o),
(127,623,o),
(123,700,c),
(30,700,l),
(69,452,o),
(96,224,o),
(122,0,c)
);
}
);
width = 646;
},
{
anchors = (
{
name = bottom;
pos = (304,0);
},
{
name = top;
pos = (304,700);
}
);
layerId = "60D037D9-62E9-4843-B070-F1594CB0B0D1";
shapes = (
{
closed = 1;
nodes = (
(423,0,l),
(457,232,o),
(504,468,o),
(554,700,c),
(519,700,l),
(483,490,o),
(447,282,o),
(404,70,cs),
(398,39,o),
(390,37,o),
(304,37,cs),
(218,37,o),
(210,39,o),
(204,70,cs),
(161,282,o),
(125,490,o),
(89,700,c),
(54,700,l),
(104,468,o),
(151,232,o),
(185,0,c)
);
}
);
width = 608;
}
);
metricLeft = A;
metricRight = A;
unicode = 86;
userData = {
KernOnName = V;
};
},
{
glyphname = "Gamma-latin";
lastChange = "2024-01-27 00:20:49 +0000";
layers = (
{
background = {
shapes = (
{
ref = V;
}
);
};
guides = (
{
angle = 114.4327;
pos = (208,439);
},
{
angle = 65.5673;
pos = (382,439);
}
);
layerId = "60D037D9-62E9-4843-B070-F1594CB0B0D1";
shapes = (
{
closed = 1;
nodes = (
(174,390,o),
(254,196,o),
(294,101,c),
(232,-29,o),
(212,-71,o),
(212,-107,cs),
(212,-158,o),
(242,-207,o),
(306,-207,cs),
(370,-207,o),
(400,-158,o),
(400,-107,cs),
(400,-71,o),
(380,-29,o),
(318,101,c),
(358,196,o),
(438,390,o),
(557,700,c),
(521,700,l),
(419,417,o),
(344,228,o),
(306,135,c),
(268,228,o),
(193,417,o),
(91,700,c),
(55,700,l)
);
},
{
closed = 1;
nodes = (
(265,-168,o),
(240,-138,o),
(240,-107,cs),
(240,-72,o),
(254,-38,o),
(306,69,c),
(358,-38,o),
(372,-72,o),
(372,-107,cs),
(372,-138,o),
(347,-168,o),
(306,-168,cs)
);
}
);
width = 590;
},
{
background = {
shapes = (
{
pos = (-30,0);
ref = V;
}
);
};
layerId = m01;
shapes = (
{
closed = 1;
nodes = (
(166,368,o),
(213,275,o),
(255,193,c),
(174,39,o),
(141,-25,o),
(141,-76,cs),
(141,-135,o),
(171,-205,o),
(292,-205,cs),
(413,-205,o),
(443,-135,o),
(443,-76,cs),
(443,-25,o),
(410,39,o),
(329,193,c),
(371,275,o),
(418,368,o),
(584,700,c),
(482,700,l),
(381,454,o),
(332,339,o),
(292,256,c),
(229,404,o),
(165,552,o),
(102,700,c),
(0,700,l)
);
},
{
closed = 1;
nodes = (
(278,0,o),
(263,9,o),
(263,31,cs),
(263,52,o),
(274,79,o),
(292,121,c),
(310,79,o),
(321,52,o),
(321,31,cs),
(321,9,o),
(306,0,o),
(292,0,cs)
);
}
);
width = 584;
}
);
unicode = 404;
},
{
glyphname = Vhook;
lastChange = "2024-01-23 16:23:27 +0000";
layers = (
{
background = {
shapes = (
{
closed = 1;
nodes = (
(411,0,l),
(437,188,o),
(467,323,o),
(490,440,cs),
(529,643,o),
(503,700,o),
(388,700,c),
(388,658,l),
(471,668,o),
(491,615,o),
(467,455,cs),
(453,365,o),
(448,339,o),
(391,70,cs),
(384,39,o),
(380,37,o),
(293,37,cs),
(207,37,o),
(201,39,o),
(195,70,cs),
(127,421,o),
(103,506,o),
(77,700,c),
(42,700,l),
(90,468,o),
(143,232,o),
(175,0,c)
);
}
);
};
layerId = "60D037D9-62E9-4843-B070-F1594CB0B0D1";
shapes = (
{
closed = 1;
nodes = (
(489,-11,o),
(557,284,o),
(557,427,cs),
(557,610,o),
(490,709,o),
(351,709,cs),
(347,709,o),
(343,709,o),
(339,709,c),
(339,669,l),
(347,670,o),
(354,670,o),
(362,670,cs),
(464,670,o),
(532,605,o),
(532,426,cs),
(532,224,o),
(427,28,o),
(256,28,cs),
(160,28,o),
(81,95,o),
(81,214,cs),
(81,376,o),
(82,538,o),
(85,700,c),
(54,700,l),
(58,516,o),
(58,273,o),
(58,233,cs),
(58,115,o),
(95,-11,o),
(256,-11,c)
);
}
);
width = 611;
},
{
background = {
shapes = (
{
pos = (1305,0);
ref = Whook;
scale = (-1,1);
},
{
closed = 1;
nodes = (
(316,0,l),
(588,0,o),
(559,370,o),
(573,516,cs),
(588,674,o),
(557,720,o),
(415,710,c),
(415,595,l),
(505,604,o),
(502,570,o),
(499,530,cs),
(496,488,o),
(485,380,o),
(479,356,cs),
(472,324,o),
(456,319,o),
(306,319,cs),
(175,319,o),
(155,323,o),
(150,355,cs),
(137,435,o),
(134,461,o),
(119,700,c),
(20,700,l),
(46,535,o),
(57,449,o),
(109,0,c)
);
},
{
closed = 1;
nodes = (
(588,475,l),
(588,501,o),
(588,528,o),
(588,565,cs),
(588,650,o),
(544,700,o),
(475,715,cs),
(452,720,o),
(426,721,o),
(399,721,c),
(399,586,l),
(445,592,o),
(445,592,o),
(462,592,cs),
(482,592,o),
(498,585,o),
(507,574,cs),
(517,562,o),
(524,540,o),
(524,491,cs),
(524,481,o),
(524,470,o),
(523,457,c)
);
}
);
};
layerId = m01;
shapes = (
{
closed = 1;
nodes = (
(455,-10,o),
(596,177,o),
(596,422,cs),
(596,581,o),
(556,711,o),
(392,711,cs),
(384,711,o),
(377,711,o),
(369,710,c),
(369,554,l),
(385,557,o),
(400,558,o),
(413,558,cs),
(491,558,o),
(525,510,o),
(525,448,cs),
(525,357,o),
(444,319,o),
(299,319,cs),
(123,319,o),
(110,327,o),
(110,421,cs),
(110,514,o),
(112,607,o),
(115,700,c),
(30,700,l),
(33,440,o),
(33,440,o),
(33,310,cs),
(33,56,o),
(90,-10,o),
(261,-10,cs)
);
}
);
width = 638;
}
);
metricLeft = V;
metricRight = O;
unicode = 434;
},
{
glyphname = W;
kernLeft = KO_W;
kernRight = KO_W;
lastChange = "2024-01-31 17:40:49 +0000";
layers = (
{
anchors = (
{
name = bottom;
pos = (423,0);
},
{
name = hook;
pos = (795,700);
},
{
name = top;
pos = (423,700);
}
);
background = {
shapes = (
{
pos = (74,0);
ref = O;
}
);
};
layerId = m01;
shapes = (
{
closed = 1;
nodes = (
(359,0,l),
(376,319,o),
(381,347,o),
(420,347,cs),
(457,347,o),
(462,319,o),
(486,0,c),
(736,0,l),
(744,116,o),
(754,233,o),
(767,350,cs),
(780,467,o),
(796,583,o),
(815,700,c),
(722,700,l),
(718,603,o),
(711,478,o),
(703,411,cs),
(699,377,o),
(692,355,o),
(678,344,cs),
(664,333,o),
(634,331,o),
(614,331,cs),
(594,331,o),
(563,333,o),
(545,348,cs),
(516,372,o),
(513,396,o),
(477,700,c),
(368,700,l),
(332,396,o),
(329,372,o),
(300,348,cs),
(282,333,o),
(251,331,o),
(231,331,cs),
(211,331,o),
(181,333,o),
(167,344,cs),
(153,355,o),
(146,377,o),
(142,411,cs),
(134,478,o),
(127,603,o),
(123,700,c),
(30,700,l),
(49,583,o),
(65,467,o),
(78,350,cs),
(91,233,o),
(101,116,o),
(109,0,c)
);
}
);
width = 845;
},
{
anchors = (
{
name = bottom;
pos = (418,0);
},
{
name = hook;
pos = (782,700);
},
{
name = top;
pos = (418,700);
}
);
background = {
shapes = (
{
closed = 1;
nodes = (
(280,0,l),
(372,529,o),
(372,529,o),
(404,529,cs),
(437,529,o),
(437,529,o),
(529,0,c),
(667,0,l),
(671,116,o),
(681,233,o),
(691,350,cs),
(701,467,o),
(712,583,o),
(726,700,c),
(693,700,l),
(676,493,o),
(665,350,o),
(658,253,cs),
(650,136,o),
(646,81,o),
(643,68,cs),
(637,42,o),
(616,38,o),
(594,38,cs),
(558,38,o),
(546,46,o),
(541,68,cs),
(523,154,o),
(473,442,o),
(452,566,c),
(356,566,l),
(335,442,o),
(286,154,o),
(268,68,cs),
(263,46,o),
(251,38,o),
(215,38,cs),
(193,38,o),
(172,42,o),
(166,68,cs),
(163,81,o),
(159,136,o),
(151,253,cs),
(144,350,o),
(133,493,o),
(117,700,c),
(84,700,l),
(98,583,o),
(108,467,o),
(118,350,cs),
(128,233,o),
(138,116,o),
(142,0,c)
);
}
);
};
layerId = "60D037D9-62E9-4843-B070-F1594CB0B0D1";
shapes = (
{
closed = 1;
nodes = (
(307,0,l),
(383,642,o),
(386,664,o),
(418,664,cs),
(450,664,o),
(453,642,o),
(529,0,c),
(686,0,l),
(705,160,o),
(718,261,o),
(731,355,cs),
(745,457,o),
(759,550,o),
(782,700,c),
(748,700,l),
(722,477,o),
(704,332,o),
(692,237,cs),
(671,66,o),
(669,58,o),
(665,52,cs),
(658,41,o),
(649,39,o),
(606,39,cs),
(567,39,o),
(557,43,o),
(551,52,cs),
(545,60,o),
(542,77,o),
(465,700,c),
(371,700,l),
(294,77,o),
(291,60,o),
(285,52,cs),
(279,43,o),
(269,39,o),
(230,39,cs),
(187,39,o),
(178,41,o),
(171,52,cs),
(167,58,o),
(165,66,o),
(144,235,cs),
(132,330,o),
(114,476,o),
(88,700,c),
(54,700,l),
(77,550,o),
(91,457,o),
(105,355,cs),
(118,261,o),
(131,160,o),
(150,0,c)
);
}
);
width = 836;
}
);
metricLeft = A;
metricRight = A;
unicode = 87;
userData = {
KernOnName = W;
};
},
{
glyphname = Whook;
lastChange = "2024-01-23 16:23:27 +0000";
layers = (
{
background = {
shapes = (
{
closed = 1;
nodes = (
(308,0,l),
(400,529,o),
(400,529,o),
(432,529,cs),
(465,529,o),
(465,529,o),
(557,0,c),
(695,0,l),
(699,116,o),
(729,504,o),
(744,618,cs),
(750,662,o),
(785,676,o),
(850,661,c),
(850,707,l),
(770,717,o),
(723,691,o),
(716,620,cs),
(695,414,o),
(693,350,o),
(686,253,cs),
(678,136,o),
(675,81,o),
(672,68,cs),
(666,42,o),
(644,38,o),
(622,38,cs),
(586,38,o),
(574,46,o),
(569,68,cs),
(551,154,o),
(504,442,o),
(480,566,c),
(384,566,l),
(360,442,o),
(314,154,o),
(296,68,cs),
(291,46,o),
(279,38,o),
(243,38,cs),
(221,38,o),
(199,42,o),
(193,68,cs),
(190,81,o),
(187,136,o),
(179,253,cs),
(172,350,o),
(159,493,o),
(145,700,c),
(112,700,l),
(128,583,o),
(136,467,o),
(146,350,cs),
(156,233,o),
(166,116,o),
(170,0,c)
);
}
);
};
layerId = "60D037D9-62E9-4843-B070-F1594CB0B0D1";
shapes = (
{
alignment = -1;
ref = W;
},
{
pos = (682,0);
ref = _fronthook.part;
}
);
width = 909;
},
{
background = {
shapes = (
{
closed = 1;
nodes = (
(738,486,o),
(733,421,cs),
(730,387,o),
(721,366,o),
(708,354,cs),
(696,343,o),
(664,341,o),
(644,341,cs),
(624,341,o),
(593,343,o),
(575,358,cs),
(546,382,o),
(543,406,o),
(507,700,c),
(398,700,l),
(362,406,o),
(359,382,o),
(330,358,cs),
(312,343,o),
(281,341,o),
(261,341,cs),
(241,341,o),
(209,343,o),
(197,354,cs),
(184,366,o),
(176,387,o),
(172,421,cs),
(164,488,o),
(158,603,o),
(153,700,c),
(60,700,l),
(79,583,o),
(95,467,o),
(108,350,cs),
(121,233,o),
(131,116,o),
(139,0,c),
(389,0,l),
(406,319,o),
(411,347,o),
(450,347,cs),
(487,347,o),
(492,319,o),
(516,0,c),
(766,0,l),
(776,151,o),
(798,385,o),
(817,510,cs),
(821,536,o),
(824,550,o),
(831,558,cs),
(840,569,o),
(856,575,o),
(876,575,cs),
(893,575,o),
(893,575,o),
(939,569,c),
(939,704,l),
(912,708,o),
(886,711,o),
(863,711,cs),
(793,711,o),
(754,679,o),
(743,548,cs),
(738,486,o)
);
}
);
};
layerId = m01;
shapes = (
{
alignment = -1;
ref = W;
},
{
pos = (699,0);
ref = _fronthook.part;
}
);
width = 1022;
}
);
metricLeft = W;
metricRight = T;
unicode = 11378;
},
{
glyphname = X;
kernLeft = KO_X;
kernRight = KO_X;
lastChange = "2024-01-31 17:40:49 +0000";
layers = (
{
anchors = (
{
name = bottom;
pos = (346,0);
},
{
name = top;
pos = (346,700);
}
);
background = {
shapes = (
{
pos = (23,0);
ref = V;
}
);
};
layerId = m01;
shapes = (
{
closed = 1;
nodes = (
(129,0,l),
(157,113,o),
(172,167,o),
(199,192,cs),
(224,215,o),
(258,215,o),
(346,215,cs),
(434,215,o),
(468,215,o),
(493,192,cs),
(520,167,o),
(535,113,o),
(563,0,c),
(662,0,l),
(553,313,o),
(547,331,o),
(547,361,cs),
(547,391,o),
(552,408,o),
(647,700,c),
(548,700,l),
(534,617,o),
(524,560,o),
(497,537,cs),
(477,520,o),
(406,519,o),
(346,519,cs),
(286,519,o),
(215,520,o),
(195,537,cs),
(168,560,o),
(158,617,o),
(144,700,c),
(45,700,l),
(140,408,o),
(145,391,o),
(145,361,cs),
(145,331,o),
(139,313,o),
(30,0,c)
);
}
);
width = 692;
},
{
anchors = (
{
name = bottom;
pos = (317,0);
},
{
name = top;
pos = (317,700);
}
);
layerId = "60D037D9-62E9-4843-B070-F1594CB0B0D1";
shapes = (
{
closed = 1;
nodes = (
(91,0,l),
(168,215,o),
(206,316,o),
(220,330,cs),
(230,340,o),
(241,342,o),
(317,342,cs),
(393,342,o),
(404,340,o),
(414,330,cs),
(428,316,o),
(466,215,o),
(543,0,c),
(580,0,l),
(458,291,o),
(442,331,o),
(442,361,cs),
(442,391,o),
(449,409,o),
(570,700,c),
(534,700,l),
(466,509,o),
(426,405,o),
(417,392,cs),
(409,380,o),
(392,380,o),
(317,380,cs),
(242,380,o),
(225,380,o),
(217,392,cs),
(208,405,o),
(168,509,o),
(100,700,c),
(64,700,l),
(185,409,o),
(192,391,o),
(192,361,cs),
(192,331,o),
(176,291,o),
(54,0,c)
);
}
);
width = 634;
}
);
metricLeft = A;
metricRight = A;
unicode = 88;
userData = {
KernOnName = X;
};
},
{
glyphname = Y;
kernLeft = KO_Y;
kernRight = KO_Y;
lastChange = "2024-01-31 17:59:01 +0000";
layers = (
{
anchors = (
{
name = bottom;
pos = (257,0);
},
{
name = hook;
pos = (558,700);
},
{
name = top;
pos = (305,700);
},
{
name = topleft;
pos = (22,700);
}
);
background = {
shapes = (
{
pos = (-18,0);
ref = V;
}
);
};
layerId = m01;
shapes = (
{
closed = 1;
nodes = (
(76,2,o),
(135,-8,o),
(206,-8,cs),
(295,-8,o),
(380,9,o),
(432,58,cs),
(484,107,o),
(497,189,o),
(503,236,cs),
(520,367,o),
(539,471,o),
(586,700,c),
(504,700,l),
(498,618,o),
(493,563,o),
(481,533,cs),
(468,501,o),
(449,496,o),
(306,496,cs),
(163,496,o),
(144,501,o),
(131,533,cs),
(119,563,o),
(114,618,o),
(108,700,c),
(26,700,l),
(74,471,o),
(88,403,o),
(110,272,c),
(440,272,l),
(431,239,o),
(346,205,o),
(257,205,cs),
(156,205,o),
(73,239,o),
(51,250,c),
(51,10,l)
);
}
);
width = 596;
},
{
anchors = (
{
name = bottom;
pos = (239,0);
},
{
name = hook;
pos = (514,700);
},
{
name = top;
pos = (296,700);
},
{
name = topleft;
pos = (52,700);
}
);
background = {
shapes = (
{
closed = 1;
nodes = (
(85,2,o),
(121,-8,o),
(164,-8,cs),
(206,-8,o),
(248,0,o),
(276,15,cs),
(310,34,o),
(359,52,o),
(415,295,cs),
(422,325,o),
(489,568,o),
(526,700,c),
(493,700,l),
(459,530,o),
(417,390,o),
(406,362,cs),
(396,336,o),
(391,331,o),
(288,331,cs),
(186,331,o),
(180,338,o),
(170,364,cs),
(160,390,o),
(121,530,o),
(87,700,c),
(54,700,l),
(89,568,o),
(113,481,o),
(164,297,c),
(391,297,l),
(355,138,o),
(319,54,o),
(232,34,cs),
(168,19,o),
(93,41,o),
(66,53,c),
(66,7,l)
);
}
);
};
layerId = "60D037D9-62E9-4843-B070-F1594CB0B0D1";
shapes = (
{
closed = 1;
nodes = (
(85,1,o),
(121,-8,o),
(164,-8,cs),
(206,-8,o),
(233,-3,o),
(257,7,cs),
(303,27,o),
(360,53,o),
(415,295,cs),
(422,325,o),
(489,568,o),
(526,700,c),
(490,700,l),
(456,530,o),
(418,390,o),
(408,364,cs),
(398,338,o),
(391,331,o),
(288,331,cs),
(186,331,o),
(180,338,o),
(170,364,cs),
(160,390,o),
(124,530,o),
(90,700,c),
(54,700,l),
(89,568,o),
(113,481,o),
(164,297,c),
(392,297,l),
(359,159,o),
(328,29,o),
(185,29,cs),
(135,29,o),
(87,44,o),
(66,53,c),
(66,7,l)
);
}
);
width = 544;
}
);
unicode = 89;
userData = {
KernOnName = Y;
};
},
{
glyphname = Yhook;
kernLeft = KO_Y;
lastChange = "2024-01-31 17:40:49 +0000";
layers = (
{
background = {
shapes = (
{
closed = 1;
nodes = (
(132,2,o),
(168,-8,o),
(211,-8,cs),
(253,-8,o),
(295,0,o),
(323,15,cs),
(357,33,o),
(406,52,o),
(462,295,cs),
(468,319,o),
(515,490,o),
(551,619,cs),
(564,662,o),
(587,676,o),
(651,661,c),
(651,707,l),
(574,717,o),
(540,695,o),
(522,620,cs),
(501,530,o),
(462,390,o),
(450,362,cs),
(441,335,o),
(443,331,o),
(335,331,cs),
(233,331,o),
(230,328,o),
(220,364,cs),
(196,454,o),
(154,615,o),
(134,700,c),
(101,700,l),
(137,568,o),
(171,481,o),
(211,297,c),
(438,297,l),
(402,138,o),
(366,54,o),
(279,34,cs),
(215,19,o),
(140,41,o),
(113,53,c),
(113,7,l)
);
}
);
};
layerId = "60D037D9-62E9-4843-B070-F1594CB0B0D1";
shapes = (
{
alignment = -1;
ref = Y;
},
{
pos = (414,0);
ref = _fronthook.part;
}
);
width = 641;
},
{
background = {
shapes = (
{
pos = (-228,0);
ref = Whook;
},
{
closed = 1;
nodes = (
(88,2,o),
(147,-8,o),
(218,-8,cs),
(307,-8,o),
(398,9,o),
(450,58,cs),
(501,107,o),
(521,189,o),
(527,236,cs),
(540,335,o),
(540,448,o),
(552,530,cs),
(561,590,o),
(593,606,o),
(662,594,c),
(662,709,l),
(544,717,o),
(509,707,o),
(494,589,cs),
(492,573,o),
(491,557,o),
(488,537,cs),
(483,502,o),
(450,496,o),
(317,496,cs),
(174,496,o),
(151,502,o),
(146,537,cs),
(139,591,o),
(137,618,o),
(132,700,c),
(42,700,l),
(81,471,o),
(96,403,o),
(116,272,c),
(454,272,l),
(445,239,o),
(361,205,o),
(269,205,cs),
(168,205,o),
(85,239,o),
(63,250,c),
(63,10,l)
);
}
);
};
layerId = m01;
shapes = (
{
alignment = -1;
ref = Y;
},
{
pos = (462,0);
ref = _fronthook.part;
}
);
width = 785;
}
);
metricRight = T;
unicode = 435;
userData = {
KernOnName = Yhook;
};
},
{
glyphname = Ystroke;
lastChange = "2024-01-23 19:00:58 +0000";
layers = (
{
layerId = "60D037D9-62E9-4843-B070-F1594CB0B0D1";
shapes = (
{
closed = 1;
nodes = (
(253,-8,o),
(280,-3,o),
(304,7,cs),
(350,27,o),
(406,52,o),
(462,295,cs),
(467,315,o),
(499,435,o),
(531,551,c),
(606,550,l),
(606,581,l),
(540,580,l),
(573,700,l),
(540,700,l),
(532,658,o),
(523,617,o),
(514,580,c),
(396,580,o),
(278,580,o),
(160,580,c),
(134,700,l),
(101,700,l),
(133,580,l),
(54,581,l),
(54,550,l),
(141,551,l),
(164,466,o),
(188,382,o),
(211,297,c),
(438,297,l),
(407,159,o),
(375,29,o),
(232,29,cs),
(182,29,o),
(134,44,o),
(113,53,c),
(113,7,l),
(132,1,o),
(168,-8,o),
(211,-8,cs)
);
},
{
closed = 1;
nodes = (
(233,331,o),
(227,338,o),
(217,364,cs),
(210,382,o),
(190,453,o),
(167,551,c),
(280,551,o),
(394,551,o),
(507,551,c),
(483,453,o),
(461,381,o),
(453,362,cs),
(443,336,o),
(438,331,o),
(335,331,cs)
);
}
);
width = 618;
},
{
layerId = m01;
shapes = (
{
closed = 1;
nodes = (
(330,-8,o),
(415,9,o),
(467,58,cs),
(519,107,o),
(532,189,o),
(538,236,cs),
(551,339,o),
(566,425,o),
(594,567,c),
(683,566,l),
(683,633,l),
(607,632,l),
(621,700,l),
(539,700,l),
(537,677,o),
(535,654,o),
(533,631,c),
(405,630,o),
(278,631,o),
(149,632,c),
(143,700,l),
(61,700,l),
(75,632,l),
(26,633,l),
(26,566,l),
(89,567,l),
(116,437,o),
(128,373,o),
(145,272,c),
(475,272,l),
(466,239,o),
(381,205,o),
(292,205,cs),
(191,205,o),
(108,239,o),
(86,250,c),
(86,10,l),
(111,2,o),
(170,-8,o),
(241,-8,cs)
);
},
{
closed = 1;
nodes = (
(198,496,o),
(179,501,o),
(166,533,cs),
(162,542,o),
(159,554,o),
(157,567,c),
(280,568,o),
(403,569,o),
(525,568,c),
(523,554,o),
(520,542,o),
(516,533,cs),
(503,501,o),
(484,496,o),
(341,496,cs)
);
}
);
width = 695;
}
);
metricLeft = Y;
metricRight = T;
unicode = 590;
},
{
glyphname = Z;
kernLeft = KO_Z;
kernRight = KO_Z;
lastChange = "2024-02-02 13:15:05 +0000";
layers = (
{
anchors = (
{
name = bottom;
pos = (300,0);
},
{
name = center;
pos = (279,344);
},
{
name = top;
pos = (299,700);
}
);
background = {
shapes = (
{
closed = 1;
nodes = (
(557,0,l),
(557,260,l),
(483,260,o),
(445,260,o),
(373,260,cs),
(242,260,o),
(231,260,o),
(231,270,cs),
(231,277,o),
(234,280,o),
(253,290,cs),
(303,316,o),
(452,403,o),
(540,455,c),
(540,700,l),
(56,700,l),
(56,440,l),
(130,440,o),
(186,440,o),
(258,440,cs),
(357,440,o),
(367,439,o),
(367,431,cs),
(367,424,o),
(364,421,o),
(345,411,cs),
(295,384,o),
(122,289,o),
(42,245,c),
(42,0,l)
);
},
{
closed = 1;
nodes = (
(557,0,l),
(557,235,l),
(483,235,o),
(445,235,o),
(373,235,cs),
(212,235,o),
(201,235,o),
(201,245,cs),
(201,252,o),
(201,255,o),
(222,269,cs),
(270,302,o),
(460,428,o),
(540,480,c),
(540,700,l),
(56,700,l),
(56,465,l),
(130,465,o),
(186,465,o),
(258,465,cs),
(377,465,o),
(387,464,o),
(387,456,cs),
(387,449,o),
(387,446,o),
(367,433,cs),
(317,399,o),
(122,272,o),
(42,220,c),
(42,0,l)
);
}
);
};
layerId = m01;
shapes = (
{
closed = 1;
nodes = (
(557,0,l),
(557,235,l),
(483,235,o),
(445,235,o),
(373,235,cs),
(222,235,o),
(211,235,o),
(211,245,cs),
(211,252,o),
(211,254,o),
(232,269,cs),
(280,303,o),
(460,428,o),
(540,480,c),
(540,700,l),
(56,700,l),
(56,465,l),
(130,465,o),
(186,465,o),
(258,465,cs),
(367,465,o),
(377,464,o),
(377,456,cs),
(377,453,o),
(377,451,o),
(375,448,cs),
(373,445,o),
(368,441,o),
(357,433,cs),
(307,398,o),
(122,272,o),
(42,220,c),
(42,0,l)
);
}
);
width = 599;
},
{
anchors = (
{
name = bottom;
pos = (271,0);
},
{
name = center;
pos = (270,350);
},
{
name = top;
pos = (271,700);
}
);
background = {
shapes = (
{
pos = (-4,0);
ref = E;
},
{
closed = 1;
nodes = (
(504,0,l),
(504,36,l),
(366,36,o),
(301,36,o),
(228,36,cs),
(81,36,o),
(81,36,o),
(81,67,cs),
(81,88,o),
(82,90,o),
(120,138,cs),
(161,190,o),
(393,480,o),
(488,597,c),
(488,700,l),
(76,700,l),
(76,664,l),
(214,664,o),
(239,664,o),
(312,664,cs),
(460,664,o),
(460,664,o),
(460,633,cs),
(460,609,o),
(459,607,o),
(421,559,cs),
(380,507,o),
(148,220,o),
(53,103,c),
(53,0,l)
);
},
{
closed = 1;
nodes = (
(504,0,l),
(504,36,l),
(366,36,o),
(301,36,o),
(228,36,cs),
(107,36,o),
(104,36,o),
(104,49,cs),
(104,58,o),
(107,64,o),
(140,116,cs),
(173,169,o),
(413,554,o),
(488,674,c),
(488,700,l),
(76,700,l),
(76,664,l),
(214,664,o),
(239,664,o),
(312,664,cs),
(434,664,o),
(437,664,o),
(437,651,cs),
(437,642,o),
(434,636,o),
(401,582,cs),
(368,528,o),
(127,143,o),
(53,26,c),
(53,0,l)
);
}
);
};
layerId = "60D037D9-62E9-4843-B070-F1594CB0B0D1";
shapes = (
{
closed = 1;
nodes = (
(508,0,l),
(508,36,l),
(370,36,o),
(306,36,o),
(233,36,cs),
(87,36,o),
(85,36,o),
(85,78,cs),
(85,120,o),
(87,127,o),
(124,169,cs),
(174,225,o),
(398,469,o),
(489,568,c),
(489,700,l),
(64,700,l),
(64,664,l),
(202,664,o),
(241,664,o),
(316,664,cs),
(454,664,o),
(458,664,o),
(458,626,cs),
(458,602,o),
(458,589,o),
(453,577,cs),
(448,566,o),
(440,555,o),
(424,537,cs),
(370,474,o),
(145,229,o),
(54,130,c),
(54,0,l)
);
}
);
width = 562;
}
);
metricLeft = O;
metricRight = O;
unicode = 90;
userData = {
KernOnName = Z;
};
},
{
glyphname = Zstroke;
lastChange = "2024-01-27 00:31:08 +0000";
layers = (
{
layerId = "60D037D9-62E9-4843-B070-F1594CB0B0D1";
shapes = (
{
ref = Z;
},
{
closed = 1;
nodes = (
(191,336,o),
(231,336,o),
(271,336,cs),
(312,336,o),
(353,336,o),
(393,334,c),
(393,366,l),
(353,364,o),
(312,364,o),
(271,364,cs),
(231,364,o),
(191,364,o),
(151,366,c),
(151,334,l)
);
}
);
width = 559;
},
{
layerId = m01;
shapes = (
{
ref = Z;
},
{
closed = 1;
nodes = (
(170,323,o),
(232,323,o),
(292,323,cs),
(352,323,o),
(412,323,o),
(473,321,c),
(473,373,l),
(414,371,o),
(352,371,o),
(292,371,cs),
(232,371,o),
(172,371,o),
(111,373,c),
(111,321,l)
);
}
);
width = 599;
}
);
unicode = 437;
},
{
glyphname = Saltillo;
lastChange = "2024-01-28 21:03:05 +0000";
layers = (
{
layerId = "60D037D9-62E9-4843-B070-F1594CB0B0D1";
shapes = (
{
closed = 1;
nodes = (
(175,390,l),
(184,740,l),
(148,740,l),
(156,390,l)
);
}
);
width = 331;
},
{
layerId = m01;
shapes = (
{
closed = 1;
nodes = (
(184,289,l),
(197,744,l),
(110,744,l),
(123,289,l)
);
}
);
width = 307;
}
);
unicode = 42891;
},
{
glyphname = Ismall;
lastChange = "2024-01-23 16:23:27 +0000";
layers = (
{
layerId = "60D037D9-62E9-4843-B070-F1594CB0B0D1";
shapes = (
{
closed = 1;
nodes = (
(72,0,l),
(313,0,l),
(313,36,l),
(232,36,o),
(223,36,o),
(215,42,cs),
(207,49,o),
(204,57,o),
(204,239,cs),
(204,386,o),
(202,427,o),
(216,438,cs),
(224,444,o),
(233,444,o),
(314,444,c),
(314,480,l),
(72,480,l),
(72,444,l),
(153,444,o),
(162,444,o),
(170,438,cs),
(184,427,o),
(182,386,o),
(182,239,cs),
(182,57,o),
(178,49,o),
(170,42,cs),
(162,36,o),
(153,36,o),
(72,36,c)
);
}
);
width = 386;
},
{
layerId = m01;
shapes = (
{
closed = 1;
nodes = (
(42,0,l),
(433,0,l),
(433,150,l),
(344,148,o),
(313,150,o),
(297,161,cs),
(277,174,o),
(273,189,o),
(273,250,cs),
(273,310,o),
(277,326,o),
(297,339,cs),
(313,350,o),
(344,352,o),
(433,350,c),
(433,500,l),
(42,500,l),
(42,350,l),
(131,352,o),
(162,350,o),
(178,339,cs),
(198,326,o),
(202,310,o),
(202,250,cs),
(202,189,o),
(198,174,o),
(178,161,cs),
(162,150,o),
(131,148,o),
(42,150,c)
);
}
);
width = 475;
}
);
unicode = 618;
},
{
glyphname = a;
kernLeft = KO_a;
kernRight = KO_a;
lastChange = "2024-01-31 22:04:43 +0000";
layers = (
{
anchors = (
{
name = bottom;
pos = (274,0);
},
{
name = center;
pos = (266,245);
},
{
name = ogonek;
pos = (507,0);
},
{
name = top;
pos = (274,530);
}
);
background = {
shapes = (
{
pos = (-9,0);
ref = o;
}
);
};
layerId = m01;
shapes = (
{
closed = 1;
nodes = (
(337,-8,o),
(374,27,o),
(397,58,cs),
(414,81,o),
(422,91,o),
(429,91,cs),
(439,91,o),
(439,81,o),
(439,64,cs),
(439,49,o),
(437,24,o),
(435,0,c),
(507,0,l),
(506,29,o),
(505,169,o),
(505,245,cs),
(505,321,o),
(506,471,o),
(507,500,c),
(435,500,l),
(437,476,o),
(439,451,o),
(439,436,cs),
(439,419,o),
(439,409,o),
(429,409,cs),
(422,409,o),
(414,419,o),
(397,442,cs),
(374,473,o),
(337,508,o),
(241,508,cs),
(95,508,o),
(30,421,o),
(30,245,cs),
(30,69,o),
(95,-8,o),
(241,-8,cs)
);
},
{
closed = 1;
nodes = (
(145,178,o),
(90,194,o),
(90,245,cs),
(90,296,o),
(145,314,o),
(266,314,cs),
(393,314,o),
(441,296,o),
(441,245,cs),
(441,194,o),
(393,178,o),
(266,178,cs)
);
}
);
width = 543;
},
{
anchors = (
{
name = bottom;
pos = (265,0);
},
{
name = center;
pos = (265,245);
},
{
name = ogonek;
pos = (471,0);
},
{
name = top;
pos = (265,520);
}
);
background = {
shapes = (
{
ref = o;
}
);
};
layerId = "60D037D9-62E9-4843-B070-F1594CB0B0D1";
shapes = (
{
closed = 1;
nodes = (
(348,-16,o),
(393,32,o),
(413,62,cs),
(427,83,o),
(430,87,o),
(437,87,cs),
(444,87,o),
(444,80,o),
(444,53,cs),
(444,38,o),
(443,19,o),
(442,0,c),
(471,0,l),
(467,176,o),
(467,177,o),
(467,240,cs),
(467,303,o),
(467,304,o),
(471,480,c),
(442,480,l),
(443,461,o),
(444,442,o),
(444,430,cs),
(444,400,o),
(444,393,o),
(437,393,cs),
(430,393,o),
(427,397,o),
(413,418,cs),
(393,448,o),
(348,496,o),
(257,496,cs),
(132,496,o),
(54,400,o),
(54,240,cs),
(54,80,o),
(132,-16,o),
(257,-16,cs)
);
},
{
closed = 1;
nodes = (
(138,21,o),
(75,104,o),
(75,240,cs),
(75,376,o),
(138,459,o),
(257,459,cs),
(377,459,o),
(447,384,o),
(447,240,cs),
(447,96,o),
(377,21,o),
(257,21,cs)
);
}
);
width = 554;
}
);
metricLeft = o;
metricRight = n;
unicode = 97;
userData = {
KernOnName = a;
};
},
{
glyphname = "alpha-latin";
lastChange = "2024-01-25 12:48:30 +0000";
layers = (
{
anchors = (
{
name = bottom;
pos = (271,0);
},
{
name = ogonek;
pos = (496,0);
},
{
name = top;
pos = (271,480);
}
);
layerId = "60D037D9-62E9-4843-B070-F1594CB0B0D1";
shapes = (
{
closed = 1;
nodes = (
(349,-16,o),
(398,33,o),
(419,62,cs),
(434,83,o),
(436,87,o),
(443,87,cs),
(450,87,o),
(450,80,o),
(450,53,cs),
(450,-12,o),
(480,-14,o),
(505,-8,c),
(505,27,l),
(477,22,o),
(472,27,o),
(470,73,cs),
(467,351,o),
(472,375,o),
(476,480,c),
(449,480,l),
(450,458,o),
(450,442,o),
(450,430,cs),
(450,400,o),
(450,393,o),
(443,393,cs),
(436,393,o),
(434,397,o),
(419,418,cs),
(398,447,o),
(354,496,o),
(263,496,cs),
(138,496,o),
(60,400,o),
(60,240,cs),
(60,80,o),
(138,-16,o),
(263,-16,cs)
);
},
{
closed = 1;
nodes = (
(81,376,o),
(144,459,o),
(263,459,cs),
(383,459,o),
(453,384,o),
(453,240,cs),
(453,96,o),
(383,21,o),
(263,21,cs),
(144,21,o),
(81,104,o),
(81,240,cs)
);
}
);
width = 562;
},
{
anchors = (
{
name = bottom;
pos = (273,0);
},
{
name = ogonek;
pos = (539,2);
},
{
name = top;
pos = (273,500);
}
);
layerId = m01;
shapes = (
{
closed = 1;
nodes = (
(337,-8,o),
(373,28,o),
(397,58,cs),
(416,81,o),
(422,91,o),
(429,91,cs),
(436,91,o),
(437,87,o),
(439,79,c),
(443,1,o),
(488,-7,o),
(559,1,c),
(559,91,l),
(541,81,o),
(505,83,o),
(505,120,cs),
(505,248,o),
(505,347,o),
(507,500,c),
(435,500,l),
(437,475,o),
(439,451,o),
(439,436,cs),
(439,419,o),
(439,409,o),
(429,409,cs),
(422,409,o),
(416,419,o),
(397,442,cs),
(373,472,o),
(337,508,o),
(241,508,cs),
(95,508,o),
(30,426,o),
(30,250,cs),
(30,74,o),
(95,-8,o),
(241,-8,cs)
);
},
{
closed = 1;
nodes = (
(90,301,o),
(145,319,o),
(266,319,cs),
(393,319,o),
(441,301,o),
(441,250,cs),
(441,199,o),
(393,183,o),
(266,183,cs),
(145,183,o),
(90,199,o),
(90,250,cs)
);
}
);
width = 543;
}
);
unicode = 593;
},
{
glyphname = ae;
kernLeft = KO_ae;
kernRight = KO_e;
lastChange = "2024-01-29 13:15:20 +0000";
layers = (
{
anchors = (
{
name = bottom;
pos = (427,0);
},
{
name = top;
pos = (427,520);
}
);
layerId = "60D037D9-62E9-4843-B070-F1594CB0B0D1";
shapes = (
{
closed = 1;
nodes = (
(296,-16,o),
(357,21,o),
(388,71,cs),
(405,98,o),
(415,125,o),
(422,156,c),
(447,43,o),
(521,-16,o),
(638,-16,cs),
(687,-16,o),
(729,-9,o),
(776,5,c),
(776,45,l),
(720,27,o),
(680,20,o),
(634,20,cs),
(497,20,o),
(432,96,o),
(432,252,c),
(806,252,l),
(806,416,o),
(742,496,o),
(610,496,cs),
(525,496,o),
(456,444,o),
(428,358,c),
(412,456,o),
(359,496,o),
(237,496,cs),
(200,496,o),
(150,489,o),
(106,478,c),
(106,438,l),
(157,452,o),
(200,459,o),
(240,459,cs),
(369,459,o),
(413,413,o),
(413,279,c),
(302,279,o),
(220,275,o),
(164,262,cs),
(91,245,o),
(54,196,o),
(54,129,cs),
(54,37,o),
(115,-16,o),
(223,-16,cs)
);
},
{
closed = 1;
nodes = (
(127,20,o),
(76,62,o),
(76,129,cs),
(76,198,o),
(126,227,o),
(167,238,cs),
(199,247,o),
(285,252,o),
(412,252,c),
(412,96,o),
(348,20,o),
(220,20,cs)
);
},
{
closed = 1;
nodes = (
(441,387,o),
(512,459,o),
(610,459,cs),
(721,459,o),
(785,394,o),
(785,279,c),
(433,279,l)
);
}
);
width = 842;
},
{
anchors = (
{
name = bottom;
pos = (419,0);
},
{
name = top;
pos = (440,520);
}
);
layerId = m01;
shapes = (
{
closed = 1;
nodes = (
(307,-8,o),
(356,13,o),
(406,64,cs),
(418,76,o),
(428,91,o),
(437,108,c),
(477,30,o),
(560,-8,o),
(690,-8,cs),
(750,-8,o),
(788,-3,o),
(834,11,c),
(834,203,l),
(755,185,o),
(704,178,o),
(645,178,cs),
(539,178,o),
(487,193,o),
(471,230,c),
(845,230,l),
(845,436,o),
(789,508,o),
(626,508,cs),
(549,508,o),
(488,477,o),
(450,418,c),
(419,482,o),
(356,508,o),
(226,508,cs),
(172,508,o),
(111,499,o),
(58,484,c),
(58,325,l),
(107,346,o),
(190,363,o),
(244,363,cs),
(343,363,o),
(394,339,o),
(406,285,c),
(285,285,o),
(201,285,o),
(145,274,cs),
(55,257,o),
(30,209,o),
(30,151,cs),
(30,51,o),
(106,-8,o),
(236,-8,cs)
);
},
{
closed = 1;
nodes = (
(172,166,o),
(133,177,o),
(133,201,cs),
(133,220,o),
(174,230,o),
(246,230,cs),
(297,230,o),
(365,230,o),
(406,230,c),
(406,201,o),
(344,166,o),
(242,166,cs)
);
},
{
closed = 1;
nodes = (
(477,317,o),
(540,343,o),
(626,343,cs),
(717,343,o),
(780,317,o),
(780,285,c),
(477,285,l)
);
}
);
width = 877;
}
);
metricLeft = a;
metricRight = e;
unicode = 230;
},
{
glyphname = b;
kernLeft = KO_h;
kernRight = KO_b;
lastChange = "2024-01-31 17:40:49 +0000";
layers = (
{
anchors = (
{
name = bottom;
pos = (289,0);
},
{
name = center;
pos = (87,585);
},
{
name = top;
pos = (311,530);
}
);
layerId = m01;
shapes = (
{
closed = 1;
nodes = (
(462,-8,o),
(527,74,o),
(527,250,cs),
(527,426,o),
(462,508,o),
(316,508,cs),
(220,508,o),
(183,473,o),
(160,442,cs),
(143,419,o),
(135,409,o),
(128,409,cs),
(118,409,o),
(118,419,o),
(118,436,cs),
(118,451,o),
(119,525,o),
(122,740,c),
(50,740,l),
(53,401,o),
(53,401,o),
(53,370,cs),
(53,339,o),
(53,339,o),
(50,0,c),
(122,0,l),
(120,24,o),
(118,49,o),
(118,64,cs),
(118,81,o),
(118,91,o),
(128,91,cs),
(135,91,o),
(143,81,o),
(160,58,cs),
(183,27,o),
(220,-8,o),
(316,-8,cs)
);
},
{
closed = 1;
nodes = (
(164,183,o),
(116,199,o),
(116,250,cs),
(116,301,o),
(164,319,o),
(291,319,cs),
(412,319,o),
(467,301,o),
(467,250,cs),
(467,199,o),
(412,183,o),
(291,183,cs)
);
}
);
width = 557;
},
{
anchors = (
{
name = bottom;
pos = (303,0);
},
{
name = center;
pos = (110,590);
},
{
name = top;
pos = (294,520);
}
);
layerId = "60D037D9-62E9-4843-B070-F1594CB0B0D1";
shapes = (
{
closed = 1;
nodes = (
(434,-16,o),
(512,80,o),
(512,240,cs),
(512,400,o),
(434,496,o),
(309,496,cs),
(218,496,o),
(173,448,o),
(153,418,cs),
(139,397,o),
(136,393,o),
(129,393,cs),
(122,393,o),
(122,400,o),
(122,427,cs),
(122,519,o),
(123,711,o),
(124,740,c),
(95,740,l),
(98,565,o),
(99,473,o),
(99,373,cs),
(99,273,o),
(98,175,o),
(95,0,c),
(124,0,l),
(123,19,o),
(122,38,o),
(122,53,cs),
(122,80,o),
(122,87,o),
(129,87,cs),
(136,87,o),
(139,83,o),
(153,62,cs),
(173,32,o),
(218,-16,o),
(309,-16,cs)
);
},
{
closed = 1;
nodes = (
(189,21,o),
(119,96,o),
(119,240,cs),
(119,384,o),
(189,459,o),
(309,459,cs),
(428,459,o),
(491,376,o),
(491,240,cs),
(491,104,o),
(428,21,o),
(309,21,cs)
);
}
);
width = 566;
}
);
metricLeft = n;
metricRight = o;
unicode = 98;
userData = {
KernOnName = b;
};
},
{
glyphname = "beta-latin";
lastChange = "2024-01-29 03:31:58 +0000";
layers = (
{
background = {
shapes = (
{
closed = 1;
nodes = (
(123,-152,l),
(123,13,l),
(198,-7,o),
(281,-7,o),
(319,-7,cs),
(464,-7,o),
(515,95,o),
(515,172,cs),
(515,235,o),
(496,268,o),
(475,297,cs),
(450,331,o),
(418,347,o),
(418,363,cs),
(418,384,o),
(444,393,o),
(467,425,cs),
(488,454,o),
(504,481,o),
(504,541,cs),
(504,683,o),
(397,734,o),
(318,734,cs),
(213,734,o),
(148,693,o),
(114,599,cs),
(96,548,o),
(97,420,o),
(97,395,cs),
(93,-152,l)
);
},
{
closed = 1;
nodes = (
(252,23,o),
(180,32,o),
(123,55,c),
(123,201,o),
(123,348,o),
(123,494,cs),
(123,603,o),
(194,702,o),
(310,702,cs),
(386,702,o),
(480,655,o),
(480,547,cs),
(480,444,o),
(430,381,o),
(327,381,cs),
(298,381,o),
(265,383,o),
(224,386,c),
(224,346,l),
(259,348,o),
(291,351,o),
(319,351,cs),
(429,351,o),
(487,270,o),
(487,180,cs),
(487,74,o),
(418,23,o),
(308,23,cs)
);
}
);
};
layerId = "60D037D9-62E9-4843-B070-F1594CB0B0D1";
shapes = (
{
closed = 1;
nodes = (
(125,-207,l),
(124,-178,o),
(124,-48,o),
(124,4,c),
(163,-9,o),
(207,-16,o),
(256,-16,cs),
(420,-16,o),
(500,71,o),
(500,189,cs),
(500,261,o),
(465,324,o),
(395,357,cs),
(384,362,o),
(376,366,o),
(376,370,cs),
(376,373,o),
(381,377,o),
(395,386,cs),
(452,423,o),
(478,481,o),
(478,538,cs),
(478,644,o),
(398,716,o),
(294,716,cs),
(225,716,o),
(177,693,o),
(146,652,cs),
(100,591,o),
(100,475,o),
(100,307,cs),
(100,215,o),
(100,158,o),
(95,-207,c)
);
},
{
closed = 1;
nodes = (
(124,206,o),
(124,206,o),
(124,395,cs),
(124,516,o),
(127,604,o),
(184,648,cs),
(205,664,o),
(236,678,o),
(290,678,cs),
(374,678,o),
(453,628,o),
(453,535,cs),
(453,464,o),
(395,381,o),
(281,381,cs),
(255,381,o),
(223,381,o),
(186,383,c),
(186,350,l),
(223,352,o),
(247,352,o),
(293,352,cs),
(407,352,o),
(474,277,o),
(474,197,cs),
(474,92,o),
(400,22,o),
(267,22,cs),
(206,22,o),
(161,31,o),
(124,47,c)
);
}
);
width = 545;
},
{
layerId = m01;
shapes = (
{
closed = 1;
nodes = (
(138,-205,l),
(135,-127,o),
(135,-59,o),
(135,2,c),
(199,-7,o),
(256,-10,o),
(285,-10,cs),
(438,-10,o),
(555,39,o),
(555,173,cs),
(555,251,o),
(500,293,o),
(473,311,cs),
(440,333,o),
(427,345,o),
(427,360,cs),
(427,375,o),
(439,386,o),
(470,411,cs),
(498,434,o),
(537,476,o),
(537,540,cs),
(537,654,o),
(451,710,o),
(316,710,cs),
(143,710,o),
(98,612,o),
(80,545,cs),
(66,493,o),
(61,441,o),
(61,293,cs),
(61,126,o),
(61,-39,o),
(58,-205,c)
);
},
{
closed = 1;
nodes = (
(134,228,o),
(134,245,o),
(134,263,cs),
(134,385,o),
(135,443,o),
(177,481,cs),
(207,508,o),
(254,513,o),
(285,513,cs),
(365,513,o),
(408,487,o),
(408,450,cs),
(408,413,o),
(374,386,o),
(313,386,cs),
(288,386,o),
(261,387,o),
(229,390,c),
(229,328,l),
(261,331,o),
(280,331,o),
(305,331,cs),
(373,331,o),
(409,296,o),
(409,262,cs),
(409,213,o),
(363,187,o),
(298,187,cs),
(258,187,o),
(201,191,o),
(134,210,c)
);
}
);
width = 595;
}
);
metricLeft = B;
metricRight = B;
unicode = 42933;
},
{
glyphname = bhook;
kernLeft = KO_h;
kernRight = KO_b;
lastChange = "2024-01-29 18:42:04 +0000";
layers = (
{
background = {
shapes = (
{
pos = (1,0);
ref = b;
}
);
};
layerId = "60D037D9-62E9-4843-B070-F1594CB0B0D1";
shapes = (
{
closed = 1;
nodes = (
(122,0,l),
(121,22,o),
(121,38,o),
(121,53,cs),
(121,80,o),
(121,87,o),
(128,87,cs),
(135,87,o),
(138,83,o),
(152,62,cs),
(172,32,o),
(217,-16,o),
(308,-16,cs),
(433,-16,o),
(511,80,o),
(511,240,cs),
(511,400,o),
(433,496,o),
(308,496,cs),
(217,496,o),
(172,448,o),
(152,418,cs),
(138,397,o),
(135,393,o),
(128,393,cs),
(121,393,o),
(121,400,o),
(121,427,cs),
(121,487,o),
(121,494,o),
(121,622,cs),
(121,653,o),
(125,673,o),
(141,686,cs),
(152,695,o),
(166,698,o),
(185,698,cs),
(202,698,o),
(226,695,o),
(241,692,c),
(241,734,l),
(223,736,o),
(204,738,o),
(188,738,cs),
(146,738,o),
(121,727,o),
(107,701,cs),
(99,686,o),
(95,661,o),
(95,635,cs),
(98,463,o),
(98,463,o),
(98,391,cs),
(98,325,o),
(98,175,o),
(95,0,c)
);
},
{
closed = 1;
nodes = (
(188,21,o),
(118,96,o),
(118,240,cs),
(118,384,o),
(188,459,o),
(308,459,cs),
(427,459,o),
(490,376,o),
(490,240,cs),
(490,104,o),
(427,21,o),
(308,21,cs)
);
}
);
width = 565;
},
{
background = {
shapes = (
{
pos = (2,0);
ref = b;
}
);
};
layerId = m01;
shapes = (
{
closed = 1;
nodes = (
(124,0,l),
(122,24,o),
(120,49,o),
(120,64,cs),
(120,81,o),
(120,91,o),
(130,91,cs),
(137,91,o),
(145,81,o),
(162,58,cs),
(185,27,o),
(222,-8,o),
(318,-8,cs),
(464,-8,o),
(529,74,o),
(529,250,cs),
(529,426,o),
(464,508,o),
(318,508,cs),
(222,508,o),
(185,473,o),
(162,442,cs),
(145,419,o),
(137,409,o),
(130,409,cs),
(120,409,o),
(119,419,o),
(119,436,cs),
(119,439,o),
(119,445,o),
(119,481,cs),
(119,549,o),
(124,578,o),
(135,591,cs),
(144,602,o),
(160,608,o),
(180,608,cs),
(197,608,o),
(197,608,o),
(243,602,c),
(243,737,l),
(216,741,o),
(190,744,o),
(167,744,cs),
(131,744,o),
(103,734,o),
(80,711,cs),
(54,685,o),
(50,641,o),
(50,619,cs),
(55,394,o),
(55,394,o),
(55,370,cs),
(55,247,o),
(55,123,o),
(52,0,c)
);
},
{
closed = 1;
nodes = (
(166,183,o),
(118,199,o),
(118,250,cs),
(118,301,o),
(166,319,o),
(293,319,cs),
(414,319,o),
(469,301,o),
(469,250,cs),
(469,199,o),
(414,183,o),
(293,183,cs)
);
}
);
width = 559;
}
);
metricLeft = b;
metricRight = b;
unicode = 595;
},
{
glyphname = bilabialclick;
lastChange = "2024-01-29 11:15:16 +0000";
layers = (
{
layerId = "60D037D9-62E9-4843-B070-F1594CB0B0D1";
shapes = (
{
ref = O;
},
{
closed = 1;
nodes = (
(345,313,o),
(358,326,o),
(358,351,cs),
(358,376,o),
(345,389,o),
(325,389,cs),
(304,389,o),
(292,376,o),
(292,351,cs),
(292,326,o),
(304,313,o),
(325,313,cs)
);
}
);
width = 650;
},
{
layerId = m01;
shapes = (
{
ref = O;
},
{
closed = 1;
nodes = (
(405,287,o),
(431,307,o),
(431,350,cs),
(431,393,o),
(403,413,o),
(347,413,cs),
(288,413,o),
(263,393,o),
(263,350,cs),
(263,307,o),
(290,287,o),
(347,287,cs)
);
}
);
width = 694;
}
);
metricLeft = O;
metricRight = O;
unicode = 664;
},
{
glyphname = c;
kernLeft = KO_c;
kernRight = KO_c;
lastChange = "2024-01-31 23:08:43 +0000";
layers = (
{
anchors = (
{
name = bottom;
pos = (254,0);
},
{
name = center;
pos = (265,245);
},
{
name = top;
pos = (264,520);
}
);
background = {
shapes = (
{
ref = o;
}
);
};
layerId = m01;
shapes = (
{
closed = 1;
nodes = (
(352,-8,o),
(403,3,o),
(445,20,c),
(445,199,l),
(420,192,o),
(329,180,o),
(265,180,cs),
(140,180,o),
(90,194,o),
(90,250,cs),
(90,306,o),
(140,319,o),
(265,319,cs),
(329,319,o),
(420,306,o),
(445,299,c),
(445,484,l),
(403,498,o),
(352,508,o),
(291,508,cs),
(113,508,o),
(30,422,o),
(30,250,cs),
(30,78,o),
(113,-8,o),
(291,-8,cs)
);
}
);
width = 477;
},
{
anchors = (
{
name = bottom;
pos = (259,0);
},
{
name = center;
pos = (239,240);
},
{
name = top;
pos = (267,520);
}
);
guides = (
{
locked = 1;
pos = (137,240);
}
);
layerId = "60D037D9-62E9-4843-B070-F1594CB0B0D1";
shapes = (
{
closed = 1;
nodes = (
(318,-16,o),
(361,-9,o),
(397,3,c),
(397,43,l),
(358,30,o),
(326,20,o),
(271,20,cs),
(174,20,o),
(75,77,o),
(75,240,cs),
(75,403,o),
(174,461,o),
(271,461,cs),
(320,461,o),
(361,450,o),
(397,437,c),
(397,477,l),
(361,489,o),
(328,496,o),
(280,496,cs),
(150,496,o),
(54,415,o),
(54,240,cs),
(54,65,o),
(150,-16,o),
(275,-16,cs)
);
}
);
width = 433;
}
);
metricLeft = o;
unicode = 99;
userData = {
KernOnName = c;
};
},
{
glyphname = "chi-latin";
lastChange = "2024-01-26 14:17:26 +0000";
layers = (
{
background = {
shapes = (
{
closed = 1;
nodes = (
(327,137,l),
(399,247,o),
(474,367,o),
(544,480,c),
(505,480,l),
(439,367,o),
(375,259,o),
(306,149,c)
);
},
{
closed = 1;
nodes = (
(351,17,o),
(408,-128,o),
(434,-164,cs),
(451,-188,o),
(475,-198,o),
(500,-198,cs),
(530,-198,o),
(560,-181,o),
(573,-151,c),
(573,-105,l),
(547,-145,o),
(520,-160,o),
(495,-160,cs),
(475,-160,o),
(457,-150,o),
(447,-136,cs),
(427,-108,o),
(376,19,o),
(326,149,cs),
(275,281,o),
(216,432,o),
(193,462,cs),
(176,484,o),
(152,496,o),
(127,496,cs),
(97,496,o),
(67,479,o),
(54,449,c),
(54,403,l),
(80,443,o),
(107,458,o),
(132,458,cs),
(152,458,o),
(168,449,o),
(180,434,cs),
(199,410,o),
(251,280,o),
(301,149,cs)
);
},
{
closed = 1;
nodes = (
(318,161,l),
(246,51,o),
(171,-69,o),
(101,-182,c),
(140,-182,l),
(206,-69,o),
(270,39,o),
(339,149,c)
);
}
);
};
layerId = "60D037D9-62E9-4843-B070-F1594CB0B0D1";
shapes = (
{
closed = 1;
nodes = (
(147,-182,l),
(205,-77,o),
(256,13,o),
(315,113,c),
(361,-9,o),
(410,-131,o),
(434,-164,cs),
(451,-188,o),
(475,-198,o),
(500,-198,cs),
(530,-198,o),
(560,-181,o),
(573,-151,c),
(573,-105,l),
(547,-145,o),
(520,-160,o),
(495,-160,cs),
(475,-160,o),
(460,-150,o),
(449,-136,cs),
(428,-109,o),
(378,13,o),
(329,140,c),
(394,250,o),
(468,368,o),
(540,480,c),
(499,480,l),
(438,374,o),
(379,272,o),
(318,169,c),
(269,296,o),
(215,433,o),
(193,462,cs),
(176,484,o),
(152,496,o),
(127,496,cs),
(97,496,o),
(67,479,o),
(54,449,c),
(54,403,l),
(80,443,o),
(107,458,o),
(132,458,cs),
(152,458,o),
(168,449,o),
(180,434,cs),
(199,410,o),
(255,269,o),
(304,142,c),
(242,38,o),
(170,-76,o),
(103,-182,c)
);
}
);
width = 585;
},
{
background = {
shapes = (
{
closed = 1;
nodes = (
(344,284,l),
(249,136,o),
(142,-31,o),
(42,-184,c),
(135,-184,l),
(210,-55,o),
(300,92,o),
(369,201,c)
);
},
{
closed = 1;
nodes = (
(317,64,l),
(317,64,o),
(317,64,o),
(317,64,c),
(346,-9,o),
(375,-77,o),
(391,-106,cs),
(421,-160,o),
(463,-184,o),
(508,-184,cs),
(544,-184,o),
(580,-171,o),
(600,-152,c),
(600,32,l),
(578,-15,o),
(532,-46,o),
(491,-46,cs),
(466,-46,o),
(442,-35,o),
(427,-10,cs),
(414,12,o),
(389,71,o),
(362,141,c),
(362,141,o),
(362,142,o),
(363,142,c),
(313,268,l),
(312,268,o),
(312,267,o),
(312,267,c),
(283,341,o),
(254,410,o),
(239,438,cs),
(207,500,o),
(167,516,o),
(122,516,cs),
(86,516,o),
(50,503,o),
(30,484,c),
(30,300,l),
(52,347,o),
(98,378,o),
(139,378,cs),
(164,378,o),
(188,367,o),
(203,342,cs),
(216,320,o),
(241,261,o),
(268,191,c),
(268,191,o),
(268,190,o),
(267,190,c)
);
},
{
closed = 1;
nodes = (
(251,32,l),
(346,180,o),
(453,347,o),
(553,500,c),
(460,500,l),
(385,371,o),
(295,224,o),
(226,115,c)
);
}
);
};
layerId = m01;
shapes = (
{
closed = 1;
nodes = (
(135,-184,l),
(197,-78,o),
(249,9,o),
(304,97,c),
(327,41,o),
(354,-23,o),
(391,-106,cs),
(416,-162,o),
(470,-184,o),
(508,-184,cs),
(544,-184,o),
(580,-171,o),
(600,-152,c),
(600,76,l),
(578,29,o),
(532,-2,o),
(491,-2,cs),
(466,-2,o),
(441,7,o),
(421,35,cs),
(402,61,o),
(369,131,o),
(346,181,c),
(414,287,o),
(483,394,o),
(553,500,c),
(460,500,l),
(399,395,o),
(364,335,o),
(316,258,c),
(286,333,o),
(257,404,o),
(239,438,cs),
(207,500,o),
(167,516,o),
(122,516,cs),
(86,516,o),
(50,503,o),
(30,484,c),
(30,256,l),
(52,303,o),
(94,334,o),
(133,334,cs),
(162,334,o),
(187,329,o),
(206,306,cs),
(227,281,o),
(241,250,o),
(274,175,c),
(195,51,o),
(131,-48,o),
(42,-184,c)
);
}
);
width = 595;
}
);
metricLeft = a;
unicode = 43859;
},
{
glyphname = chook;
lastChange = "2024-01-27 22:59:32 +0000";
layers = (
{
layerId = "60D037D9-62E9-4843-B070-F1594CB0B0D1";
shapes = (
{
ref = c;
},
{
closed = 1;
nodes = (
(397,499,o),
(399,528,o),
(421,541,cs),
(431,547,o),
(443,551,o),
(458,551,cs),
(475,551,o),
(499,548,o),
(514,545,c),
(514,587,l),
(496,589,o),
(477,591,o),
(461,591,cs),
(406,591,o),
(370,569,o),
(370,472,cs),
(370,467,o),
(370,461,o),
(370,456,c),
(397,451,l)
);
}
);
width = 455;
},
{
layerId = m01;
shapes = (
{
ref = c;
},
{
closed = 1;
nodes = (
(445,502,o),
(449,532,o),
(461,546,cs),
(470,557,o),
(486,563,o),
(506,563,cs),
(523,563,o),
(523,563,o),
(569,557,c),
(569,685,l),
(542,689,o),
(516,692,o),
(493,692,cs),
(423,692,o),
(380,660,o),
(380,529,cs),
(380,492,o),
(380,465,o),
(380,439,c),
(445,421,l)
);
}
);
width = 557;
}
);
unicode = 392;
},
{
glyphname = d;
kernLeft = KO_a;
kernRight = KO_d;
lastChange = "2024-01-31 17:59:16 +0000";
layers = (
{
anchors = (
{
name = bottom;
pos = (268,0);
},
{
name = center;
pos = (453,585);
},
{
name = top;
pos = (250,520);
},
{
name = topright;
pos = (543,740);
}
);
background = {
shapes = (
{
pos = (-68,0);
ref = o;
}
);
};
layerId = m01;
shapes = (
{
closed = 1;
nodes = (
(337,-8,o),
(374,27,o),
(397,58,cs),
(414,81,o),
(422,91,o),
(429,91,cs),
(439,91,o),
(439,81,o),
(439,64,cs),
(439,49,o),
(437,24,o),
(435,0,c),
(507,0,l),
(504,339,o),
(504,339,o),
(504,370,cs),
(504,401,o),
(504,401,o),
(507,740,c),
(435,740,l),
(438,525,o),
(439,451,o),
(439,436,cs),
(439,419,o),
(439,409,o),
(429,409,cs),
(422,409,o),
(414,419,o),
(397,442,cs),
(374,473,o),
(337,508,o),
(241,508,cs),
(95,508,o),
(30,426,o),
(30,250,cs),
(30,74,o),
(95,-8,o),
(241,-8,cs)
);
},
{
closed = 1;
nodes = (
(145,183,o),
(90,199,o),
(90,250,cs),
(90,301,o),
(145,319,o),
(266,319,cs),
(393,319,o),
(441,301,o),
(441,250,cs),
(441,199,o),
(393,183,o),
(266,183,cs)
);
}
);
width = 557;
},
{
anchors = (
{
name = bottom;
pos = (295,0);
},
{
name = center;
pos = (424,590);
},
{
name = top;
pos = (252,520);
},
{
name = topright;
pos = (500,740);
}
);
layerId = "60D037D9-62E9-4843-B070-F1594CB0B0D1";
shapes = (
{
closed = 1;
nodes = (
(348,-16,o),
(393,32,o),
(413,62,cs),
(427,83,o),
(430,87,o),
(437,87,cs),
(444,87,o),
(444,80,o),
(444,53,cs),
(444,38,o),
(443,19,o),
(442,0,c),
(471,0,l),
(468,175,o),
(467,273,o),
(467,373,cs),
(467,473,o),
(468,565,o),
(471,740,c),
(442,740,l),
(443,711,o),
(444,519,o),
(444,427,cs),
(444,400,o),
(444,393,o),
(437,393,cs),
(430,393,o),
(427,397,o),
(413,418,cs),
(393,448,o),
(348,496,o),
(257,496,cs),
(132,496,o),
(54,400,o),
(54,240,cs),
(54,80,o),
(132,-16,o),
(257,-16,cs)
);
},
{
closed = 1;
nodes = (
(138,21,o),
(75,104,o),
(75,240,cs),
(75,376,o),
(138,459,o),
(257,459,cs),
(377,459,o),
(447,384,o),
(447,240,cs),
(447,96,o),
(377,21,o),
(257,21,cs)
);
}
);
width = 566;
}
);
metricLeft = o;
metricRight = "=|n";
unicode = 100;
userData = {
KernOnName = d;
};
},
{
glyphname = dhook;
lastChange = "2024-01-29 13:28:54 +0000";
layers = (
{
layerId = "60D037D9-62E9-4843-B070-F1594CB0B0D1";
shapes = (
{
closed = 1;
nodes = (
(507,175,o),
(507,325,o),
(507,391,cs),
(507,468,o),
(507,468,o),
(507,622,cs),
(507,653,o),
(512,673,o),
(528,686,cs),
(539,695,o),
(552,698,o),
(571,698,cs),
(588,698,o),
(612,695,o),
(627,692,c),
(627,734,l),
(609,736,o),
(590,738,o),
(574,738,cs),
(532,738,o),
(507,727,o),
(493,701,cs),
(485,686,o),
(484,661,o),
(484,635,cs),
(484,553,o),
(484,445,o),
(484,427,cs),
(484,400,o),
(484,393,o),
(477,393,cs),
(470,393,o),
(467,397,o),
(453,418,cs),
(433,448,o),
(388,496,o),
(297,496,cs),
(172,496,o),
(94,400,o),
(94,240,cs),
(94,80,o),
(172,-16,o),
(297,-16,cs),
(388,-16,o),
(433,32,o),
(453,62,cs),
(467,83,o),
(470,87,o),
(477,87,cs),
(484,87,o),
(484,80,o),
(484,53,cs),
(484,38,o),
(484,22,o),
(483,0,c),
(510,0,l)
);
},
{
closed = 1;
nodes = (
(178,21,o),
(115,104,o),
(115,240,cs),
(115,376,o),
(178,459,o),
(297,459,cs),
(417,459,o),
(487,384,o),
(487,240,cs),
(487,96,o),
(417,21,o),
(297,21,cs)
);
}
);
width = 568;
},
{
background = {
shapes = (
{
closed = 1;
nodes = (
(163,183,o),
(108,199,o),
(108,250,cs),
(108,301,o),
(163,319,o),
(284,319,cs),
(411,319,o),
(459,301,o),
(459,250,cs),
(459,199,o),
(411,183,o),
(284,183,cs)
);
},
{
closed = 1;
nodes = (
(522,500,l),
(523,554,o),
(530,579,o),
(540,591,cs),
(549,602,o),
(565,608,o),
(585,608,cs),
(602,608,o),
(602,608,o),
(648,602,c),
(648,737,l),
(621,741,o),
(595,744,o),
(572,744,cs),
(536,744,o),
(508,734,o),
(485,711,cs),
(459,685,o),
(458,641,o),
(458,619,cs),
(458,559,o),
(458,559,o),
(458,527,cs),
(458,516,o),
(458,507,o),
(458,500,c)
);
},
{
closed = 1;
nodes = (
(458,500,l),
(458,478,o),
(458,470,o),
(458,436,cs),
(458,419,o),
(457,409,o),
(447,409,cs),
(440,409,o),
(432,419,o),
(415,442,cs),
(392,473,o),
(355,508,o),
(259,508,cs),
(113,508,o),
(48,426,o),
(48,250,cs),
(48,74,o),
(113,-8,o),
(259,-8,cs),
(355,-8,o),
(392,27,o),
(415,58,cs),
(432,81,o),
(440,91,o),
(447,91,cs),
(457,91,o),
(457,81,o),
(457,64,cs),
(457,49,o),
(455,24,o),
(453,0,c),
(525,0,l),
(522,370,ls),
(522,388,o),
(522,391,o),
(522,482,cs),
(522,488,o),
(522,494,o),
(522,500,c)
);
}
);
};
layerId = m01;
shapes = (
{
closed = 1;
nodes = (
(522,123,o),
(522,247,o),
(522,370,cs),
(522,388,o),
(522,391,o),
(522,482,cs),
(522,549,o),
(529,578,o),
(540,591,cs),
(549,602,o),
(565,608,o),
(585,608,cs),
(602,608,o),
(602,608,o),
(648,602,c),
(648,737,l),
(621,741,o),
(595,744,o),
(572,744,cs),
(536,744,o),
(508,734,o),
(485,711,cs),
(459,685,o),
(458,641,o),
(458,619,cs),
(458,559,o),
(458,481,o),
(458,436,cs),
(458,419,o),
(457,409,o),
(447,409,cs),
(440,409,o),
(432,419,o),
(415,442,cs),
(392,473,o),
(355,508,o),
(259,508,cs),
(113,508,o),
(48,426,o),
(48,250,cs),
(48,74,o),
(113,-8,o),
(259,-8,cs),
(355,-8,o),
(392,27,o),
(415,58,cs),
(432,81,o),
(440,91,o),
(447,91,cs),
(457,91,o),
(457,81,o),
(457,64,cs),
(457,49,o),
(455,24,o),
(453,0,c),
(525,0,l)
);
},
{
closed = 1;
nodes = (
(163,183,o),
(108,199,o),
(108,250,cs),
(108,301,o),
(163,319,o),
(284,319,cs),
(411,319,o),
(459,301,o),
(459,250,cs),
(459,199,o),
(411,183,o),
(284,183,cs)
);
}
);
width = 636;
}
);
metricRight = chook;
unicode = 599;
},
{
glyphname = dtail;
kernLeft = KO_a;
lastChange = "2024-01-29 12:02:36 +0000";
layers = (
{
layerId = "60D037D9-62E9-4843-B070-F1594CB0B0D1";
shapes = (
{
closed = 1;
nodes = (
(585,-161,l),
(570,-164,o),
(546,-167,o),
(529,-167,cs),
(485,-167,o),
(467,-133,o),
(467,-91,cs),
(467,129,o),
(467,133,o),
(467,373,cs),
(467,473,o),
(468,565,o),
(471,740,c),
(442,740,l),
(443,711,o),
(444,519,o),
(444,427,cs),
(444,400,o),
(444,393,o),
(437,393,cs),
(430,393,o),
(427,397,o),
(413,418,cs),
(393,448,o),
(348,496,o),
(257,496,cs),
(132,496,o),
(54,400,o),
(54,240,cs),
(54,80,o),
(132,-16,o),
(257,-16,cs),
(348,-16,o),
(393,32,o),
(413,62,cs),
(427,83,o),
(430,87,o),
(437,87,cs),
(444,87,o),
(444,80,o),
(444,53,cs),
(444,38,o),
(444,29,o),
(444,-94,cs),
(444,-120,o),
(446,-148,o),
(453,-163,cs),
(465,-190,o),
(490,-207,o),
(532,-207,cs),
(548,-207,o),
(567,-205,o),
(585,-203,c)
);
},
{
closed = 1;
nodes = (
(75,376,o),
(138,459,o),
(257,459,cs),
(377,459,o),
(447,384,o),
(447,240,cs),
(447,96,o),
(377,21,o),
(257,21,cs),
(138,21,o),
(75,104,o),
(75,240,cs)
);
}
);
width = 570;
},
{
layerId = m01;
shapes = (
{
closed = 1;
nodes = (
(630,-70,l),
(584,-76,o),
(584,-76,o),
(567,-76,cs),
(516,-76,o),
(510,-44,o),
(508,-20,cs),
(506,6,o),
(504,339,o),
(504,370,cs),
(504,493,o),
(504,617,o),
(507,740,c),
(435,740,l),
(438,639,o),
(439,537,o),
(439,436,cs),
(439,419,o),
(439,409,o),
(429,409,cs),
(422,409,o),
(414,419,o),
(397,442,cs),
(374,473,o),
(337,508,o),
(241,508,cs),
(95,508,o),
(30,426,o),
(30,250,cs),
(30,74,o),
(95,-8,o),
(241,-8,cs),
(337,-8,o),
(374,27,o),
(397,58,cs),
(414,81,o),
(422,91,o),
(429,91,cs),
(439,91,o),
(440,80,o),
(440,59,cs),
(440,46,o),
(440,-55,o),
(440,-68,cs),
(440,-117,o),
(443,-155,o),
(467,-179,cs),
(490,-202,o),
(518,-212,o),
(554,-212,cs),
(577,-212,o),
(603,-209,o),
(630,-205,c)
);
},
{
closed = 1;
nodes = (
(90,301,o),
(145,319,o),
(266,319,cs),
(393,319,o),
(441,301,o),
(441,250,cs),
(441,199,o),
(393,183,o),
(266,183,cs),
(145,183,o),
(90,199,o),
(90,250,cs)
);
}
);
width = 600;
}
);
unicode = 598;
},
{
glyphname = eth;
lastChange = "2024-01-29 11:45:25 +0000";
layers = (
{
background = {
shapes = (
{
pos = (1,0);
ref = o;
}
);
};
layerId = "60D037D9-62E9-4843-B070-F1594CB0B0D1";
shapes = (
{
closed = 1;
nodes = (
(385,-16,o),
(478,81,o),
(478,274,cs),
(478,335,o),
(466,423,o),
(452,471,cs),
(425,565,o),
(370,630,o),
(324,669,cs),
(279,707,o),
(203,732,o),
(147,732,c),
(147,698,l),
(185,698,o),
(234,690,o),
(273,669,cs),
(395,603,o),
(446,456,o),
(446,394,cs),
(446,387,o),
(444,386,o),
(441,386,cs),
(437,386,o),
(434,388,o),
(428,398,cs),
(409,427,o),
(357,496,o),
(264,496,cs),
(129,496,o),
(54,388,o),
(54,240,cs),
(54,92,o),
(129,-16,o),
(266,-16,cs)
);
},
{
closed = 1;
nodes = (
(139,22,o),
(77,101,o),
(77,240,cs),
(77,379,o),
(141,459,o),
(266,459,cs),
(370,459,o),
(453,381,o),
(453,240,cs),
(453,101,o),
(372,22,o),
(266,22,cs)
);
},
{
closed = 1;
nodes = (
(237,578,o),
(265,604,o),
(297,634,cs),
(328,663,o),
(358,690,o),
(390,716,c),
(370,738,l),
(341,709,o),
(310,681,o),
(279,653,cs),
(248,625,o),
(218,598,o),
(186,572,c),
(206,550,l)
);
}
);
width = 532;
},
{
background = {
shapes = (
{
angle = 47;
pos = (389,299);
ref = centerstrokecomb;
},
{
ref = o;
}
);
};
layerId = m01;
shapes = (
{
closed = 1;
nodes = (
(417,-8,o),
(514,61,o),
(514,247,cs),
(514,352,o),
(494,451,o),
(451,530,cs),
(413,600,o),
(368,653,o),
(318,690,cs),
(252,738,o),
(178,761,o),
(100,761,c),
(100,552,l),
(136,552,o),
(235,552,o),
(320,514,cs),
(380,487,o),
(418,438,o),
(419,417,cs),
(419,412,o),
(418,409,o),
(413,409,cs),
(407,409,o),
(399,413,o),
(387,421,cs),
(366,435,o),
(324,458,o),
(259,458,cs),
(121,458,o),
(30,393,o),
(30,225,cs),
(30,57,o),
(112,-8,o),
(272,-8,cs)
);
},
{
closed = 1;
nodes = (
(136,180,o),
(90,198,o),
(90,250,cs),
(90,302,o),
(136,320,o),
(272,320,cs),
(408,320,o),
(454,302,o),
(454,250,cs),
(454,198,o),
(408,180,o),
(272,180,cs)
);
},
{
closed = 1;
nodes = (
(254,506,o),
(289,544,o),
(323,580,cs),
(357,617,o),
(391,653,o),
(427,688,c),
(389,724,l),
(357,687,o),
(322,649,o),
(288,613,cs),
(254,576,o),
(220,540,o),
(184,505,c),
(222,469,l)
);
}
);
width = 544;
}
);
metricLeft = o;
metricRight = o;
unicode = 240;
},
{
glyphname = e;
kernLeft = KO_e;
kernRight = KO_e;
lastChange = "2024-01-31 18:02:13 +0000";
layers = (
{
anchors = (
{
name = bottom;
pos = (273,0);
},
{
name = center;
pos = (254,248);
},
{
name = ogonek;
pos = (474,9);
},
{
name = top;
pos = (273,520);
}
);
background = {
shapes = (
{
pos = (-21,0);
ref = o;
}
);
};
backgroundImage = {
imagePath = "../Downloads/Images/e-ExtraBold.tif";
locked = 1;
pos = (-977,-3564);
scale = (1.4452,1.4452);
};
layerId = m01;
shapes = (
{
closed = 1;
nodes = (
(396,-8,o),
(433,-1,o),
(474,11,c),
(474,203,l),
(393,185,o),
(340,178,o),
(277,178,cs),
(174,178,o),
(114,191,o),
(97,230,c),
(487,230,l),
(487,438,o),
(426,508,o),
(258,508,cs),
(115,508,o),
(30,406,o),
(30,250,cs),
(30,77,o),
(122,-8,o),
(325,-8,cs)
);
},
{
closed = 1;
nodes = (
(102,285,l),
(102,317,o),
(168,343,o),
(258,343,cs),
(353,343,o),
(419,317,o),
(419,285,c)
);
}
);
width = 519;
},
{
anchors = (
{
name = bottom;
pos = (274,0);
},
{
name = center;
pos = (249,248);
},
{
name = ogonek;
pos = (430,5);
},
{
name = top;
pos = (274,520);
}
);
background = {
shapes = (
{
pos = (-31,0);
ref = o;
},
{
pos = (-39,0);
ref = c;
}
);
};
guides = (
{
angle = 90;
pos = (282,259);
}
);
layerId = "60D037D9-62E9-4843-B070-F1594CB0B0D1";
shapes = (
{
closed = 1;
nodes = (
(329,-16,o),
(373,-12,o),
(430,5,c),
(430,45,l),
(379,29,o),
(336,20,o),
(283,20,cs),
(111,20,o),
(74,131,o),
(74,252,c),
(462,252,l),
(462,387,o),
(419,496,o),
(258,496,cs),
(158,496,o),
(54,425,o),
(54,252,cs),
(54,113,o),
(104,-16,o),
(287,-16,cs)
);
},
{
closed = 1;
nodes = (
(75,279,l),
(83,391,o),
(161,459,o),
(258,459,cs),
(377,459,o),
(439,391,o),
(439,279,c)
);
}
);
width = 498;
}
);
metricLeft = o;
metricRight = c;
unicode = 101;
userData = {
KernOnName = e;
};
},
{
glyphname = eopen;
lastChange = "2024-01-29 13:20:55 +0000";
layers = (
{
background = {
shapes = (
{
closed = 1;
nodes = (
(238,-16,o),
(294,-12,o),
(339,2,c),
(339,37,l),
(287,22,o),
(231,17,o),
(196,17,cs),
(130,17,o),
(53,46,o),
(53,132,cs),
(53,202,o),
(112,251,o),
(183,251,cs),
(215,251,o),
(246,251,o),
(300,250,c),
(300,278,l),
(246,277,o),
(215,277,o),
(183,277,cs),
(121,277,o),
(68,313,o),
(68,366,cs),
(68,435,o),
(117,463,o),
(204,463,cs),
(239,463,o),
(280,460,o),
(331,444,c),
(331,478,l),
(286,492,o),
(245,496,o),
(214,496,cs),
(80,496,o),
(47,421,o),
(47,365,cs),
(47,328,o),
(70,302,o),
(82,292,cs),
(101,275,o),
(121,271,o),
(121,263,cs),
(121,257,o),
(89,247,o),
(69,227,cs),
(44,202,o),
(30,177,o),
(30,129,cs),
(30,66,o),
(66,-16,o),
(206,-16,cs)
);
}
);
};
layerId = "60D037D9-62E9-4843-B070-F1594CB0B0D1";
shapes = (
{
closed = 1;
nodes = (
(356,42,l),
(327,28,o),
(289,19,o),
(235,19,cs),
(127,19,o),
(69,60,o),
(69,133,cs),
(69,189,o),
(121,238,o),
(215,238,cs),
(253,238,o),
(273,238,o),
(303,237,c),
(303,266,l),
(273,265,o),
(246,265,o),
(225,265,cs),
(131,265,o),
(87,320,o),
(87,369,cs),
(87,434,o),
(144,461,o),
(227,461,cs),
(272,461,o),
(312,452,o),
(342,438,c),
(342,478,l),
(308,490,o),
(271,496,o),
(232,496,cs),
(127,496,o),
(66,448,o),
(66,371,cs),
(66,332,o),
(85,291,o),
(131,265,cs),
(142,259,o),
(147,256,o),
(147,254,cs),
(147,251,o),
(140,248,o),
(131,245,cs),
(72,226,o),
(48,178,o),
(48,127,cs),
(48,45,o),
(111,-16,o),
(244,-16,cs),
(287,-16,o),
(324,-10,o),
(356,3,c)
);
}
);
width = 371;
},
{
background = {
shapes = (
{
closed = 1;
nodes = (
(265,-7,o),
(322,-5,o),
(393,7,c),
(393,196,l),
(317,177,o),
(255,174,o),
(213,175,cs),
(158,175,o),
(146,194,o),
(146,204,cs),
(146,216,o),
(149,232,o),
(213,232,cs),
(249,232,o),
(292,231,o),
(350,231,c),
(350,294,l),
(292,293,o),
(249,293,o),
(213,293,cs),
(155,293,o),
(146,306,o),
(146,319,cs),
(146,334,o),
(159,342,o),
(213,342,cs),
(255,342,o),
(315,340,o),
(390,321,c),
(390,486,l),
(318,498,o),
(265,500,o),
(235,500,cs),
(117,500,o),
(38,473,o),
(38,376,cs),
(38,343,o),
(55,319,o),
(75,303,cs),
(98,281,o),
(126,272,o),
(126,258,cs),
(126,245,o),
(103,234,o),
(80,214,cs),
(58,196,o),
(38,161,o),
(38,117,cs),
(38,20,o),
(117,-7,o),
(235,-7,cs)
);
}
);
};
layerId = m01;
shapes = (
{
closed = 1;
nodes = (
(405,187,l),
(328,170,o),
(260,166,o),
(219,166,cs),
(156,166,o),
(139,181,o),
(139,197,cs),
(139,211,o),
(145,229,o),
(230,229,cs),
(274,229,o),
(308,228,o),
(346,225,c),
(346,284,l),
(288,281,o),
(243,280,o),
(207,280,cs),
(144,280,o),
(139,296,o),
(139,307,cs),
(139,319,o),
(151,331,o),
(209,331,cs),
(250,331,o),
(311,328,o),
(388,310,c),
(388,491,l),
(314,504,o),
(260,508,o),
(229,508,cs),
(109,508,o),
(30,477,o),
(30,384,cs),
(30,338,o),
(61,309,o),
(80,292,cs),
(100,274,o),
(108,266,o),
(108,256,cs),
(108,245,o),
(100,234,o),
(78,220,cs),
(59,208,o),
(17,177,o),
(17,121,cs),
(17,29,o),
(109,-8,o),
(229,-8,cs),
(260,-8,o),
(332,-4,o),
(405,9,c)
);
}
);
width = 433;
}
);
unicode = 603;
},
{
glyphname = esh;
lastChange = "2024-01-29 14:01:20 +0000";
layers = (
{
layerId = "60D037D9-62E9-4843-B070-F1594CB0B0D1";
shapes = (
{
closed = 1;
nodes = (
(121,-225,o),
(204,-180,o),
(207,-62,cs),
(208,152,o),
(212,366,o),
(218,580,cs),
(219,634,o),
(236,671,o),
(266,685,cs),
(298,700,o),
(353,693,o),
(398,667,c),
(399,709,l),
(278,759,o),
(195,714,o),
(192,596,cs),
(191,382,o),
(187,168,o),
(181,-46,cs),
(180,-100,o),
(163,-137,o),
(133,-151,cs),
(101,-166,o),
(46,-159,o),
(1,-133,c),
(0,-175,l)
);
}
);
width = 399;
},
{
layerId = m01;
shapes = (
{
closed = 1;
nodes = (
(151,-209,o),
(234,-200,o),
(237,-22,cs),
(241,204,o),
(238,340,o),
(243,457,cs),
(245,496,o),
(255,522,o),
(273,535,cs),
(297,553,o),
(340,558,o),
(417,542,c),
(420,717,l),
(269,736,o),
(186,727,o),
(183,549,cs),
(179,323,o),
(182,187,o),
(177,70,cs),
(175,31,o),
(165,5,o),
(147,-8,cs),
(123,-26,o),
(80,-31,o),
(3,-15,c),
(0,-190,l)
);
}
);
width = 420;
}
);
unicode = 643;
},
{
glyphname = ezh;
lastChange = "2024-01-29 14:01:41 +0000";
layers = (
{
anchors = (
{
name = top;
pos = (250,520);
}
);
background = {
shapes = (
{
closed = 1;
nodes = (
(355,-207,o),
(450,-129,o),
(450,-3,cs),
(450,84,o),
(404,145,o),
(316,175,cs),
(281,187,o),
(236,194,o),
(205,193,c),
(268,244,o),
(339,297,o),
(416,351,c),
(416,480,l),
(50,480,l),
(50,447,l),
(352,447,o),
(382,446,o),
(388,438,cs),
(391,434,o),
(394,416,o),
(394,401,cs),
(394,386,o),
(391,369,o),
(385,364,cs),
(346,332,o),
(281,283,o),
(174,207,c),
(174,169,l),
(201,169,o),
(215,168,o),
(245,164,cs),
(356,149,o),
(422,91,o),
(422,2,cs),
(422,-100,o),
(337,-173,o),
(223,-173,cs),
(171,-173,o),
(110,-158,o),
(53,-130,c),
(53,-170,l),
(119,-196,o),
(167,-207,o),
(218,-207,cs)
);
}
);
};
layerId = "60D037D9-62E9-4843-B070-F1594CB0B0D1";
shapes = (
{
closed = 1;
nodes = (
(98,-198,o),
(149,-207,o),
(206,-207,cs),
(370,-207,o),
(445,-115,o),
(445,-7,cs),
(445,168,o),
(283,198,o),
(206,198,c),
(284,255,o),
(333,292,o),
(415,351,c),
(415,480,l),
(74,480,l),
(74,447,l),
(173,447,o),
(219,447,o),
(294,447,cs),
(394,447,o),
(394,446,o),
(394,407,cs),
(394,375,o),
(394,370,o),
(360,344,cs),
(304,301,o),
(234,251,o),
(175,209,c),
(175,171,l),
(193,171,o),
(211,171,o),
(242,167,cs),
(320,157,o),
(425,116,o),
(425,-8,cs),
(425,-97,o),
(350,-171,o),
(217,-171,cs),
(145,-171,o),
(94,-158,o),
(54,-137,c),
(54,-180,l)
);
}
);
width = 499;
},
{
anchors = (
{
name = top;
pos = (258,520);
}
);
background = {
shapes = (
{
closed = 1;
nodes = (
(401,-194,o),
(488,-126,o),
(488,7,cs),
(488,93,o),
(452,158,o),
(387,190,cs),
(353,207,o),
(313,215,o),
(275,213,c),
(374,254,o),
(392,261,o),
(454,283,c),
(454,500,l),
(56,500,l),
(56,291,l),
(274,297,o),
(290,297,o),
(300,294,cs),
(303,293,o),
(304,291,o),
(304,285,cs),
(304,280,o),
(303,277,o),
(299,274,cs),
(286,264,o),
(194,225,o),
(159,215,c),
(159,170,l),
(246,169,o),
(258,168,o),
(280,165,cs),
(331,157,o),
(357,135,o),
(357,99,cs),
(357,48,o),
(332,25,o),
(277,21,cs),
(212,16,o),
(107,31,o),
(43,54,c),
(43,-173,l),
(101,-186,o),
(173,-194,o),
(229,-194,cs)
);
}
);
};
layerId = m01;
shapes = (
{
closed = 1;
nodes = (
(64,-194,o),
(146,-210,o),
(217,-210,cs),
(387,-210,o),
(485,-135,o),
(485,-11,cs),
(485,104,o),
(408,176,o),
(250,190,c),
(310,230,o),
(373,263,o),
(457,306,c),
(457,500,l),
(42,500,l),
(42,300,l),
(118,300,o),
(148,300,o),
(210,300,cs),
(270,300,o),
(276,299,o),
(276,286,cs),
(276,279,o),
(276,273,o),
(272,268,cs),
(260,255,o),
(172,205,o),
(146,192,c),
(146,141,l),
(209,141,o),
(257,138,o),
(310,117,cs),
(336,107,o),
(367,84,o),
(367,55,cs),
(367,14,o),
(323,-4,o),
(255,-4,cs),
(165,-4,o),
(94,9,o),
(30,27,c),
(30,-186,l)
);
}
);
width = 515;
}
);
metricLeft = e;
metricRight = "=|e";
unicode = 658;
},
{
glyphname = f;
kernLeft = KO_f;
kernRight = KO_f;
lastChange = "2024-01-31 17:40:49 +0000";
layers = (
{
anchors = (
{
name = bottom;
pos = (199,0);
},
{
name = top;
pos = (248,750);
}
);
background = {
shapes = (
{
closed = 1;
nodes = (
(183,0,l),
(177,291,l),
(360,291,l),
(360,500,l),
(177,500,l),
(177,512,o),
(182,532,o),
(194,545,cs),
(215,567,o),
(264,569,o),
(288,569,cs),
(322,569,o),
(360,562,o),
(393,554,c),
(393,737,l),
(371,740,o),
(334,745,o),
(295,745,cs),
(235,745,o),
(170,732,o),
(139,679,cs),
(111,629,o),
(117,555,o),
(117,500,c),
(30,500,l),
(30,291,l),
(117,291,l),
(111,0,l)
);
}
);
};
layerId = m01;
shapes = (
{
closed = 1;
nodes = (
(183,0,l),
(177,291,l),
(360,291,l),
(360,500,l),
(177,500,l),
(177,501,o),
(177,503,o),
(177,504,cs),
(182,562,o),
(236,569,o),
(288,569,cs),
(322,569,o),
(360,562,o),
(393,554,c),
(393,737,l),
(371,740,o),
(334,745,o),
(295,745,cs),
(125,745,o),
(117,654,o),
(117,518,cs),
(117,512,o),
(117,506,o),
(117,500,c),
(30,500,l),
(30,291,l),
(117,291,l),
(111,0,l)
);
}
);
width = 383;
},
{
anchors = (
{
name = bottom;
pos = (126,0);
},
{
name = top;
pos = (187,746);
}
);
background = {
shapes = (
{
closed = 1;
nodes = (
(117,0,l),
(114,447,l),
(270,447,l),
(270,480,l),
(114,480,l),
(114,622,o),
(111,652,o),
(142,681,cs),
(185,722,o),
(265,692,o),
(293,676,c),
(293,718,l),
(230,744,o),
(153,757,o),
(110,691,cs),
(88,657,o),
(92,604,o),
(92,480,c),
(30,480,l),
(30,447,l),
(92,447,l),
(89,0,l)
);
}
);
};
layerId = "60D037D9-62E9-4843-B070-F1594CB0B0D1";
shapes = (
{
closed = 1;
nodes = (
(118,0,l),
(114,447,l),
(270,447,l),
(270,480,l),
(114,480,l),
(114,510,o),
(114,539,o),
(114,597,cs),
(114,658,o),
(134,702,o),
(202,702,cs),
(239,702,o),
(275,686,o),
(293,676,c),
(293,718,l),
(264,730,o),
(242,739,o),
(211,739,cs),
(113,739,o),
(92,680,o),
(92,589,cs),
(92,537,o),
(92,508,o),
(92,480,c),
(30,480,l),
(30,447,l),
(92,447,l),
(88,0,l)
);
}
);
width = 293;
}
);
unicode = 102;
userData = {
KernOnName = f;
};
},
{
glyphname = g;
kernLeft = KO_a;
kernRight = KO_g;
lastChange = "2024-01-31 18:05:48 +0000";
layers = (
{
anchors = (
{
name = bottom;
pos = (262,-227);
},
{
name = center;
pos = (473,257);
},
{
name = top;
pos = (262,520);
}
);
background = {
shapes = (
{
pos = (-17,50);
ref = q;
}
);
};
layerId = m01;
shapes = (
{
closed = 1;
nodes = (
(430,-205,o),
(503,-102,o),
(503,102,cs),
(503,120,o),
(503,148,o),
(503,187,cs),
(503,261,o),
(503,372,o),
(506,500,c),
(434,500,l),
(436,476,o),
(438,452,o),
(438,437,cs),
(438,420,o),
(438,409,o),
(428,409,cs),
(421,409,o),
(413,419,o),
(396,442,cs),
(373,473,o),
(336,508,o),
(242,508,cs),
(83,508,o),
(30,432,o),
(30,273,cs),
(30,106,o),
(96,42,o),
(242,42,cs),
(336,42,o),
(373,77,o),
(396,108,cs),
(413,131,o),
(421,141,o),
(428,141,cs),
(438,141,o),
(438,130,o),
(438,118,cs),
(438,47,o),
(382,-19,o),
(235,-19,cs),
(158,-19,o),
(85,13,o),
(61,25,c),
(61,-181,l),
(101,-192,o),
(166,-205,o),
(240,-205,cs)
);
},
{
closed = 1;
nodes = (
(133,193,o),
(88,215,o),
(88,256,cs),
(88,297,o),
(133,319,o),
(264,319,cs),
(395,319,o),
(440,297,o),
(440,256,cs),
(440,215,o),
(395,193,o),
(264,193,cs)
);
}
);
width = 556;
},
{
anchors = (
{
name = bottom;
pos = (235,-207);
},
{
name = center;
pos = (457,242);
},
{
name = top;
pos = (259,520);
}
);
background = {
shapes = (
{
closed = 1;
nodes = (
(373,-16,o),
(415,87,o),
(435,87,cs),
(445,87,o),
(454,58,o),
(449,27,cs),
(422,-127,o),
(344,-181,o),
(220,-181,cs),
(178,-181,o),
(117,-175,o),
(56,-159,c),
(56,-194,l),
(107,-210,o),
(164,-217,o),
(209,-217,cs),
(374,-217,o),
(468,-124,o),
(468,47,cs),
(468,210,o),
(469,318,o),
(474,480,c),
(444,480,l),
(448,408,o),
(445,393,o),
(436,393,cs),
(413,393,o),
(373,496,o),
(239,496,cs),
(109,496,o),
(26,400,o),
(26,240,cs),
(26,80,o),
(109,-16,o),
(239,-16,cs)
);
},
{
closed = 1;
nodes = (
(115,21,o),
(49,106,o),
(49,240,cs),
(49,374,o),
(114,459,o),
(240,459,cs),
(362,459,o),
(447,380,o),
(447,242,cs),
(447,105,o),
(363,21,o),
(239,21,cs)
);
},
{
pos = (-26,0);
ref = a;
}
);
};
layerId = "60D037D9-62E9-4843-B070-F1594CB0B0D1";
shapes = (
{
closed = 1;
nodes = (
(385,-207,o),
(465,-117,o),
(465,47,cs),
(465,119,o),
(465,132,o),
(465,192,cs),
(465,265,o),
(467,389,o),
(470,480,c),
(442,480,l),
(443,461,o),
(444,442,o),
(444,430,cs),
(444,400,o),
(443,393,o),
(436,393,cs),
(429,393,o),
(426,397,o),
(412,418,cs),
(392,448,o),
(348,496,o),
(257,496,cs),
(132,496,o),
(54,400,o),
(54,240,cs),
(54,80,o),
(132,-16,o),
(257,-16,cs),
(343,-16,o),
(387,34,o),
(409,62,cs),
(425,83,o),
(429,87,o),
(436,87,cs),
(443,87,o),
(443,80,o),
(443,53,cs),
(443,-75,o),
(387,-171,o),
(238,-171,cs),
(200,-171,o),
(149,-165,o),
(89,-146,c),
(89,-186,l),
(139,-202,o),
(187,-207,o),
(235,-207,cs)
);
},
{
closed = 1;
nodes = (
(138,21,o),
(75,104,o),
(75,240,cs),
(75,376,o),
(138,459,o),
(257,459,cs),
(379,459,o),
(447,384,o),
(447,240,cs),
(447,96,o),
(363,21,o),
(257,21,cs)
);
}
);
width = 524;
}
);
metricLeft = o;
unicode = 103;
userData = {
KernOnName = g;
};
},
